<svg xmlns="http://www.w3.org/2000/svg" xml:space="preserve" style="fill-rule:evenodd;clip-rule:evenodd;stroke-linejoin:round;stroke-miterlimit:2" viewBox="0 0 256 256"><path d="M256 64v128c0 35.322-28.677 64-64 64H64c-35.322 0-64-28.678-64-64V64C0 28.678 28.678 0 64 0h128c35.322 0 64 28.677 64 64" style="fill:#191763"/><path d="M63.121.001c123.595 85.333 121.411 170.666 0 255.999C28.283 256 0 227.322 0 192V64C0 28.678 28.283 0 63.121 0" style="fill:#262292"/><path d="M76.147 139.885H28.81V74.441h47.337zm-9.663-41.802h-3.782l-23.879 26.588c-2.169 2.467-4.131 4.318-7.281 4.524h-.073l-.281 1.096h13.309l.28-1.096h-1.262c-1.89 0-3.221-.548-3.64-1.37-.07-.205-.141-.344-.141-.548q0-.925 1.05-2.058c.7-.754 7.633-8.428 7.702-8.497h13.166v8.909c0 2.673-1.61 3.631-6.022 3.631h-.072l-.278 1.097h15.896l.28-1.097h-.142c-4.061 0-4.83-1.026-4.83-2.807zM55.63 108.979s5.602-6.373 5.882-6.647v12.197H50.795c.211-.274 4.833-5.55 4.833-5.55zm70.865 30.906H79.158V74.441h47.337zm-41.383-24.603c0 3.976 1.54 7.608 4.411 10.418 3.64 3.563 9.101 5.551 15.334 5.551 3.433 0 5.813-.479 7.702-.892 1.821-.341 3.293-.685 4.973-.479h.071v-.069c1.329-1.919 2.869-5.003 3.64-7.265l.07-.134h-1.26v.067c-3.083 4.868-7.702 7.332-13.655 7.332-4.271 0-8.194-1.644-11.203-4.522-2.942-2.877-4.553-6.784-4.553-11.034 0-8.564 6.094-14.254 15.195-14.254 5.951 0 10.856 2.947 12.745 7.608v.067h1.191l-.491-7.401h-.98v.069c-.069.07-.28.274-.91.274-.56 0-1.259-.204-2.241-.481-1.959-.615-4.901-1.507-9.663-1.507-11.834 0-20.376 6.991-20.376 16.654zm91.451 24.603h-47.337V74.441h47.337zm-12.465-40.637H137v1.096h1.329c3.781 0 4.411 1.234 4.411 3.906v20.97c0 2.947-.771 3.975-5.182 3.975h-1.679v1.097h30.039l.91-7.609h-1.19v.07c-1.401 4.18-2.52 5.551-6.442 5.551h-8.684c-2.029 0-2.941-.41-2.941-2.673v-10.484h9.455c2.239 0 3.292.342 3.709 3.837v.07h1.263v-9.597h-1.263v.07c-.279 2.673-1.118 3.632-3.149 3.632h-10.015v-12.06h11.766c1.959 0 3.36.822 4.061 5.072v.068h1.19l-.49-7.06zm63.092-7.057v47.694h-47.337V74.441h28.921v17.75zm-29.55 6.577c-3.64 0-4.761.069-7.072.137l-2.452.137c-1.89.069-3.78.204-4.692.204h-.069v1.098h1.329c3.223 0 4.131.892 4.131 3.906v20.902c0 3.152-.98 4.043-4.41 4.043h-1.05v1.097h16.105v-1.097h-1.401c-3.36 0-4.411-.891-4.411-3.632v-8.293h.21c.771.07 1.473.07 2.592.07l3.01-.07h.771c1.54.892 3.571 2.469 5.743 4.387l3.71 3.289c4.972 4.387 7.632 6.305 17.437 5.894h.069v-1.029h-.069c-3.993-.205-7.353-1.779-11.065-5.003l-4.48-3.905c-2.452-2.124-4.203-3.563-6.304-5.073 4.553-1.231 7.352-4.315 7.352-8.085a7.12 7.12 0 0 0-2.169-5.208c-2.311-2.536-6.793-3.769-12.815-3.769m-1.26 1.303c7.352 0 10.782 2.536 10.782 7.949 0 2.399-.699 4.248-2.029 5.617-1.68 1.647-4.341 2.47-8.053 2.47h-.771c-.839 0-1.541 0-2.451-.07v-15.828c.839-.136 1.54-.136 2.522-.136z" style="fill:#fff000;fill-rule:nonzero"/><path d="M211.435 74.44v15.42h15.755z" style="fill:#fff000;fill-rule:nonzero"/><path d="M91.391 180.524h-8.146v12.428q0 2.666-1.257 4.043t-3.175 1.377q-2.007 0-3.234-1.362-1.229-1.362-1.228-3.998v-33.84q0-2.934 1.348-4.192t4.282-1.258h11.41q5.06 0 7.786.778 2.694.75 4.656 2.486t2.98 4.253q1.018 2.515 1.018 5.659 0 6.71-4.132 10.167-4.133 3.459-12.308 3.459M89.234 160.4h-5.989v13.416h5.989q3.145 0 5.256-.659t3.22-2.155q1.107-1.498 1.107-3.923 0-2.905-1.707-4.732-1.916-1.947-7.876-1.947m48.724 32.253-2.097-5.51h-17.848l-2.096 5.629q-1.227 3.296-2.097 4.448t-2.844 1.153q-1.678 0-2.965-1.228t-1.288-2.785q0-.899.299-1.856.3-.96.989-2.666l11.229-28.51 1.154-2.949q.674-1.722 1.438-2.86a5.8 5.8 0 0 1 2.005-1.842q1.243-.703 3.07-.703 1.857 0 3.1.703a5.96 5.96 0 0 1 2.006 1.812c.513.745.945 1.544 1.288 2.381q.524 1.272 1.332 3.399l11.47 28.329q1.348 3.234 1.348 4.702 0 1.527-1.273 2.8t-3.07 1.273q-1.047 0-1.796-.375a3.66 3.66 0 0 1-1.258-1.018q-.51-.644-1.093-1.976-.515-1.17-1.003-2.351m-17.609-12.189h13.117l-6.619-18.117zm56.749-19.405h-9.703v31.893q0 2.756-1.228 4.088t-3.174 1.333q-1.976 0-3.219-1.348-1.243-1.347-1.243-4.073v-31.893h-9.703q-2.275.001-3.384-1.003t-1.108-2.65q0-1.708 1.154-2.696 1.153-.987 3.338-.988h28.27q2.306 0 3.429 1.019 1.123 1.017 1.122 2.665 0 1.647-1.137 2.65-1.138 1.004-3.414 1.003" style="fill:#fff;fill-rule:nonzero"/></svg>