<svg xmlns="http://www.w3.org/2000/svg" xml:space="preserve" style="fill-rule:evenodd;clip-rule:evenodd;stroke-linejoin:round;stroke-miterlimit:2" viewBox="0 0 356 356"><path d="M355.556 88.889v177.778c0 49.059-39.83 88.889-88.889 88.889H88.889C39.83 355.556 0 315.726 0 266.667V88.889C0 39.83 39.83 0 88.889 0h177.778c49.059 0 88.889 39.83 88.889 88.889" style="fill:#191763"/><path d="M88.749-.183c174.053 118.519 170.975 237.037 0 355.556-49.06 0-88.889-39.83-88.889-88.889V88.706C-.14 39.647 39.689-.183 88.749-.183" style="fill:#262292"/><path d="M105.622 193.847H39.75v-91.069h65.872zm-13.447-58.17h-5.262l-33.229 36.999c-3.019 3.433-5.749 6.008-10.132 6.295h-.102l-.39 1.526h18.519l.39-1.526h-1.756c-2.63 0-4.483-.762-5.066-1.906-.097-.285-.196-.479-.196-.763q.001-1.288 1.462-2.863s10.621-11.728 10.718-11.825h18.32v12.397c0 3.72-2.24 5.054-8.379 5.054h-.1l-.387 1.526h22.119l.39-1.526h-.197c-5.652 0-6.722-1.428-6.722-3.907zM77.072 150.84s7.795-8.868 8.185-9.25v16.973H70.344c.293-.381 6.725-7.723 6.725-7.723zm98.611 43.007h-65.871v-91.069h65.871zm-57.587-34.236c0 5.532 2.143 10.586 6.139 14.497 5.065 4.957 12.664 7.724 21.338 7.724 4.776 0 8.088-.666 10.718-1.241 2.533-.475 4.582-.954 6.919-.666h.099v-.097c1.85-2.67 3.993-6.961 5.066-10.109l.097-.187h-1.754v.093c-4.289 6.774-10.717 10.203-19.001 10.203-5.943 0-11.402-2.288-15.59-6.292-4.093-4.004-6.336-9.44-6.336-15.354 0-11.918 8.481-19.836 21.145-19.836 8.282 0 15.107 4.101 17.736 10.587v.094h1.657l-.683-10.299h-1.364v.096c-.096.097-.389.381-1.266.381-.78 0-1.753-.284-3.119-.669-2.726-.856-6.819-2.097-13.447-2.097-16.467 0-28.354 9.728-28.354 23.174zm127.259 34.236h-65.872v-91.069h65.872zm-17.346-56.549H190.3v1.526h1.85c5.262 0 6.138 1.717 6.138 5.435v29.18c0 4.101-1.073 5.532-7.211 5.532h-2.336v1.526h41.8l1.267-10.587h-1.657v.097c-1.949 5.817-3.506 7.724-8.964 7.724h-12.084c-2.823 0-4.092-.57-4.092-3.72v-14.588h13.156c3.116 0 4.582.475 5.162 5.339v.097h1.757v-13.354h-1.757v.097c-.389 3.72-1.556 5.054-4.382 5.054h-13.936v-16.782h16.372c2.727 0 4.676 1.144 5.652 7.058v.094h1.656l-.682-9.824zm87.796-9.82v66.369h-65.872v-91.069h40.245v24.7zm-41.12 9.152c-5.066 0-6.626.096-9.842.191l-3.412.19c-2.63.097-5.259.285-6.529.285h-.096v1.528h1.85c4.485 0 5.748 1.241 5.748 5.435v29.086c0 4.386-1.363 5.626-6.136 5.626h-1.462v1.526h22.411v-1.526h-1.949c-4.676 0-6.139-1.24-6.139-5.054v-11.54h.293c1.073.097 2.05.097 3.606.097l4.189-.097h1.073c2.143 1.241 4.969 3.435 7.991 6.104l5.163 4.577c6.919 6.105 10.621 8.774 24.265 8.202h.096v-1.432h-.096c-5.556-.285-10.232-2.476-15.397-6.961l-6.235-5.435c-3.412-2.955-5.849-4.958-8.772-7.059 6.335-1.713 10.231-6.004 10.231-11.25a9.9 9.9 0 0 0-3.019-7.248c-3.216-3.529-9.452-5.245-17.832-5.245m-1.754 1.813c10.231 0 15.004 3.529 15.004 11.062 0 3.338-.973 5.911-2.823 7.817-2.339 2.291-6.042 3.436-11.207 3.436h-1.073c-1.167 0-2.144 0-3.41-.097v-22.025c1.167-.19 2.143-.19 3.509-.19z" style="fill:#fff000;fill-rule:nonzero"/><path d="M293.88 102.778v21.458h21.925z" style="fill:#fff000;fill-rule:nonzero"/><path d="M126.834 250.397h-11.336v17.294q0 3.71-1.749 5.626t-4.418 1.917q-2.792 0-4.5-1.896-1.71-1.896-1.709-5.563v-47.09q0-4.083 1.876-5.834t5.958-1.75h15.878q7.042 0 10.834 1.083 3.75 1.043 6.48 3.459t4.147 5.918q1.416 3.5 1.416 7.875 0 9.336-5.75 14.148-5.751 4.813-17.127 4.813m-3.001-28.003h-8.335v18.669h8.335q4.376 0 7.314-.917t4.48-3q1.54-2.084 1.541-5.459 0-4.042-2.375-6.585-2.667-2.709-10.96-2.708M191.634 267.275l-2.917-7.668H163.88l-2.917 7.834q-1.708 4.585-2.917 6.189-1.21 1.604-3.959 1.604-2.334 0-4.125-1.708-1.792-1.709-1.792-3.876 0-1.25.416-2.583.417-1.335 1.376-3.709l15.626-39.673 1.605-4.104q.938-2.396 2.001-3.98 1.061-1.584 2.791-2.563 1.73-.978 4.272-.979 2.583 0 4.313.979 1.73.98 2.792 2.521a17.7 17.7 0 0 1 1.792 3.314q.729 1.77 1.854 4.729l15.961 39.422q1.875 4.5 1.875 6.543 0 2.125-1.771 3.896-1.772 1.771-4.272 1.771-1.458 0-2.5-.521a5.1 5.1 0 0 1-1.75-1.417q-.709-.895-1.521-2.75a158 158 0 0 1-1.396-3.271m-24.503-16.961h18.252l-9.21-25.212zM246.099 223.311h-13.502v44.38q0 3.835-1.708 5.688-1.708 1.855-4.417 1.855-2.75 0-4.48-1.875t-1.729-5.668v-44.38h-13.502q-3.167 0-4.709-1.397-1.542-1.395-1.542-3.687 0-2.377 1.605-3.751t4.646-1.375h39.338q3.209 0 4.772 1.417 1.563 1.416 1.562 3.709 0 2.292-1.583 3.687-1.583 1.397-4.751 1.397" style="fill:#fff;fill-rule:nonzero"/></svg>