<svg xmlns="http://www.w3.org/2000/svg" xml:space="preserve" style="fill-rule:evenodd;clip-rule:evenodd;stroke-linejoin:round;stroke-miterlimit:2" viewBox="0 0 86 86"><path d="M-.034 63.956V21.289C-.034 9.515 9.525-.044 21.3-.044h42.666C75.741-.044 85.3 9.515 85.3 21.289v42.667c0 11.774-9.559 21.333-21.334 21.333H21.3C9.525 85.289-.034 75.73-.034 63.956" style="fill:#c4ff9c"/><path d="M64 85.333C22.227 56.889 22.966 28.444 64 0c11.774 0 21.333 9.559 21.333 21.333V64c0 11.774-9.559 21.333-21.333 21.333" style="fill:#a7f175"/><path d="M40.932 57.607c-3.399 0-5.561-2.062-5.561-4.677 0-11.191 29.429-13.431 29.429-25.316 0-7.25-8.398-10.375-19.119-10.375-6.521 0-13.895 1.207-20.743 3.367v14.178c10.092-7.35 21.304-10.497 28.527-10.497 4.541 0 7.623 1.267 7.623 3.538 0 9.353-40.588 7.871-40.588 28.083 0 7.747 5.327 12.186 12.821 12.186 11.337 0 19.911-11.017 26.326-24.446l1.3.467c-3.379 8.206-10.37 17.205-11.732 22.989H63.81V37.179h-3.371c-4.892 10.632-12.062 20.429-19.507 20.429" style="fill-rule:nonzero"/></svg>