<svg xmlns="http://www.w3.org/2000/svg" xml:space="preserve" style="fill-rule:evenodd;clip-rule:evenodd;stroke-linejoin:round;stroke-miterlimit:2" viewBox="0 0 256 256"><path d="M0 192.001V63.999C0 28.677 28.677 0 64.001 0h127.998C227.323 0 256 28.677 256 63.999v128.002C256 227.323 227.323 256 191.999 256H64.001C28.677 256 0 227.323 0 192.001" style="fill:#c4ff9c"/><path d="M192.88 256c-123.598-85.332-121.411-170.668 0-256C227.717 0 256 28.677 256 63.999v128.002C256 227.323 227.717 256 192.88 256" style="fill:#a7f175"/><path d="M122.895 172.391c-10.098 0-16.522-6.126-16.522-13.896 0-33.251 87.439-39.906 87.439-75.219 0-21.541-24.951-30.827-56.806-30.827-19.375 0-41.285 3.586-61.632 10.004v42.126c29.986-21.838 63.298-31.189 84.76-31.189 13.492 0 22.65 3.765 22.65 10.512 0 27.79-120.596 23.387-120.596 83.441 0 23.018 15.827 36.208 38.094 36.208 33.684 0 59.159-32.735 78.22-72.635l3.862 1.388c-10.039 24.382-30.811 51.12-34.858 68.305h43.365v-88.914h-10.016c-14.535 31.59-35.839 60.699-57.96 60.699" style="fill-rule:nonzero"/></svg>