<svg xmlns="http://www.w3.org/2000/svg" xml:space="preserve" style="fill-rule:evenodd;clip-rule:evenodd;stroke-linejoin:round;stroke-miterlimit:2" viewBox="0 0 256 256"><path d="M256 64v128c0 35.322-28.678 64-64 64H64c-35.322 0-64-28.678-64-64V64C0 28.678 28.678 0 64 0h128c35.322 0 64 28.678 64 64" style="fill:#191763"/><path d="M207.781 186.681c-19.646-8.873-20.393-46.956-20.408-47.917v-25.549c0-24.59-15.026-45.734-36.378-54.737-.046-12.642-10.343-22.913-22.994-22.913s-22.948 10.271-22.995 22.912c-21.351 9.003-36.377 30.148-36.377 54.738v25.549c-.014.961-.762 39.043-20.409 47.916a5.22 5.22 0 0 0-3.067 4.751c0 2.859 2.353 5.213 5.213 5.213h49.806c1.021 5.617 3.677 10.842 7.739 15.075 5.395 5.621 12.53 8.717 20.089 8.717s14.694-3.096 20.089-8.718c4.062-4.232 6.718-9.458 7.739-15.074h49.806c2.859-.002 5.21-2.355 5.21-5.214a5.23 5.23 0 0 0-3.063-4.75m-25.88-18.244c2.065 6.262 4.99 12.55 9.137 17.783H64.962c4.147-5.232 7.071-11.52 9.136-17.783zM128 45.99c5.724 0 10.562 3.846 12.076 9.087A59.5 59.5 0 0 0 128 53.842c-4.136 0-8.175.426-12.075 1.235 1.514-5.241 6.353-9.087 12.075-9.087m-48.946 92.805v-25.582c0-26.989 21.957-48.946 48.946-48.946 26.99 0 48.946 21.957 48.946 48.946v25.624c.007.785.129 9.026 2.206 19.172H76.847c2.078-10.156 2.201-18.412 2.207-19.214M128 210.009c-7.957 0-14.901-5.737-17.13-13.365h34.26c-2.229 7.628-9.172 13.365-17.13 13.365M90.224 35.564c-22.429 0-40.676 18.247-40.676 40.676a5.213 5.213 0 0 0 10.426 0c0-16.68 13.57-30.25 30.251-30.25a5.213 5.213 0 1 0-.001-10.426m75.651 0c22.429 0 40.677 18.247 40.677 40.676a5.213 5.213 0 0 1-10.427 0c0-16.68-13.57-30.25-30.25-30.25a5.214 5.214 0 1 1 0-10.426" style="fill:#fff000;fill-rule:nonzero;stroke:#fff000;stroke-width:3.84px"/></svg>