<svg xmlns="http://www.w3.org/2000/svg" xml:space="preserve" style="fill-rule:evenodd;clip-rule:evenodd;stroke-linejoin:round;stroke-miterlimit:2" viewBox="0 0 356 356"><path d="M355.556 88.889v177.778c0 49.059-39.83 88.889-88.889 88.889H88.889C39.83 355.556 0 315.726 0 266.667V88.889C0 39.83 39.83 0 88.889 0h177.778c49.059 0 88.889 39.83 88.889 88.889" style="fill:#191763"/><path d="M88.749-.183c174.053 118.519 170.975 237.037 0 355.556-49.06 0-88.889-39.83-88.889-88.889V88.706C-.14 39.647 39.689-.183 88.749-.183" style="fill:#262292"/><path d="M283.38 261.799c-26.005-11.744-26.994-62.153-27.013-63.424v-33.818c0-32.548-19.889-60.536-48.152-72.454-.061-16.733-13.69-30.328-30.436-30.328s-30.375 13.596-30.437 30.328c-28.262 11.917-48.151 39.905-48.151 72.453v33.818c-.019 1.272-1.009 51.681-27.014 63.425a6.9 6.9 0 0 0 2.84 13.188h65.926c1.351 7.435 4.867 14.352 10.244 19.954 7.142 7.44 16.585 11.538 26.59 11.538 10.006 0 19.451-4.098 26.591-11.538 5.377-5.603 8.893-12.52 10.244-19.954h65.926a6.9 6.9 0 0 0 2.842-13.188Zm-34.256-24.148c2.734 8.287 6.605 16.611 12.094 23.536H94.339c5.488-6.925 9.359-15.248 12.092-23.536zM177.779 75.576c7.575 0 13.979 5.09 15.984 12.028a78.6 78.6 0 0 0-15.984-1.635 78.6 78.6 0 0 0-15.984 1.635c2.004-6.938 8.409-12.028 15.984-12.028Zm-64.787 122.841v-33.862c0-35.722 29.062-64.786 64.787-64.786 35.724 0 64.787 29.064 64.787 64.786v33.918c.009 1.038.171 11.947 2.92 25.376H110.069c2.752-13.442 2.914-24.37 2.923-25.432Zm64.787 94.263c-10.532 0-19.725-7.595-22.675-17.692h45.349c-2.951 10.097-12.141 17.692-22.674 17.692ZM123.553 49.076c-32.154 0-58.313 26.159-58.313 58.312a7.474 7.474 0 1 0 14.947 0c0-23.912 19.454-43.365 43.366-43.365a7.474 7.474 0 1 0 0-14.947ZM232.002 49.076c32.154 0 58.314 26.159 58.314 58.312a7.474 7.474 0 0 1-14.948 0c0-23.912-19.453-43.365-43.366-43.365a7.474 7.474 0 0 1 0-14.947Z" style="fill:#fff000;fill-rule:nonzero;stroke:#fff000;stroke-width:5.93px"/></svg>