<svg xmlns="http://www.w3.org/2000/svg" xml:space="preserve" style="fill-rule:evenodd;clip-rule:evenodd;stroke-linejoin:round;stroke-miterlimit:2" viewBox="0 0 256 256"><path d="M255.999 64v128c0 35.323-28.677 64-63.999 64H63.999c-35.322 0-64-28.677-64-64V64c0-35.322 28.678-64 64-64H192c35.322 0 63.999 28.678 63.999 64" style="fill:#191763"/><path d="M63.121 0c123.596 85.334 121.41 170.666 0 255.999C28.283 255.999 0 227.322 0 192V63.999c0-35.322 28.283-64 63.121-64" style="fill:#262292"/><path d="M203.905 193.82c-18.692-8.441-19.403-44.674-19.417-45.588v-24.307c0-23.395-14.296-43.513-34.61-52.079-.044-12.027-9.84-21.799-21.877-21.799s-21.833 9.772-21.878 21.799c-20.314 8.566-34.609 28.683-34.609 52.078v24.307c-.014.915-.726 37.148-19.417 45.589a4.97 4.97 0 0 0-2.918 4.52c0 2.72 2.238 4.959 4.959 4.959h47.386c.971 5.344 3.498 10.316 7.363 14.343 5.134 5.347 11.921 8.293 19.113 8.293s13.98-2.946 19.112-8.293c3.865-4.028 6.393-8.999 7.364-14.343h47.387c2.72 0 4.959-2.239 4.959-4.959a4.97 4.97 0 0 0-2.917-4.52Zm-24.623-17.357c1.965 5.956 4.748 11.94 8.693 16.917H68.026c3.945-4.977 6.727-10.96 8.692-16.917zM128.001 59.967c5.445 0 10.048 3.658 11.489 8.645a56.5 56.5 0 0 0-11.489-1.175c-3.86-.002-7.71.392-11.489 1.175 1.44-4.987 6.044-8.645 11.489-8.645Zm-46.568 88.295v-24.339c0-25.676 20.89-46.567 46.568-46.567s46.567 20.891 46.567 46.567v24.379c.007.747.123 8.588 2.099 18.24H79.332c1.979-9.662 2.095-17.516 2.101-18.28Zm46.568 67.755c-7.57 0-14.178-5.46-16.298-12.717h32.596c-2.122 7.257-8.727 12.717-16.298 12.717ZM89.024 40.919c-23.111 0-41.914 18.802-41.914 41.913v.062c0 2.947 2.425 5.373 5.372 5.373s5.372-2.426 5.372-5.373v-.062c0-17.187 13.983-31.17 31.17-31.17l.063.001c2.947 0 5.372-2.425 5.372-5.372s-2.425-5.373-5.372-5.373zm77.951 0c23.112 0 41.915 18.802 41.915 41.913 0 2.947-2.425 5.372-5.372 5.372s-5.372-2.425-5.372-5.372c0-17.187-13.983-31.17-31.171-31.17-2.923-.033-5.31-2.448-5.31-5.371s2.387-5.338 5.31-5.372Z" style="fill:#fff000;fill-rule:nonzero;stroke:#fff000;stroke-width:4.26px"/></svg>