<svg xmlns="http://www.w3.org/2000/svg" xml:space="preserve" style="fill-rule:evenodd;clip-rule:evenodd;stroke-linejoin:round;stroke-miterlimit:2" viewBox="0 0 356 356"><path d="M355.556 88.889v177.778c0 49.059-39.83 88.889-88.889 88.889H88.889C39.83 355.556 0 315.726 0 266.667V88.889C0 39.83 39.83 0 88.889 0h177.778c49.059 0 88.889 39.83 88.889 88.889" style="fill:url(#a)"/><path d="M88.749-.183c174.053 118.519 170.975 237.037 0 355.556-49.06 0-88.889-39.83-88.889-88.889V88.706C-.14 39.647 39.689-.183 88.749-.183" style="fill:#7779e0"/><path d="M318.952 194.454c-.487 0-.931.315-1.16.974-2.936 8.379-6.904 13.364-10.17 13.364-1.876 0-2.635-2.092-2.635-5.372 0-8.207 4.913-25.61 7.391-33.545.286-.96.472-1.819.472-2.55 0-2.306-1.26-3.438-4.383-3.438-3.366 0-6.99 1.318-10.513 7.492-1.218-5.443-4.899-7.821-10.041-7.821-5.944 0-11.688 3.824-16.415 10.026-4.727 6.203-10.284 8.236-14.467 7.234 3.008-7.363 4.126-12.863 4.126-16.945 0-6.403-3.166-10.27-8.279-10.27-7.778 0-12.261 7.42-12.261 15.226 0 6.03 2.735 12.232 8.751 15.24-5.042 11.402-12.404 21.715-15.197 21.715-3.609 0-4.669-17.661-4.469-30.295.129-7.247.731-7.62.731-9.811 0-1.261-.817-2.12-4.097-2.12-7.649 0-10.012 6.474-10.37 13.908a36.7 36.7 0 0 1-1.318 8.351c-3.194 11.401-9.783 20.053-14.08 20.053-1.991 0-2.535-1.991-2.535-4.598 0-8.208 4.598-18.463 4.598-27.215 0-6.431-2.822-10.499-8.136-10.499-6.26 0-14.539 7.448-22.374 21.399 2.579-10.685 3.639-21.027-3.996-21.027a10.35 10.35 0 0 0-4.741 1.232 2.7 2.7 0 0 0-1.547 2.607c.731 11.373-9.167 40.507-18.549 40.507-1.704 0-2.535-1.848-2.535-4.827 0-8.222 4.898-25.582 7.362-33.531.315-1.032.487-1.92.487-2.693 0-2.177-1.346-3.295-4.397-3.295-3.352 0-6.99 1.275-10.499 7.449-1.232-5.443-4.913-7.821-10.055-7.821-8.437 0-17.862 8.923-22.001 20.554-5.544 15.527-16.716 30.524-31.756 30.524-13.65 0-20.855-11.359-20.855-29.306 0-25.912 19.022-47.082 33.131-47.082 6.746 0 9.969 4.297 9.969 10.886 0 7.978-4.455 11.688-4.455 14.725 0 .931.774 1.847 2.306 1.847 6.131 0 13.35-7.204 13.35-17.03s-7.978-17.017-22.087-17.017c-23.319 0-46.781 23.462-46.781 53.527 0 23.921 11.803 38.345 32.214 38.345 13.922 0 26.083-10.829 32.643-23.462.745 10.47 5.5 15.942 12.748 15.942 6.446 0 11.659-3.839 15.641-10.585 1.533 7.061 5.601 10.513 10.886 10.513 6.059 0 11.13-3.839 15.957-10.972-.072 5.601 1.203 10.872 6.059 10.872 2.291 0 5.027-.53 5.514-2.535 5.114-21.142 17.747-38.402 21.614-38.402 1.146 0 1.461 1.103 1.461 2.407 0 5.743-4.053 17.517-4.053 25.037 0 8.122 3.452 13.493 10.585 13.493 7.907 0 15.942-9.683 21.299-23.835 1.676 13.221 5.3 23.892 10.972 23.892 6.961 0 19.322-14.653 26.814-30.165 2.936.372 7.348.272 11.587-2.722-1.804 4.57-2.864 9.568-2.864 14.567 0 14.396 6.875 18.435 12.791 18.435 6.431 0 11.645-3.839 15.641-10.585 1.318 6.087 4.684 10.499 10.871 10.499 9.683 0 18.091-9.898 18.091-18.019 0-2.149-.917-3.452-1.991-3.452m-200.974 13.579c-3.91 0-5.443-3.939-5.443-9.812 0-10.198 6.976-27.229 14.353-27.229 3.222 0 4.44 3.796 4.44 8.436 0 10.356-6.632 28.605-13.35 28.605m133.94-30.438c-2.335-2.779-3.18-6.56-3.18-9.926 0-4.154 1.518-7.663 3.337-7.663s2.378 1.79 2.378 4.282c0 4.169-1.489 10.256-2.535 13.307m30.323 30.438c-3.91 0-5.443-4.527-5.443-9.812 0-9.84 6.975-27.229 14.409-27.229 3.223 0 4.369 3.767 4.369 8.436 0 10.356-6.517 28.605-13.335 28.605" style="fill:#fff;fill-rule:nonzero"/><defs><linearGradient id="a" x1="0" x2="1" y1="0" y2="0" gradientTransform="translate(188.304 177.778)scale(167.251)" gradientUnits="userSpaceOnUse"><stop offset="0" style="stop-color:#6949dd;stop-opacity:1"/><stop offset="1" style="stop-color:#31b9ce;stop-opacity:1"/></linearGradient></defs></svg>