<svg xmlns="http://www.w3.org/2000/svg" xml:space="preserve" style="fill-rule:evenodd;clip-rule:evenodd;stroke-linejoin:round;stroke-miterlimit:2" viewBox="0 0 256 256"><path d="M255.999 64v128c0 35.323-28.677 64-63.999 64H63.999c-35.322 0-64-28.677-64-64V64c0-35.322 28.678-64 64-64H192c35.322 0 63.999 28.678 63.999 64" style="fill:url(#a)"/><path d="M63.121 0c123.596 85.334 121.41 170.666 0 255.999C28.283 255.999 0 227.322 0 192V63.999c0-35.322 28.283-64 63.121-64" style="fill:#7779e0"/><path d="M229.523 140.118c-.35 0-.669.226-.833.7-2.111 6.022-4.963 9.606-7.31 9.606-1.349 0-1.894-1.504-1.894-3.862 0-5.899 3.531-18.408 5.312-24.111.206-.69.339-1.307.339-1.833 0-1.657-.905-2.471-3.15-2.471-2.419 0-5.024.947-7.556 5.385-.876-3.912-3.522-5.622-7.218-5.622-4.272 0-8.401 2.749-11.798 7.207s-7.392 5.92-10.399 5.2c2.162-5.293 2.966-9.246 2.966-12.18 0-4.603-2.276-7.382-5.951-7.382-5.591 0-8.813 5.333-8.813 10.944 0 4.334 1.966 8.792 6.29 10.954-3.624 8.196-8.916 15.609-10.923 15.609-2.594 0-3.356-12.695-3.213-21.776.093-5.209.526-5.477.526-7.052 0-.906-.587-1.524-2.945-1.524-5.498 0-7.196 4.654-7.454 9.997a26.4 26.4 0 0 1-.947 6.003c-2.296 8.194-7.032 14.413-10.12 14.413-1.431 0-1.822-1.431-1.822-3.305 0-5.899 3.305-13.27 3.305-19.561 0-4.623-2.029-7.547-5.848-7.547-4.5 0-10.451 5.354-16.082 15.382 1.853-7.681 2.615-15.114-2.873-15.114a7.44 7.44 0 0 0-3.407.885 1.945 1.945 0 0 0-1.112 1.874c.525 8.175-6.589 29.116-13.333 29.116-1.225 0-1.822-1.329-1.822-3.47 0-5.91 3.521-18.388 5.292-24.101.226-.742.35-1.38.35-1.936 0-1.565-.968-2.368-3.161-2.368-2.409 0-5.024.916-7.546 5.354-.886-3.912-3.532-5.622-7.228-5.622-6.064 0-12.838 6.414-15.814 14.774-3.984 11.161-12.015 21.94-22.825 21.94-9.811 0-14.99-8.164-14.99-21.064 0-18.625 13.672-33.842 23.814-33.842 4.849 0 7.165 3.089 7.165 7.825 0 5.734-3.202 8.401-3.202 10.584 0 .669.556 1.327 1.658 1.327 4.406 0 9.595-5.178 9.595-12.24s-5.734-12.232-15.875-12.232c-16.762 0-33.626 16.864-33.626 38.474 0 17.194 8.484 27.562 23.155 27.562 10.007 0 18.748-7.784 23.463-16.864.536 7.525 3.954 11.458 9.163 11.458 4.634 0 8.38-2.759 11.243-7.608 1.102 5.076 4.026 7.557 7.824 7.557 4.355 0 8-2.76 11.47-7.887-.052 4.026.864 7.815 4.355 7.815 1.647 0 3.613-.381 3.963-1.822 3.676-15.197 12.756-27.603 15.536-27.603.824 0 1.05.793 1.05 1.73 0 4.128-2.913 12.591-2.913 17.996 0 5.838 2.481 9.699 7.608 9.699 5.683 0 11.459-6.96 15.309-17.132 1.205 9.503 3.81 17.173 7.887 17.173 5.003 0 13.888-10.532 19.273-21.682 2.11.267 5.282.195 8.329-1.957-1.297 3.285-2.059 6.878-2.059 10.471 0 10.347 4.942 13.25 9.194 13.25 4.622 0 8.37-2.759 11.242-7.608.948 4.376 3.367 7.547 7.814 7.547 6.96 0 13.004-7.115 13.004-12.952 0-1.545-.66-2.481-1.432-2.481m-144.455 9.76c-2.811 0-3.912-2.831-3.912-7.053 0-7.33 5.014-19.571 10.316-19.571 2.316 0 3.192 2.728 3.192 6.063 0 7.444-4.768 20.561-9.596 20.561M181.341 128c-1.678-1.998-2.286-4.715-2.286-7.135 0-2.985 1.091-5.508 2.399-5.508 1.307 0 1.709 1.287 1.709 3.078 0 2.997-1.07 7.372-1.822 9.565m21.795 21.878c-2.81 0-3.912-3.254-3.912-7.053 0-7.072 5.014-19.571 10.357-19.571 2.317 0 3.14 2.707 3.14 6.063 0 7.444-4.684 20.561-9.585 20.561" style="fill:#fff;fill-rule:nonzero"/><defs><linearGradient id="a" x1="0" x2="1" y1="0" y2="0" gradientTransform="translate(135.579 128)scale(120.421)" gradientUnits="userSpaceOnUse"><stop offset="0" style="stop-color:#6949dd;stop-opacity:1"/><stop offset="1" style="stop-color:#31b9ce;stop-opacity:1"/></linearGradient></defs></svg>