<svg xmlns="http://www.w3.org/2000/svg" xml:space="preserve" style="fill-rule:evenodd;clip-rule:evenodd;stroke-linejoin:round;stroke-miterlimit:2" viewBox="0 0 256 256"><path d="M255.999 64v128c0 35.323-28.677 64-63.999 64H63.999c-35.322 0-64-28.677-64-64V64c0-35.322 28.678-64 64-64H192c35.322 0 63.999 28.678 63.999 64" style="fill:#191763"/><path d="M63.121 0c123.596 85.334 121.41 170.666 0 255.999C28.283 255.999 0 227.322 0 192V63.999c0-35.322 28.283-64 63.121-64" style="fill:#262292"/><path d="M98.42 92.39c0 4.706-3.82 8.527-8.526 8.527-4.707 0-8.528-3.821-8.528-8.527V60.636a8.527 8.527 0 0 1 8.528-8.526h76.319a8.526 8.526 0 0 1 8.526 8.526V92.39c0 4.706-3.82 8.527-8.526 8.527s-8.527-3.821-8.527-8.527V76.349c0-3.942-3.243-7.186-7.185-7.186h-44.915c-3.931 0-7.166 3.235-7.166 7.166z" style="fill:#fff;stroke:#7779e0;stroke-width:5.67px"/><path d="M211.235 122.277v59.772c0 16.495-13.391 29.887-29.886 29.887H74.758c-16.494 0-29.886-13.392-29.886-29.887v-59.772c0-16.495 13.392-29.887 29.886-29.887h106.591c16.495 0 29.886 13.392 29.886 29.887" style="fill:#fff000;stroke:#7779e0;stroke-width:4.74px;stroke-linecap:round;stroke-miterlimit:1.5"/><path d="M215.368 105.492v12.847c0 7.23-5.871 13.101-13.101 13.101l-74.355 20.723-74.18-20.723c-7.231 0-13.101-5.871-13.101-13.101v-12.847c0-7.231 10.111-13.102 17.342-13.102h137.63c7.231 0 19.765 5.871 19.765 13.102" style="fill:#fff;stroke:#7779e0;stroke-width:5.61px;stroke-linecap:round;stroke-miterlimit:1.5"/><path d="M137.163 144.795v14.737c-.002 2.512-2.069 4.579-4.581 4.581h-9.164c-2.513-.001-4.58-2.069-4.581-4.581v-14.737c.002-2.512 2.068-4.579 4.581-4.582h9.164c2.512.002 4.579 2.07 4.581 4.582" style="fill:#fff;stroke:#7779e0;stroke-width:5.61px;stroke-linecap:round;stroke-miterlimit:1.5"/><path d="M92.786 199.117q-2.936 0-5.13-1.59-2.191-1.588-3.057-4.386l4.284-1.761q.448 1.657 1.45 2.487t2.453.828q1.624 0 2.521-1.036.898-1.036.899-2.901v-16.924h4.662v16.889q0 2.073-.639 3.644-.64 1.572-1.727 2.625a7.2 7.2 0 0 1-2.556 1.589 9.2 9.2 0 0 1-3.16.536m24.005 0q-2.763 0-5.13-1.002-2.365-1.002-4.092-2.746a12.7 12.7 0 0 1-2.711-4.11q-.985-2.367-.985-5.06 0-2.694.985-5.06a12.7 12.7 0 0 1 2.711-4.111q1.727-1.744 4.092-2.746 2.367-1.002 5.13-1.002t5.129 1.002 4.093 2.746a12.7 12.7 0 0 1 2.712 4.111q.984 2.366.984 5.06t-.984 5.06a12.7 12.7 0 0 1-2.712 4.11q-1.727 1.744-4.093 2.746t-5.129 1.002m0-4.422a8.4 8.4 0 0 0 3.229-.621 8.1 8.1 0 0 0 2.625-1.727q1.123-1.105 1.762-2.677t.639-3.471q0-1.9-.639-3.472-.639-1.571-1.762-2.677a8.1 8.1 0 0 0-2.625-1.727 8.4 8.4 0 0 0-3.229-.621 8.4 8.4 0 0 0-3.23.621c-.979.4-1.871.986-2.625 1.727q-1.12 1.106-1.761 2.677-.639 1.572-.639 3.472t.639 3.471 1.761 2.677a8.1 8.1 0 0 0 2.625 1.727 8.4 8.4 0 0 0 3.23.621m16.683-20.861h9.671q1.588 0 2.97.5a7.6 7.6 0 0 1 2.401 1.382 6.6 6.6 0 0 1 1.607 2.055c.391.783.591 1.646.586 2.521q0 1.97-.949 3.299a6.2 6.2 0 0 1-2.367 2.021v.276q1.9.691 3.057 2.158 1.158 1.469 1.158 3.645 0 1.589-.639 2.848a6.6 6.6 0 0 1-1.745 2.16 8 8 0 0 1-2.573 1.381q-1.468.484-3.16.484h-10.017zm9.326 10.085q1.623 0 2.504-.881.88-.88.88-2.09 0-1.208-.863-2.072-.864-.863-2.383-.863h-4.801v5.906zm.518 10.362q1.761 0 2.694-.881.933-.88.933-2.263 0-1.381-.95-2.296-.95-.916-2.815-.916h-5.043v6.356zm19.446 4.836q-1.589 0-3.039-.45a8.7 8.7 0 0 1-2.66-1.347 9.3 9.3 0 0 1-2.107-2.193q-.899-1.296-1.416-3.022l4.386-1.727q.484 1.865 1.693 3.091t3.177 1.226q.726 0 1.4-.189a4.2 4.2 0 0 0 1.208-.553c.351-.234.641-.548.847-.916q.31-.552.31-1.278 0-.69-.242-1.243-.242-.552-.812-1.036t-1.485-.932q-.914-.45-2.262-.933l-1.52-.553a11.7 11.7 0 0 1-2.02-.932 9 9 0 0 1-1.848-1.416 7 7 0 0 1-1.365-1.952q-.535-1.123-.535-2.539a6.5 6.5 0 0 1 2.194-4.922q1.053-.95 2.521-1.485t3.263-.536q1.866 0 3.23.502 1.365.501 2.314 1.277a7.2 7.2 0 0 1 1.538 1.71q.587.933.863 1.762l-4.111 1.726q-.345-1.035-1.26-1.864t-2.504-.83q-1.52 0-2.521.708-1.002.71-1.001 1.848-.002 1.107.966 1.883.968.777 3.075 1.503l1.553.518c.935.322 1.842.72 2.712 1.191a8.5 8.5 0 0 1 2.107 1.606 6.5 6.5 0 0 1 1.346 2.125q.468 1.19.467 2.746 0 1.934-.777 3.332a7.1 7.1 0 0 1-1.986 2.297 8.6 8.6 0 0 1-2.729 1.347q-1.52.45-2.97.45" style="fill:#7779e0;fill-rule:nonzero"/></svg>