<svg xmlns="http://www.w3.org/2000/svg" xml:space="preserve" style="fill-rule:evenodd;clip-rule:evenodd;stroke-linejoin:round;stroke-miterlimit:2" viewBox="0 0 256 256"><path d="M255.999 64v128c0 35.323-28.677 64-63.999 64H63.999c-35.322 0-64-28.677-64-64V64c0-35.322 28.678-64 64-64H192c35.322 0 63.999 28.678 63.999 64" style="fill:#191763"/><path d="M63.121 0c123.596 85.334 121.41 170.666 0 255.999C28.283 255.999 0 227.322 0 192V63.999c0-35.322 28.283-64 63.121-64" style="fill:#262292"/><path d="M36.217 27.393h19.999v19.999H36.217zm33.077 0h19.999v19.999H69.294zm66.153 0h20v19.999h-20zm33.078 0h19.999v19.999h-19.999zm33.076 0h20v19.999h-20zm-99.23 0h19.999v19.999h-19.999zM36.217 57.595h19.999v19.999H36.217z" style="fill:#00b1ff"/><path d="M69.294 57.595h19.999v19.999H69.294zm66.153 0h20v19.999h-20zm33.078 0h19.999v19.999h-19.999z" style="fill:#fff000"/><path d="M201.602 57.595h19.999v19.999h-19.999z" style="fill:#00b1ff"/><path d="M102.371 57.595h19.999v19.999h-19.999z" style="fill:#fff000"/><path d="M36.217 87.798h19.999v19.999H36.217z" style="fill:#00b1ff"/><path d="M69.294 87.798h19.999v19.999H69.294z" style="fill:#fff000"/><path d="M135.447 87.798h19.999v19.999h-19.999z" style="fill:#00b1ff"/><path d="M168.525 87.798h19.999v19.999h-19.999z" style="fill:#fff000"/><path d="M201.602 87.798h19.999v19.999h-19.999zm-99.231 0h19.999v19.999h-19.999z" style="fill:#00b1ff"/><path d="M36.217 148.203h19.999v19.999H36.217zm33.077 0h19.999v19.999H69.294zm66.153 0h20v19.999h-20zm33.078 0h19.999v19.999h-19.999zm33.076 0h20v19.999h-20zm-99.23 0h19.999v19.999h-19.999zm-66.154 30.203h19.999v19.999H36.217zm33.077 0h19.999v19.999H69.294zm66.153 0h20v19.999h-20zm33.078 0h19.999v19.999h-19.999zm33.076 0h20v19.999h-20zm-99.23 0h19.999v19.999h-19.999zm-66.154 30.202h19.999v19.999H36.217zm33.077 0h19.999v19.999H69.294zm66.153 0h20v19.999h-20zm33.078 0h19.999v19.999h-19.999zm33.076 0h20v19.999h-20zm-99.23 0h19.999v19.999h-19.999z" style="fill:#fff000"/><path d="M29.989 117.297h21.147v21.147H29.989z" style="fill:#3d55a5"/><path d="M64.964 117.297h21.147v21.147H64.964z" style="fill:#bdb200"/><path d="M134.914 117.297h21.147v21.147h-21.147z" style="fill:#3d55a5"/><path d="M169.888 117.297h21.147v21.147h-21.147z" style="fill:#bdb200"/><path d="M204.864 117.297h21.147v21.147h-21.147zm-104.924 0h21.147v21.147H99.94z" style="fill:#3d55a5"/><path d="M48.776 133.872q-1.317 1.59-3.106 2.423-1.79.833-4.001.833-1.989 0-3.691-.721a9.2 9.2 0 0 1-2.945-1.964 9.2 9.2 0 0 1-1.963-2.945q-.721-1.703-.721-3.665-.002-1.964.721-3.666a9.2 9.2 0 0 1 1.963-2.945 9.2 9.2 0 0 1 2.945-1.964q1.702-.72 3.691-.721 2.138 0 3.765.746 1.627.745 2.895 2.163l-2.361 2.286a6.3 6.3 0 0 0-1.826-1.466q-1.032-.549-2.449-.547a6.3 6.3 0 0 0-2.336.434 5.7 5.7 0 0 0-1.901 1.231 5.8 5.8 0 0 0-1.28 1.926q-.472 1.13-.472 2.523 0 1.392.472 2.522a5.8 5.8 0 0 0 1.28 1.926 5.6 5.6 0 0 0 1.901 1.23 6.3 6.3 0 0 0 2.336.436q1.491 0 2.648-.61 1.155-.608 2.05-1.727zm24.848-14.769h3.827l6.686 17.794h-3.704l-1.466-4.25h-6.859l-1.466 4.25h-3.704zm4.25 10.463-1.591-4.449-.646-2.163h-.199l-.646 2.163-1.591 4.449zm25.953-10.63h6.487q1.341 0 2.435.422a5.6 5.6 0 0 1 1.877 1.168c.523.5.934 1.106 1.205 1.777q.422 1.03.422 2.249 0 .894-.298 1.678a5 5 0 0 1-.82 1.416 6 6 0 0 1-1.218 1.119 6.2 6.2 0 0 1-1.466.757l-.025.174 4.771 6.835v.199h-3.851l-4.598-6.686h-1.566v6.686h-3.355zm6.462 8.027q1.143 0 1.876-.697.732-.695.733-1.764 0-.472-.161-.92a2.32 2.32 0 0 0-1.293-1.354 2.7 2.7 0 0 0-1.106-.211h-3.156v4.946zm32.912-4.847v4.126h7.133v3.181h-7.133v4.126h7.928v3.181h-11.283v-17.794h11.283v3.18zm34.975.037v4.126h7.133v3.182h-7.133v4.125h7.928v3.181H174.82v-17.794h11.284v3.18zm30.576-3.18h6.487q1.341 0 2.435.422a5.6 5.6 0 0 1 1.876 1.168c.523.5.934 1.106 1.205 1.777q.424 1.032.424 2.249 0 .895-.299 1.678a5 5 0 0 1-.82 1.417 6 6 0 0 1-1.218 1.118 6.2 6.2 0 0 1-1.466.758l-.025.174 4.771 6.835v.198h-3.851l-4.598-6.685h-1.566v6.685h-3.355zm6.462 8.027q1.143 0 1.876-.696t.733-1.764q0-.472-.162-.92a2.3 2.3 0 0 0-1.292-1.354 2.7 2.7 0 0 0-1.106-.212h-3.156V127z" style="fill:#fff;fill-rule:nonzero"/></svg>