<svg xmlns="http://www.w3.org/2000/svg" xml:space="preserve" style="fill-rule:evenodd;clip-rule:evenodd;stroke-linejoin:round;stroke-miterlimit:2" viewBox="0 0 356 356"><path d="M355.556 88.889v177.778c0 49.059-39.83 88.889-88.889 88.889H88.889C39.83 355.556 0 315.726 0 266.667V88.889C0 39.83 39.83 0 88.889 0h177.778c49.059 0 88.889 39.83 88.889 88.889" style="fill:#191763"/><path d="M88.749-.183c174.053 118.519 170.975 237.037 0 355.556-49.06 0-88.889-39.83-88.889-88.889V88.706C-.14 39.647 39.689-.183 88.749-.183" style="fill:#262292"/><path d="M50.085 37.808h27.824v27.824H50.085zM96.103 37.808h27.824v27.824H96.103zM188.139 37.808h27.824v27.824h-27.824zM234.158 37.808h27.824v27.824h-27.824zM280.176 37.808H308v27.824h-27.824zM142.121 37.808h27.824v27.824h-27.824zM50.085 79.827h27.824v27.824H50.085z" style="fill:#00b1ff"/><path d="M96.103 79.827h27.824v27.824H96.103zM188.139 79.827h27.824v27.824h-27.824zM234.158 79.827h27.824v27.824h-27.824z" style="fill:#fff000"/><path d="M280.176 79.827H308v27.824h-27.824z" style="fill:#00b1ff"/><path d="M142.121 79.827h27.824v27.824h-27.824z" style="fill:#fff000"/><path d="M50.085 121.847h27.824v27.824H50.085z" style="fill:#00b1ff"/><path d="M96.103 121.847h27.824v27.824H96.103z" style="fill:#fff000"/><path d="M188.139 121.847h27.824v27.824h-27.824z" style="fill:#00b1ff"/><path d="M234.158 121.847h27.824v27.824h-27.824z" style="fill:#fff000"/><path d="M280.176 121.847H308v27.824h-27.824zM142.121 121.847h27.824v27.824h-27.824z" style="fill:#00b1ff"/><path d="M50.085 205.885h27.824v27.824H50.085zM96.103 205.885h27.824v27.824H96.103zM188.139 205.885h27.824v27.824h-27.824zM234.158 205.885h27.824v27.824h-27.824zM280.176 205.885H308v27.824h-27.824zM142.121 205.885h27.824v27.824h-27.824zM50.085 247.905h27.824v27.824H50.085zM96.103 247.905h27.824v27.824H96.103zM188.139 247.905h27.824v27.824h-27.824zM234.158 247.905h27.824v27.824h-27.824zM280.176 247.905H308v27.824h-27.824zM142.121 247.905h27.824v27.824h-27.824zM50.085 289.924h27.824v27.824H50.085zM96.103 289.924h27.824v27.824H96.103zM188.139 289.924h27.824v27.824h-27.824zM234.158 289.924h27.824v27.824h-27.824zM280.176 289.924H308v27.824h-27.824zM142.121 289.924h27.824v27.824h-27.824z" style="fill:#fff000"/><path d="M41.42 162.887h29.421v29.421H41.42z" style="fill:#3d55a5"/><path d="M90.079 162.887H119.5v29.421H90.079z" style="fill:#bdb200"/><path d="M187.397 162.887h29.421v29.421h-29.421z" style="fill:#3d55a5"/><path d="M236.055 162.887h29.421v29.421h-29.421z" style="fill:#bdb200"/><path d="M284.714 162.887h29.421v29.421h-29.421zM138.738 162.887h29.421v29.421h-29.421z" style="fill:#3d55a5"/><path d="M67.558 185.947q-1.832 2.213-4.321 3.371-2.49 1.159-5.567 1.159-2.766 0-5.135-1.003t-4.097-2.732q-1.729-1.728-2.732-4.097-1.002-2.369-1.003-5.1t1.003-5.1 2.732-4.097q1.728-1.73 4.097-2.732t5.135-1.003q2.973 0 5.238 1.038 2.264 1.037 4.028 3.008l-3.285 3.181a8.8 8.8 0 0 0-2.541-2.04q-1.434-.762-3.406-.761a8.7 8.7 0 0 0-3.25.605 7.9 7.9 0 0 0-2.645 1.712q-1.125 1.106-1.781 2.679-.657 1.573-.657 3.51t.657 3.51 1.781 2.679a7.8 7.8 0 0 0 2.645 1.711 8.7 8.7 0 0 0 3.25.606q2.074 0 3.683-.848 1.607-.846 2.852-2.402zM102.127 165.4h5.325l9.301 24.756h-5.152l-2.04-5.913h-9.543l-2.04 5.913h-5.152zm5.913 14.556-2.213-6.189-.899-3.009h-.277l-.899 3.009-2.213 6.189zM144.147 165.167h9.025q1.867 0 3.388.588 1.52.587 2.611 1.624a7.1 7.1 0 0 1 1.677 2.473q.587 1.434.587 3.129 0 1.244-.414 2.334a7 7 0 0 1-1.142 1.97 8.4 8.4 0 0 1-1.694 1.557q-.967.673-2.04 1.054l-.034.242 6.638 9.508v.277h-5.359l-6.397-9.301h-2.178v9.301h-4.668zm8.99 11.168q1.59 0 2.61-.969 1.02-.967 1.02-2.455 0-.656-.224-1.279a3.2 3.2 0 0 0-.674-1.106 3.3 3.3 0 0 0-1.124-.778q-.674-.294-1.539-.294h-4.391v6.881zM198.926 169.592v5.74h9.924v4.426h-9.924v5.74h11.03v4.425h-15.697v-24.756h15.697v4.425zM247.585 169.644v5.74h9.924v4.426h-9.924v5.74h11.03v4.425h-15.698v-24.756h15.698v4.425zM290.124 165.219h9.025q1.867 0 3.388.588 1.522.587 2.61 1.624a7.1 7.1 0 0 1 1.677 2.473q.589 1.435.589 3.129 0 1.245-.416 2.334a7 7 0 0 1-1.141 1.971 8.4 8.4 0 0 1-1.694 1.556q-.968.673-2.04 1.055l-.034.241 6.638 9.509v.276h-5.359l-6.397-9.301h-2.178v9.301h-4.668zm8.99 11.168q1.59 0 2.61-.968 1.02-.969 1.02-2.455 0-.657-.225-1.279a3.2 3.2 0 0 0-.673-1.107 3.3 3.3 0 0 0-1.124-.778q-.673-.294-1.539-.294h-4.391v6.881z" style="fill:#fff;fill-rule:nonzero"/></svg>