<svg xmlns="http://www.w3.org/2000/svg" xml:space="preserve" style="fill-rule:evenodd;clip-rule:evenodd;stroke-linejoin:round;stroke-miterlimit:2" viewBox="0 0 356 356"><path d="M355.556 88.889v177.778c0 49.059-39.83 88.889-88.889 88.889H88.889C39.83 355.556 0 315.726 0 266.667V88.889C0 39.83 39.83 0 88.889 0h177.778c49.059 0 88.889 39.83 88.889 88.889" style="fill:#191763"/><path d="M88.749-.183c174.053 118.519 170.975 237.037 0 355.556-49.06 0-88.889-39.83-88.889-88.889V88.706C-.14 39.647 39.689-.183 88.749-.183" style="fill:#262292"/><path d="M136.625 122.548c0 6.547-5.315 11.862-11.862 11.862-6.548 0-11.864-5.315-11.864-11.862V78.37c0-6.551 5.311-11.862 11.864-11.862h106.179c6.551 0 11.862 5.311 11.862 11.862v44.178c0 6.547-5.315 11.862-11.862 11.862-6.548 0-11.863-5.315-11.863-11.862v-22.315a9.997 9.997 0 0 0-10-10h-62.482a9.97 9.97 0 0 0-9.972 9.971z" style="fill:#fff;stroke:#7779e0;stroke-width:7.89px"/><path d="M293.578 164.127v83.159c0 22.948-18.631 41.579-41.579 41.579H103.705c-22.948 0-41.579-18.631-41.579-41.579v-83.159c0-22.948 18.631-41.579 41.579-41.579h148.294c22.948 0 41.579 18.631 41.579 41.579" style="fill:#fff000;stroke:#7779e0;stroke-width:6.6px;stroke-linecap:round;stroke-miterlimit:1.5"/><path d="M299.33 140.775v17.874c0 10.059-8.168 18.227-18.227 18.227l-103.446 28.83-103.204-28.83c-10.06 0-18.227-8.168-18.227-18.227v-17.874c0-10.06 14.067-18.227 24.127-18.227h191.478c10.06 0 27.499 8.167 27.499 18.227" style="fill:#fff;stroke:#7779e0;stroke-width:7.81px;stroke-linecap:round;stroke-miterlimit:1.5"/><path d="M190.526 195.456v20.502a6.38 6.38 0 0 1-6.374 6.374h-12.749a6.377 6.377 0 0 1-6.373-6.374v-20.502a6.38 6.38 0 0 1 6.373-6.375h12.749a6.38 6.38 0 0 1 6.374 6.375" style="fill:#fff;stroke:#7779e0;stroke-width:7.81px;stroke-linecap:round;stroke-miterlimit:1.5"/><path d="M128.786 271.03q-4.084 0-7.136-2.211-3.05-2.21-4.253-6.102l5.959-2.451q.624 2.306 2.018 3.46t3.412 1.153q2.259 0 3.508-1.442t1.25-4.036v-23.546h6.487v23.498q0 2.883-.889 5.069-.89 2.187-2.403 3.652a10 10 0 0 1-3.556 2.211q-2.042.745-4.397.745M162.183 271.03q-3.843 0-7.136-1.394-3.291-1.393-5.694-3.82t-3.772-5.718q-1.37-3.293-1.37-7.04 0-3.748 1.37-7.04t3.772-5.719q2.403-2.426 5.694-3.82 3.293-1.394 7.136-1.394 3.846 0 7.136 1.394 3.292 1.394 5.695 3.82 2.403 2.428 3.772 5.719 1.37 3.292 1.37 7.04 0 3.747-1.37 7.04-1.37 3.291-3.772 5.718-2.403 2.427-5.695 3.82-3.29 1.394-7.136 1.394m0-6.151q2.403 0 4.493-.865a11.3 11.3 0 0 0 3.652-2.403q1.562-1.537 2.451-3.723.89-2.188.889-4.83 0-2.643-.889-4.83-.889-2.186-2.451-3.724a11.3 11.3 0 0 0-3.652-2.403q-2.09-.864-4.493-.864-2.402 0-4.493.864a11.3 11.3 0 0 0-3.652 2.403q-1.56 1.538-2.451 3.724-.888 2.187-.888 4.83 0 2.642.888 4.83.89 2.185 2.451 3.723a11.3 11.3 0 0 0 3.652 2.403q2.091.865 4.493.865M185.394 235.855h13.455q2.21 0 4.132.696 1.922.697 3.34 1.923a9.2 9.2 0 0 1 2.235 2.859 7.74 7.74 0 0 1 .816 3.507q0 2.74-1.321 4.59t-3.292 2.811v.384q2.643.962 4.253 3.003 1.61 2.043 1.61 5.071 0 2.21-.889 3.963a9.2 9.2 0 0 1-2.427 3.004q-1.538 1.25-3.58 1.922-2.042.673-4.397.673h-13.935zm12.974 14.031q2.259 0 3.484-1.225t1.225-2.908q0-1.68-1.201-2.883-1.202-1.201-3.316-1.201h-6.679v8.217zm.721 14.416q2.45 0 3.748-1.225t1.298-3.148-1.322-3.195q-1.322-1.274-3.916-1.274h-7.016v8.842zM226.143 271.03q-2.21 0-4.228-.625a12.2 12.2 0 0 1-3.701-1.874 13 13 0 0 1-2.931-3.051q-1.25-1.803-1.97-4.205l6.102-2.403q.674 2.595 2.355 4.301 1.683 1.706 4.421 1.706 1.01 0 1.947-.264a5.8 5.8 0 0 0 1.681-.769 3.7 3.7 0 0 0 1.178-1.274q.432-.768.432-1.778 0-.961-.337-1.729-.336-.769-1.129-1.442t-2.066-1.297q-1.273-.626-3.148-1.298l-2.114-.769a16.3 16.3 0 0 1-2.811-1.297 12.4 12.4 0 0 1-2.571-1.97 9.7 9.7 0 0 1-1.898-2.716q-.745-1.561-.745-3.532 0-2.017.793-3.772a9.2 9.2 0 0 1 2.259-3.075q1.465-1.322 3.507-2.066 2.043-.746 4.541-.746 2.595 0 4.493.698 1.899.697 3.22 1.777 1.321 1.082 2.139 2.379.816 1.298 1.201 2.451l-5.719 2.402q-.48-1.441-1.754-2.594-1.272-1.155-3.483-1.154-2.115 0-3.508.985-1.394.986-1.393 2.571-.001 1.539 1.345 2.619 1.346 1.082 4.277 2.091l2.162.721a25 25 0 0 1 3.772 1.657q1.705.938 2.932 2.235a9.1 9.1 0 0 1 1.873 2.955q.65 1.658.649 3.821 0 2.69-1.081 4.636t-2.763 3.196a12 12 0 0 1-3.796 1.874q-2.114.625-4.133.625" style="fill:#7779e0;fill-rule:nonzero"/></svg>