<svg xmlns="http://www.w3.org/2000/svg" xml:space="preserve" style="fill-rule:evenodd;clip-rule:evenodd;stroke-linejoin:round;stroke-miterlimit:2" viewBox="0 0 256 256"><path d="M256 64v128c0 35.322-28.678 64-64 64H64c-35.322 0-64-28.678-64-64V64C0 28.678 28.678 0 64 0h128c35.322 0 64 28.678 64 64" style="fill:#191763"/><path d="M63.121 0c123.596 85.334 121.41 170.666 0 256C28.283 256 0 227.322 0 192V64C0 28.678 28.283 0 63.121 0" style="fill:#262292"/><path d="M183.719 75.367v55.718c0 15.376-12.483 27.86-27.86 27.86h-55.718c-15.377 0-27.859-12.484-27.859-27.86V75.367c0-15.377 12.482-27.86 27.859-27.86h55.718c15.377 0 27.86 12.483 27.86 27.86" style="fill:#f0931c"/><path d="m144.238 103.226-32.476 22.323V80.903z" style="fill:#fff"/><path d="m62.067 200.997 1.749 1.748a16.43 16.43 0 0 1-12.565 5.622c-9.802 0-16.789-7.759-16.789-17.557s6.992-17.563 16.789-17.563a16.15 16.15 0 0 1 12.08 5.193l-1.798 1.648a13.67 13.67 0 0 0-10.282-4.365c-8.444 0-14.177 6.742-14.177 15.087s5.733 15.086 14.177 15.086a14.04 14.04 0 0 0 10.816-4.899m6.093-27.75h2.272v35.066H68.07zm8.639 5.293c1.014 0 1.848.834 1.848 1.848a1.864 1.864 0 0 1-1.848 1.847 1.863 1.863 0 0 1-1.847-1.847c0-1.014.834-1.848 1.847-1.848" style="fill:#fff;fill-rule:nonzero"/><path d="M75.596 186.065h2.402v22.252h-2.402z" style="fill:#fff"/><path d="m99.566 202.62 1.663 1.573a10.9 10.9 0 0 1-8.644 4.3c-6.287 0-10.867-4.995-10.867-11.097s4.58-11.096 10.867-11.096a10.92 10.92 0 0 1 8.414 3.995l-1.713 1.528a8.57 8.57 0 0 0-6.701-3.146c-5.039 0-8.37 4.07-8.37 8.739s3.331 8.74 8.37 8.74a8.7 8.7 0 0 0 6.981-3.536m7.486-4.659v10.357h-2.363v-35.066h2.363v23.845l10.357-9.499h3.315l-10.766 9.908 11.815 10.812h-3.501z" style="fill:#fff;fill-rule:nonzero"/><circle cx="156.774" cy="179.659" r="2.776" style="fill:#f8981d"/><path d="M153.998 186.065h5.548v22.252h-5.548z" style="fill:#f8981d"/><path d="M184.669 197.126c0 .405 0 1.209-.044 1.998h-15.856c.4 1.883 2.597 4.3 5.958 4.3a8.54 8.54 0 0 0 5.822-2.153l2.687 4.076a13.6 13.6 0 0 1-8.489 3.046c-6.452 0-11.426-4.929-11.426-11.157s4.525-11.151 10.662-11.151c5.803-.02 10.686 4.505 10.686 11.041m-5.378-1.877c-.09-1.837-1.788-4.305-5.329-4.305-3.45 0-5.018 2.422-5.193 4.305zm18.347 12.954h-3.206l-9.807-22.157h6.976l4.574 11.974 4.854-11.974h4.15l4.809 11.974 4.574-11.974h6.976l-9.757 22.157h-3.256l-5.419-11.835zm-60.035.175h-2.996l-16.774-35.126h8.494l9.698 22.062 9.029-22.062h8.444z" style="fill:#f8981d;fill-rule:nonzero"/></svg>