<svg xmlns="http://www.w3.org/2000/svg" xml:space="preserve" style="fill-rule:evenodd;clip-rule:evenodd;stroke-linejoin:round;stroke-miterlimit:2" viewBox="0 0 356 356"><path d="M355.556 88.889v177.778c0 49.059-39.83 88.889-88.889 88.889H88.889C39.83 355.556 0 315.726 0 266.667V88.889C0 39.83 39.83 0 88.889 0h177.778c49.059 0 88.889 39.83 88.889 88.889" style="fill:#191763"/><path d="M88.749-.183c174.053 118.519 170.975 237.037 0 355.556-49.06 0-88.889-39.83-88.889-88.889V88.706C-.14 39.647 39.689-.183 88.749-.183" style="fill:#262292"/><path d="M255.262 104.402v77.483c0 21.383-17.36 38.743-38.743 38.743h-77.483c-21.383 0-38.742-17.36-38.742-38.743v-77.483c0-21.383 17.359-38.742 38.742-38.742h77.483c21.383 0 38.743 17.359 38.743 38.742" style="fill:#f0931c"/><path d="m200.358 143.144-45.161 31.042v-62.085z" style="fill:#fff"/><path d="m86.09 279.106 2.431 2.431a22.84 22.84 0 0 1-17.472 7.819c-13.632 0-23.348-10.791-23.348-24.416s9.723-24.424 23.348-24.424a22.45 22.45 0 0 1 16.798 7.222l-2.5 2.292a18.99 18.99 0 0 0-14.298-6.07c-11.743 0-19.716 9.375-19.716 20.98 0 11.604 7.973 20.979 19.716 20.979a19.51 19.51 0 0 0 15.041-6.813M94.562 240.516h3.16v48.764h-3.284zM106.576 247.877c1.41 0 2.57 1.16 2.57 2.57a2.58 2.58 0 0 1-2.57 2.569 2.58 2.58 0 0 1-2.569-2.569c0-1.41 1.16-2.57 2.569-2.57" style="fill:#fff;fill-rule:nonzero"/><path d="M104.903 258.342h3.34v30.944h-3.34z" style="fill:#fff"/><path d="m138.236 281.363 2.313 2.188a15.15 15.15 0 0 1-12.021 5.979c-8.743 0-15.111-6.945-15.111-15.431s6.368-15.43 15.111-15.43a15.18 15.18 0 0 1 11.701 5.555l-2.382 2.125a11.92 11.92 0 0 0-9.319-4.375c-7.007 0-11.639 5.66-11.639 12.153s4.632 12.153 11.639 12.153a12.08 12.08 0 0 0 9.708-4.917M148.646 274.884v14.403h-3.285v-48.764h3.285v33.16l14.403-13.209h4.611l-14.972 13.778 16.43 15.035h-4.868z" style="fill:#fff;fill-rule:nonzero"/><circle cx="217.792" cy="249.433" r="3.861" style="fill:#f8981d"/><path d="M213.931 258.342h7.715v30.944h-7.715z" style="fill:#f8981d"/><path d="M256.583 273.724c0 .563 0 1.681-.062 2.778h-22.049c.556 2.618 3.611 5.979 8.285 5.979a11.88 11.88 0 0 0 8.097-2.993l3.736 5.667a18.92 18.92 0 0 1-11.805 4.236c-8.972 0-15.889-6.854-15.889-15.514s6.292-15.507 14.826-15.507c8.07-.028 14.861 6.264 14.861 15.354m-7.479-2.611c-.125-2.555-2.486-5.986-7.41-5.986-4.798 0-6.979 3.368-7.222 5.986zM274.618 289.127h-4.458l-13.639-30.812h9.701l6.361 16.652 6.75-16.652h5.771l6.688 16.652 6.361-16.652h9.701l-13.569 30.812h-4.528l-7.535-16.458zM191.132 289.37h-4.167l-23.326-48.847h11.812l13.486 30.68 12.556-30.68h11.743z" style="fill:#f8981d;fill-rule:nonzero"/></svg>