<svg xmlns="http://www.w3.org/2000/svg" xml:space="preserve" style="fill-rule:evenodd;clip-rule:evenodd;stroke-linejoin:round;stroke-miterlimit:2" viewBox="0 0 256 256"><path d="M256 63.999v128.002C256 227.323 227.323 256 192.001 256H63.999C28.677 256 0 227.323 0 192.001V63.999C0 28.677 28.677 0 63.999 0h128.002C227.323 0 256 28.677 256 63.999" style="fill:#148a45"/><path d="M63.122 0c123.595 85.335 121.408 170.668 0 256C28.283 256 0 227.323 0 192.001V63.999C0 28.677 28.283 0 63.122 0" style="fill:#fff;fill-opacity:.22"/><path d="M34.041 7.497c-7.465 4.027-11.808 7.782-16.432 12.436 9.57 32.122 33.554 105.852 47.071 126.362 4.876-4.801 9.103-8.662 13.869-13.354-15.795-27.525-35.867-94.06-44.508-125.444" style="fill:url(#a);fill-rule:nonzero"/><path d="M238.662 126.991c-29.404 0-45.05 41.865-65.837 41.865-21.599 0-35.134-41.865-65.833-41.865-30.104 0-47.527 41.948-66.129 42.088h-.107c-13.255 0-25.156-18.34-39.763-30.214v25.972c12.669 12.145 24.65 23.4 39.87 23.4 28.404 0 46.232-42.856 66.129-42.856 18.271 0 36.801 42.856 66.131 42.856 28.035 0 48.783-43.013 65.982-43.049h.033c7.284 0 13.265 4.882 15.869 7.403V131.03a34.95 34.95 0 0 0-16.345-4.039" style="fill:url(#b);fill-rule:nonzero"/><path d="m92.781 158.842-12.732 12.845c7.877 10.43 22.296 30.181 45.241 30.181h.14c19.75-.071 29.404-13.288 29.404-13.288-5.159-2.626-14.869-11.124-14.869-11.124a23.52 23.52 0 0 1-14.547 5.468c-16.408 0-29.217-19.798-32.637-24.082" style="fill:url(#c);fill-rule:nonzero"/><path d="M216.97 5.263c-3.604 13.479-29.788 106.57-58.457 149.799a31.4 31.4 0 0 0 16.164 9.412c27.761-42.642 49.068-111.802 58.335-149.58-4.038-3.662-10.14-7.347-16.042-9.816" style="fill:url(#d);fill-rule:nonzero"/><defs><linearGradient id="a" x1="0" x2="1" y1="0" y2="0" gradientTransform="rotate(90 24.048 24.03)scale(254.015)" gradientUnits="userSpaceOnUse"><stop offset="0" style="stop-color:#fff;stop-opacity:1"/><stop offset="1" style="stop-color:#fff;stop-opacity:1"/></linearGradient><linearGradient id="b" x1="0" x2="1" y1="0" y2="0" gradientTransform="translate(.993 66274.8)scale(254.015)" gradientUnits="userSpaceOnUse"><stop offset="0" style="stop-color:#fff;stop-opacity:1"/><stop offset="1" style="stop-color:#fff;stop-opacity:1"/></linearGradient><linearGradient id="c" x1="0" x2="1" y1="0" y2="0" gradientTransform="translate(80.05 46623.2)scale(74.7844)" gradientUnits="userSpaceOnUse"><stop offset="0" style="stop-color:#fff;stop-opacity:1"/><stop offset="1" style="stop-color:#fff;stop-opacity:1"/></linearGradient><linearGradient id="d" x1="0" x2="1" y1="0" y2="0" gradientTransform="translate(158.513 174699)scale(74.5002)" gradientUnits="userSpaceOnUse"><stop offset="0" style="stop-color:#fff;stop-opacity:1"/><stop offset="1" style="stop-color:#fff;stop-opacity:1"/></linearGradient></defs></svg>