<svg xmlns="http://www.w3.org/2000/svg" xml:space="preserve" style="fill-rule:evenodd;clip-rule:evenodd;stroke-linejoin:round;stroke-miterlimit:2" viewBox="0 0 256 256"><path d="M256 63.999v128.002C256 227.323 227.323 256 192.001 256H63.999C28.677 256 0 227.323 0 192.001V63.999C0 28.677 28.677 0 63.999 0h128.002C227.323 0 256 28.677 256 63.999" style="fill:#148a45"/><path d="M58.465 145.725c0-.622-.346-.97-1.105-.97-.553 0-.967.485-1.175 1.452-1.382 5.46-3.04 8.225-4.906 8.225-1.176 0-1.798-.967-1.798-2.902 0-.899.277-2.557.899-4.977l3.938-15.551c.345-1.313.485-2.072.485-2.42q0-2.072-2.28-2.072c-1.452 0-2.42.828-2.905 2.42-1.45-2.56-3.525-3.801-6.15-3.801-4.492 0-8.433 2.28-11.889 6.84-3.179 4.287-4.769 8.71-4.769 13.339 0 6.013 3.527 11.127 9.332 11.127 2.971 0 5.873-1.589 8.639-4.768.762 2.628 3.11 4.768 6.358 4.768 4.769 0 6.221-5.596 7.326-10.71m-10.85-15.899c.622 1.453.967 2.42.967 3.042 0 .277-.069.623-.137 1.105l-3.388 13.27c-.208.762-.69 1.59-1.312 2.42q-3.837 4.769-7.466 4.769c-2.694 0-4.078-2.075-4.078-6.15q0-2.489 1.244-7.466c1.453-5.876 3.525-9.814 6.085-11.957 1.381-1.173 2.694-1.727 4.006-1.727 1.867 0 3.248.899 4.079 2.694Zm26.856-35.238c-2.492 0-4.593.881-6.403 2.64s-2.736 3.81-2.736 6.302c0 1.661 1.221 2.884 2.736 2.884 1.467 0 2.688-1.271 2.688-2.738 0-1.611-1.173-2.736-2.736-2.736-.146 0-.244 0-.342.051.929-2.397 3.078-4.498 6.156-4.498 4.006 0 6.257 3.471 6.257 7.674 0 3.271-1.664 6.79-4.986 10.505l-9.186 10.359c-.635.732-.587.684-.587 2.101H83.46l1.417-8.796h-1.61c-.393 2.492-.735 3.908-1.027 4.349-.244.244-1.712.342-4.4.342h-8.159l4.739-4.643c3.325-3.126 7.525-6.499 8.942-9.088q1.468-2.564 1.468-5.129c0-5.766-4.495-9.579-10.359-9.579Zm79.913 42.15h-19.7v-19.697q0-1.66-1.658-1.658-1.658 0-1.658 1.658v19.697h-19.697q-1.66 0-1.658 1.658 0 1.661 1.658 1.661h19.697v19.697q0 1.658 1.658 1.658t1.658-1.658v-19.697h19.7q1.658 0 1.658-1.661a1.69 1.69 0 0 0-1.658-1.658Zm40.308-11.817c-2.488 0-4.977 1.175-7.397 3.524l4.769-19.697c-.137-.622-.345-1.036-1.173-1.036-2.283 0-7.329.619-8.225.691-1.038.137-1.589.622-1.589 1.658 0 .69.622 1.036 1.935 1.036 1.312 0 3.107-.069 3.107.899 0 .276-.345 1.658-.967 4.215l-5.528 22.257c-.759 2.902-1.107 5.251-1.107 6.98 0 5.942 3.182 10.987 8.847 10.987 4.495 0 8.433-2.28 11.889-6.909 3.111-4.286 4.7-8.778 4.7-13.41 0-6.013-3.524-11.195-9.261-11.195m-.139 2.071c2.696 0 4.009 2.075 4.009 6.153q0 2.799-1.244 7.463c-1.521 5.876-3.525 9.886-5.945 12.026-1.381 1.176-2.694 1.73-4.009 1.73-2.834 0-4.215-2.212-4.215-6.636q0-2.28 1.036-6.843l1.521-6.219c.208-1.038.553-1.798.967-2.351 2.697-3.525 5.323-5.323 7.88-5.323Zm24.227-32.404c-2.491 0-4.593.881-6.4 2.64s-2.735 3.81-2.735 6.302c0 1.661 1.22 2.884 2.735 2.884 1.468 0 2.688-1.271 2.688-2.738 0-1.611-1.173-2.736-2.735-2.736-.149 0-.244 0-.343.051.929-2.397 3.078-4.498 6.156-4.498 4.007 0 6.254 3.471 6.254 7.674 0 3.271-1.661 6.79-4.983 10.505l-9.186 10.359c-.637.732-.586.684-.586 2.101h18.128l1.417-8.796h-1.613c-.39 2.492-.733 3.908-1.024 4.349-.248.244-1.712.342-4.4.342h-8.159l4.739-4.643c3.322-3.126 7.525-6.499 8.942-9.088q1.467-2.564 1.467-5.129c0-5.766-4.498-9.579-10.362-9.579Z" style="fill:#fff;fill-rule:nonzero;stroke:#fff;stroke-width:2.41px"/></svg>