<svg xmlns="http://www.w3.org/2000/svg" xml:space="preserve" style="fill-rule:evenodd;clip-rule:evenodd;stroke-linejoin:round;stroke-miterlimit:2" viewBox="0 0 86 86"><path d="M85.333 21.333V64c0 11.774-9.559 21.333-21.333 21.333H21.333C9.559 85.333 0 75.774 0 64V21.333C0 9.559 9.559 0 21.333 0H64c11.774 0 21.333 9.559 21.333 21.333" style="fill:#148a45"/><path d="M19.307 48.621c0-.209-.116-.326-.371-.326-.186 0-.325.163-.395.488-.464 1.834-1.021 2.763-1.648 2.763-.395 0-.604-.325-.604-.975 0-.302.093-.859.302-1.672l1.323-5.224c.116-.441.163-.696.163-.813q0-.696-.766-.696c-.488 0-.813.278-.976.813-.487-.86-1.184-1.277-2.066-1.277-1.509 0-2.833.766-3.994 2.298-1.068 1.44-1.602 2.926-1.602 4.481 0 2.02 1.185 3.738 3.135 3.738.998 0 1.973-.534 2.902-1.602.256.883 1.045 1.602 2.136 1.602 1.602 0 2.09-1.88 2.461-3.598m-3.645-5.341c.209.488.325.813.325 1.022 0 .093-.023.209-.046.371l-1.138 4.458c-.07.256-.232.534-.441.813q-1.289 1.602-2.508 1.602c-.905 0-1.37-.697-1.37-2.066q0-.836.418-2.508c.488-1.974 1.184-3.297 2.044-4.017.464-.394.905-.58 1.346-.58.627 0 1.091.302 1.37.905ZM24.684 31.442c-.837 0-1.543.296-2.151.887s-.919 1.28-.919 2.117c0 .558.41.969.919.969.493 0 .903-.427.903-.92 0-.541-.394-.919-.919-.919-.049 0-.082 0-.115.017.312-.805 1.034-1.511 2.068-1.511 1.346 0 2.102 1.166 2.102 2.578 0 1.099-.559 2.281-1.675 3.529l-3.086 3.48c-.213.246-.197.23-.197.706h6.09l.476-2.955h-.541c-.132.837-.247 1.313-.345 1.461-.082.082-.575.115-1.478.115h-2.741l1.592-1.56c1.117-1.05 2.528-2.183 3.004-3.053q.493-.861.493-1.723c0-1.937-1.51-3.218-3.48-3.218ZM51.53 45.602h-6.618v-6.617q0-.558-.557-.557-.557 0-.557.557v6.617h-6.617q-.558 0-.557.557 0 .558.557.558h6.617v6.617q0 .557.557.557t.557-.557v-6.617h6.618q.557 0 .557-.558a.566.566 0 0 0-.557-.557ZM65.071 41.632c-.836 0-1.672.395-2.485 1.184l1.602-6.617c-.046-.209-.116-.348-.394-.348-.767 0-2.462.208-2.763.232-.349.046-.534.209-.534.557 0 .232.209.348.65.348s1.044-.023 1.044.302c0 .093-.116.557-.325 1.416l-1.857 7.477c-.255.975-.372 1.764-.372 2.345 0 1.996 1.069 3.691 2.972 3.691 1.51 0 2.833-.766 3.994-2.321 1.045-1.44 1.579-2.949 1.579-4.505 0-2.02-1.184-3.761-3.111-3.761m-.047.696c.906 0 1.347.697 1.347 2.067q0 .94-.418 2.507c-.511 1.974-1.184 3.321-1.997 4.04-.464.395-.905.581-1.347.581-.952 0-1.416-.743-1.416-2.229q0-.766.348-2.299l.511-2.089c.07-.349.186-.604.325-.79.906-1.184 1.788-1.788 2.647-1.788ZM73.163 31.442c-.837 0-1.543.296-2.15.887s-.919 1.28-.919 2.117c0 .558.41.969.919.969.493 0 .903-.427.903-.92 0-.541-.394-.919-.919-.919-.05 0-.082 0-.115.017.312-.805 1.034-1.511 2.068-1.511 1.346 0 2.101 1.166 2.101 2.578 0 1.099-.558 2.281-1.674 3.529l-3.086 3.48c-.214.246-.197.23-.197.706h6.09l.476-2.955h-.542c-.131.837-.246 1.313-.344 1.461-.083.082-.575.115-1.478.115h-2.741l1.592-1.56c1.116-1.05 2.528-2.183 3.004-3.053q.493-.861.493-1.723c0-1.937-1.511-3.218-3.481-3.218Z" style="fill:#fff;fill-rule:nonzero;stroke:#fff;stroke-width:.81px"/></svg>