<svg xmlns="http://www.w3.org/2000/svg" xml:space="preserve" style="fill-rule:evenodd;clip-rule:evenodd;stroke-linejoin:round;stroke-miterlimit:2" viewBox="0 0 86 86"><path d="M85.333 21.333V64c0 11.774-9.559 21.333-21.333 21.333H21.333C9.559 85.333 0 75.774 0 64V21.333C0 9.559 9.559 0 21.333 0H64c11.774 0 21.333 9.559 21.333 21.333" style="fill:#148a45"/><path d="M21.3-.044c41.773 28.445 41.034 56.889 0 85.333-11.775 0-21.334-9.559-21.334-21.333V21.289C-.034 9.515 9.525-.044 21.3-.044" style="fill:#fff;fill-opacity:.22"/><path d="M11.102 2.624c-2.078.921-4.014 2.767-5.52 4.29 3.215 10.791 11.272 35.348 15.813 42.238 1.638-1.613 3.058-2.91 4.659-4.486-5.306-9.247-12.049-31.499-14.952-42.042" style="fill:url(#a);fill-rule:nonzero"/><path d="M79.842 42.667c-9.878 0-15.134 14.064-22.117 14.064-7.256 0-11.803-14.064-22.116-14.064-10.113 0-15.966 14.092-22.215 14.139h-.036c-4.453 0-8.451-6.161-13.358-10.15v8.725c4.256 4.08 8.281 7.861 13.394 7.861 9.542 0 15.531-14.397 22.215-14.397 6.138 0 12.363 14.397 22.216 14.397 9.418 0 16.388-14.45 22.166-14.462h.011c2.447 0 4.456 1.64 5.331 2.487v-7.243a11.74 11.74 0 0 0-5.491-1.357" style="fill:url(#b);fill-rule:nonzero"/><path d="m30.835 53.367-4.277 4.315c2.646 3.504 7.49 10.139 15.198 10.139h.047c6.635-.024 9.878-4.464 9.878-4.464-1.733-.882-4.995-3.737-4.995-3.737a7.9 7.9 0 0 1-4.887 1.837c-5.512 0-9.815-6.651-10.964-8.09" style="fill:url(#c);fill-rule:nonzero"/><path d="M72.555 1.774c-1.211 4.528-10.007 35.801-19.638 50.323a10.54 10.54 0 0 0 5.43 3.162c9.326-14.325 16.484-37.377 19.597-50.068-1.451-1.298-3.396-2.795-5.389-3.417" style="fill:url(#d);fill-rule:nonzero"/><defs><linearGradient id="a" x1="0" x2="1" y1="0" y2="0" gradientTransform="rotate(90 7.909 7.909)scale(85.3333)" gradientUnits="userSpaceOnUse"><stop offset="0" style="stop-color:#fff;stop-opacity:1"/><stop offset="1" style="stop-color:#fff;stop-opacity:1"/></linearGradient><linearGradient id="b" x1="0" x2="1" y1="0" y2="0" gradientTransform="translate(0 22264.2)scale(85.3332)" gradientUnits="userSpaceOnUse"><stop offset="0" style="stop-color:#fff;stop-opacity:1"/><stop offset="1" style="stop-color:#fff;stop-opacity:1"/></linearGradient><linearGradient id="c" x1="0" x2="1" y1="0" y2="0" gradientTransform="translate(26.558 15662.5)scale(25.1229)" gradientUnits="userSpaceOnUse"><stop offset="0" style="stop-color:#fff;stop-opacity:1"/><stop offset="1" style="stop-color:#fff;stop-opacity:1"/></linearGradient><linearGradient id="d" x1="0" x2="1" y1="0" y2="0" gradientTransform="translate(52.917 58687.8)scale(25.0274)" gradientUnits="userSpaceOnUse"><stop offset="0" style="stop-color:#fff;stop-opacity:1"/><stop offset="1" style="stop-color:#fff;stop-opacity:1"/></linearGradient></defs></svg>