<svg xmlns="http://www.w3.org/2000/svg" xml:space="preserve" style="fill-rule:evenodd;clip-rule:evenodd;stroke-linejoin:round;stroke-miterlimit:2" viewBox="0 0 356 356"><path d="M355.556 88.889v177.778c0 49.059-39.83 88.889-88.889 88.889H88.889C39.83 355.556 0 315.726 0 266.667V88.889C0 39.83 39.83 0 88.889 0h177.778c49.059 0 88.889 39.83 88.889 88.889" style="fill:#191763"/><path d="M88.749-.183c174.053 118.519 170.975 237.037 0 355.556-49.06 0-88.889-39.83-88.889-88.889V88.706C-.14 39.647 39.689-.183 88.749-.183" style="fill:#262292"/><circle cx="177.778" cy="177.778" r="121.444" style="fill:#efd108"/><path d="M123.76 151.417v19.11h33.04v14.736h-33.04v19.11h36.724v14.736h-52.266v-82.428h52.266v14.736z" style="fill:#3d55a5;fill-rule:nonzero"/><path d="M198.82 136.681h17.729l30.968 82.428h-17.154l-6.792-19.686h-31.774l-6.792 19.686h-17.153zm19.686 48.467-7.368-20.607-2.993-10.016h-.921l-2.993 10.016-7.368 20.607z" style="fill:#fff;fill-rule:nonzero"/></svg>