<svg xmlns="http://www.w3.org/2000/svg" xml:space="preserve" style="fill-rule:evenodd;clip-rule:evenodd;stroke-linejoin:round;stroke-miterlimit:2" viewBox="0 0 256 256"><path d="M256 64v128c0 35.322-28.678 64-64 64H64c-35.322 0-64-28.678-64-64V64C0 28.678 28.678 0 64 0h128c35.322 0 64 28.678 64 64" style="fill:#191763"/><path d="M63.121 0c123.596 85.334 121.41 170.666 0 256C28.283 256 0 227.322 0 192V64C0 28.678 28.283 0 63.121 0" style="fill:#262292"/><circle cx="128" cy="128" r="87.331" style="fill:#efd108"/><path d="M89.156 109.044v13.742h23.759v10.596H89.156v13.742h26.408v10.597H77.979V98.447h37.585v10.597z" style="fill:#3d55a5;fill-rule:nonzero"/><path d="M143.131 98.447h12.749l22.269 59.274h-12.335l-4.884-14.156h-22.849l-4.884 14.156h-12.335zm14.157 34.853-5.299-14.819-2.152-7.202h-.662l-2.153 7.202-5.298 14.819z" style="fill:#fff;fill-rule:nonzero"/></svg>