<svg xmlns="http://www.w3.org/2000/svg" xml:space="preserve" style="fill-rule:evenodd;clip-rule:evenodd;stroke-linejoin:round;stroke-miterlimit:2" viewBox="0 0 256 256"><path d="M256 64v128c0 35.322-28.678 64-64 64H64c-35.322 0-64-28.678-64-64V64C0 28.678 28.678 0 64 0h128c35.322 0 64 28.678 64 64" style="fill:#191763"/><path d="M63.121 0c123.596 85.334 121.41 170.666 0 256C28.283 256 0 227.322 0 192V64C0 28.678 28.283 0 63.121 0" style="fill:#262292"/><path d="M43.098 199.451V56.55c0-7.425 6.027-13.452 13.451-13.452s13.452 6.027 13.452 13.452v116.566c.002 7.067 5.816 12.881 12.883 12.883H199.45c7.425 0 13.452 6.027 13.452 13.452s-6.027 13.451-13.452 13.451H56.549c-7.424 0-13.451-6.027-13.451-13.451" style="fill:#fff000"/><path d="M89.426 154.545V64.711c0-6.727 5.46-12.187 12.186-12.187 6.725 0 12.185 5.46 12.185 12.187v66.376c0 6.225 5.048 11.272 11.273 11.272h66.219c6.726 0 12.187 5.461 12.187 12.186 0 6.726-5.461 12.186-12.187 12.186h-89.677c-6.726 0-12.186-5.46-12.186-12.186" style="fill:#fff"/><path d="M129.86 52.524h61.221a12.396 12.396 0 0 1 12.395 12.395v61.221c-40.657 0-73.616-32.959-73.616-73.616" style="fill:#00a3ff"/></svg>