<svg xmlns="http://www.w3.org/2000/svg" xml:space="preserve" style="fill-rule:evenodd;clip-rule:evenodd;stroke-linejoin:round;stroke-miterlimit:2" viewBox="0 0 356 356"><path d="M355.556 88.889v177.778c0 49.059-39.83 88.889-88.889 88.889H88.889C39.83 355.556 0 315.726 0 266.667V88.889C0 39.83 39.83 0 88.889 0h177.778c49.059 0 88.889 39.83 88.889 88.889" style="fill:#191763"/><path d="M88.749-.183c174.053 118.519 170.975 237.037 0 355.556-49.06 0-88.889-39.83-88.889-88.889V88.706C-.14 39.647 39.689-.183 88.749-.183" style="fill:#262292"/><path d="M66.655 277.139V78.417c0-10.325 8.382-18.707 18.706-18.707s18.707 8.382 18.707 18.707v162.1a17.92 17.92 0 0 0 17.915 17.915h162.1c10.325 0 18.707 8.382 18.707 18.707 0 10.324-8.382 18.706-18.707 18.706H85.361c-10.324 0-18.706-8.382-18.706-18.706" style="fill:#fff000"/><path d="M131.08 214.692V89.766c0-9.354 7.593-16.947 16.946-16.947s16.946 7.593 16.946 16.947v92.305c0 8.656 7.019 15.675 15.676 15.675h92.086c9.353 0 16.947 7.593 16.947 16.946s-7.594 16.946-16.947 16.946H148.026c-9.353 0-16.946-7.593-16.946-16.946" style="fill:#fff"/><path d="M187.309 72.819h85.135c4.572 0 8.956 1.816 12.188 5.049a17.23 17.23 0 0 1 5.049 12.188v85.135c-56.539 0-102.372-45.833-102.372-102.372" style="fill:#00a3ff"/></svg>