<svg xmlns="http://www.w3.org/2000/svg" xml:space="preserve" style="fill-rule:evenodd;clip-rule:evenodd;stroke-linejoin:round;stroke-miterlimit:2" viewBox="0 0 356 356"><path d="M355.556 88.889v177.778c0 49.059-39.83 88.889-88.889 88.889H88.889C39.83 355.556 0 315.726 0 266.667V88.889C0 39.83 39.83 0 88.889 0h177.778c49.059 0 88.889 39.83 88.889 88.889" style="fill:#191763"/><path d="M88.749-.183c174.053 118.519 170.975 237.037 0 355.556-49.06 0-88.889-39.83-88.889-88.889V88.706C-.14 39.647 39.689-.183 88.749-.183" style="fill:#262292"/><path d="m264.842 100.573 26.938 100.533c7.434 27.744-9.054 56.303-36.798 63.736L154.449 291.78c-27.743 7.434-56.302-9.054-63.736-36.798L63.775 154.449c-7.434-27.743 9.055-56.302 36.798-63.736l100.533-26.938c27.744-7.434 56.303 9.055 63.736 36.798" style="fill:#005caf"/><path d="M156.234 178.139h-34.038q.064 5.928 2.391 10.454 2.326 4.525 6.183 6.82t8.509 2.295q3.123 0 5.705-.733 2.581-.734 5.004-2.295a38 38 0 0 0 4.461-3.347q2.04-1.784 5.291-4.844 1.339-1.147 3.825-1.147 2.676 0 4.334 1.466t1.657 4.143q0 2.358-1.848 5.514-1.849 3.155-5.578 6.055t-9.37 4.813q-5.64 1.912-12.971 1.912-16.764 0-26.07-9.561t-9.307-25.943q0-7.713 2.295-14.31t6.693-11.314q4.398-4.718 10.836-7.235t14.278-2.518q10.199 0 17.497 4.303 7.299 4.302 10.932 11.123t3.633 13.895q0 6.566-3.761 8.51-3.76 1.944-10.581 1.944m-34.038-9.88h31.552q-.638-8.924-4.812-13.354-4.176-4.43-10.995-4.43-6.503 0-10.677 4.494-4.176 4.494-5.068 13.29" style="fill:#fff000;fill-rule:nonzero"/><path d="M199.579 148.245v2.103q4.908-6.055 10.198-8.892t11.984-2.836q8.03 0 14.788 4.143 6.756 4.143 10.676 12.111t3.92 18.867q0 8.032-2.262 14.756-2.264 6.725-6.215 11.283-3.953 4.557-9.338 7.011-5.387 2.454-11.569 2.454-7.458 0-12.526-2.995-5.067-2.997-9.656-8.797v26.134q0 11.474-8.351 11.474-4.908 0-6.501-2.964-1.594-2.964-1.594-8.637v-75.088q0-4.971 2.167-7.426t5.928-2.454q3.698 0 6.024 2.518t2.327 7.235m34.101 25.305q0-6.884-2.103-11.824t-5.833-7.585-8.254-2.646q-7.203 0-12.143 5.674-4.94 5.673-4.94 16.7 0 10.389 4.908 16.158t12.175 5.769q4.335 0 8.031-2.518 3.698-2.517 5.928-7.553t2.231-12.175" style="fill:#fff;fill-rule:nonzero"/></svg>