<svg xmlns="http://www.w3.org/2000/svg" xml:space="preserve" style="fill-rule:evenodd;clip-rule:evenodd;stroke-linejoin:round;stroke-miterlimit:2" viewBox="0 0 256 256"><path d="M256 64v128c0 35.322-28.678 64-64 64H64c-35.322 0-64-28.678-64-64V64C0 28.678 28.678 0 64 0h128c35.322 0 64 28.678 64 64" style="fill:#191763"/><path d="M63.121 0c123.596 85.334 121.41 170.666 0 256C28.283 256 0 227.322 0 192V64C0 28.678 28.283 0 63.121 0" style="fill:#262292"/><path d="m190.608 72.482 19.371 72.294c5.346 19.95-6.51 40.487-26.461 45.832l-72.294 19.371c-19.95 5.346-40.486-6.51-45.832-26.461l-19.371-72.294c-5.346-19.95 6.511-40.486 26.461-45.832l72.294-19.371c19.95-5.346 40.487 6.511 45.832 26.461" style="fill:#005caf"/><path d="M112.508 128.26H88.031q.046 4.263 1.72 7.517 1.672 3.254 4.446 4.905 2.773 1.65 6.119 1.65 2.245 0 4.102-.527a13.4 13.4 0 0 0 3.599-1.65 27 27 0 0 0 3.207-2.407q1.467-1.283 3.805-3.484.963-.824 2.751-.824 1.924 0 3.116 1.054t1.192 2.979q0 1.695-1.329 3.965t-4.011 4.354q-2.682 2.086-6.738 3.461t-9.328 1.375q-12.054 0-18.747-6.875t-6.692-18.656q0-5.546 1.65-10.29t4.813-8.136 7.792-5.203 10.268-1.81q7.334 0 12.582 3.094t7.861 7.999q2.612 4.905 2.612 9.991 0 4.722-2.704 6.12t-7.609 1.398m-24.477-7.105h22.689q-.459-6.417-3.46-9.603-3.003-3.185-7.906-3.185-4.677 0-7.678 3.231-3.003 3.232-3.645 9.557" style="fill:#fff000;fill-rule:nonzero"/><path d="M143.677 106.763v1.512q3.53-4.353 7.334-6.394 3.803-2.04 8.618-2.039 5.774 0 10.634 2.979 4.858 2.979 7.677 8.709t2.819 13.567q0 5.777-1.627 10.611-1.628 4.836-4.469 8.114-2.843 3.277-6.715 5.042-3.874 1.764-8.319 1.764-5.363 0-9.008-2.153-3.644-2.156-6.944-6.326v18.793q0 8.25-6.005 8.251-3.53 0-4.675-2.132-1.146-2.131-1.146-6.211v-53.996q0-3.575 1.558-5.34 1.558-1.766 4.263-1.764 2.66 0 4.332 1.81 1.673 1.812 1.673 5.203M168.2 124.96q0-4.95-1.513-8.503t-4.194-5.454q-2.682-1.902-5.936-1.903-5.18 0-8.732 4.08t-3.552 12.009q0 7.471 3.529 11.62t8.755 4.148q3.118 0 5.775-1.811 2.66-1.81 4.263-5.431t1.605-8.755" style="fill:#fff;fill-rule:nonzero"/></svg>