<svg xmlns="http://www.w3.org/2000/svg" xml:space="preserve" style="fill-rule:evenodd;clip-rule:evenodd;stroke-linecap:round;stroke-linejoin:round;stroke-miterlimit:1.5" viewBox="0 0 356 356"><path d="M355.556 88.889v177.778c0 49.059-39.83 88.889-88.889 88.889H88.889C39.83 355.556 0 315.726 0 266.667V88.889C0 39.83 39.83 0 88.889 0h177.778c49.059 0 88.889 39.83 88.889 88.889" style="fill:#191763"/><path d="M88.749-.183c174.053 118.519 170.975 237.037 0 355.556-49.06 0-88.889-39.83-88.889-88.889V88.706C-.14 39.647 39.689-.183 88.749-.183" style="fill:#262292"/><path d="m255.168 103.69-16.403 19.413" style="fill:none;stroke:#7779e0;stroke-width:14.83px"/><path d="M177.634 73.256v25.416" style="fill:none;stroke:#fff;stroke-width:25.38px"/><circle cx="100.586" cy="106.09" r="25.549" style="fill:#7779e0"/><circle cx="177.634" cy="195.536" r="95.038" style="fill:none;stroke:#fff000;stroke-width:25.38px"/><path d="M177.634 125.517v25.415" style="fill:none;stroke:#fff;stroke-width:20.11px"/><path d="m240.874 80.54 39.505 33.379" style="fill:none;stroke:#7779e0;stroke-width:12.66px"/><path d="M151.775 64.799h51.718" style="fill:none;stroke:#fff;stroke-width:21.66px"/><path d="M177.634 239.429v25.415" style="fill:none;stroke:#fff;stroke-width:20.11px"/><path d="M124.876 248.305c2.094-2.748 3.207-6.159 5.302-8.906l40.352-50.977c1.105-.731 2.091-1.689 3.316-2.194a10 10 0 0 1 3.788-.733c1.286 0 2.599.243 3.788.733.577.238 3.909 1.611 5.52 5.521.49 1.189.733 2.501.733 3.787s-.243 2.599-.733 3.788c-.505 1.226-1.17 2.475-2.194 3.316-16.746 13.753-33.981 26.899-50.971 40.348-4.074 3.225-4.439 2.651-8.901 5.317" style="fill:#fff"/><path d="M107.896 195.536h25.415M222.389 195.536h25.416" style="fill:none;stroke:#fff;stroke-width:20.11px"/></svg>