<svg xmlns="http://www.w3.org/2000/svg" xml:space="preserve" style="fill-rule:evenodd;clip-rule:evenodd;stroke-linecap:round;stroke-linejoin:round;stroke-miterlimit:1.5" viewBox="0 0 256 256"><path d="M256 64v128c0 35.322-28.678 64-64 64H64c-35.322 0-64-28.678-64-64V64C0 28.678 28.678 0 64 0h128c35.322 0 64 28.678 64 64" style="fill:#191763"/><path d="M63.121 0c123.596 85.334 121.41 170.666 0 256C28.283 256 0 227.322 0 192V64C0 28.678 28.283 0 63.121 0" style="fill:#262292"/><path d="m183.702 74.789-11.796 13.96" style="fill:none;stroke:#7779e0;stroke-width:10.66px"/><path d="M127.947 52.904v18.277" style="fill:none;stroke:#fff;stroke-width:18.25px"/><circle cx="72.541" cy="76.515" r="18.372" style="fill:#7779e0"/><circle cx="127.947" cy="140.836" r="68.342" style="fill:none;stroke:#fff000;stroke-width:18.25px"/><path d="M127.947 90.485v18.276" style="fill:none;stroke:#fff;stroke-width:14.46px"/><path d="m173.423 58.142 28.408 24.003" style="fill:none;stroke:#7779e0;stroke-width:9.1px"/><path d="M109.352 46.822h37.19" style="fill:none;stroke:#fff;stroke-width:15.58px"/><path d="M127.947 172.399v18.276" style="fill:none;stroke:#fff;stroke-width:14.46px"/><path d="M90.008 178.782c1.506-1.976 2.307-4.429 3.813-6.404l29.017-36.658c.795-.526 1.504-1.215 2.385-1.578a7.2 7.2 0 0 1 2.724-.527c.925 0 1.869.175 2.724.527.415.171 2.811 1.159 3.969 3.97.353.855.527 1.799.527 2.724 0 .924-.174 1.869-.527 2.724-.363.881-.841 1.779-1.578 2.384-12.042 9.89-24.435 19.343-36.653 29.014-2.929 2.319-3.192 1.907-6.401 3.824" style="fill:#fff"/><path d="M77.798 140.836h18.276m64.056 0h18.277" style="fill:none;stroke:#fff;stroke-width:14.46px"/></svg>