<svg xmlns="http://www.w3.org/2000/svg" xml:space="preserve" style="fill-rule:evenodd;clip-rule:evenodd;stroke-linejoin:round;stroke-miterlimit:2" viewBox="0 0 256 256"><path d="M256 64v128c0 35.322-28.678 64-64 64H64c-35.322 0-64-28.678-64-64V64C0 28.678 28.678 0 64 0h128c35.322 0 64 28.678 64 64" style="fill:#191763"/><path d="m73.903 62.285 108.194-.001c23.744 0 42.992 19.248 42.992 42.991v27.313c0 23.743-19.248 42.99-42.991 42.99h-68.375L73.902 212.45v-36.872c-23.743.002-42.991-19.245-42.991-42.988v-27.314c0-23.744 19.248-42.991 42.991-42.991" style="fill:#3d55a5;fill-rule:nonzero"/><path d="m86.848 90.747-23.956-.001c-2.366.001-4.314 1.949-4.314 4.316v47.353c0 2.367 1.948 4.314 4.315 4.315 2.366-.001 4.314-1.948 4.315-4.315l-.001-19.362h12.376a4.316 4.316 0 0 0 4.315-4.315 4.316 4.316 0 0 0-4.315-4.315H67.207l.001-15.047h19.638a4.316 4.316 0 0 0 .001-8.63m30.661 2.801c-.677-1.81-2.44-2.876-4.274-2.777-1.823-.086-3.573.977-4.248 2.777L91.266 140.9a4.315 4.315 0 1 0 8.084 3.025l2.66-7.107h22.479l2.661 7.107a4.32 4.32 0 0 0 4.041 2.805c.517 0 1.029-.094 1.512-.276a4.314 4.314 0 0 0 2.529-5.553zm-12.27 34.643 8.011-21.405 8.011 21.405zm86.722 7.09c3.418-4.641 5.463-10.35 5.463-16.542 0-15.435-12.557-27.992-27.994-27.992-15.438 0-27.994 12.557-27.994 27.992s12.557 27.992 27.994 27.992c6.134 0 11.795-2.007 16.412-5.364l4.207 4.231a4.3 4.3 0 0 0 3.059 1.273 4.3 4.3 0 0 0 3.042-1.256 4.314 4.314 0 0 0 .018-6.101zm-22.531 2.82c-10.676 0-19.364-8.686-19.364-19.362s8.686-19.362 19.364-19.362 19.364 8.687 19.364 19.362c0 3.797-1.116 7.334-3.012 10.326l-6.46-6.499a4.31 4.31 0 0 0-6.101-.017c-1.679 1.67-1.687 4.425-.018 6.104l6.458 6.496c-2.975 1.858-6.475 2.952-10.231 2.952" style="fill:#fff;fill-rule:nonzero"/></svg>