<svg xmlns="http://www.w3.org/2000/svg" xml:space="preserve" style="fill-rule:evenodd;clip-rule:evenodd;stroke-linejoin:round;stroke-miterlimit:2" viewBox="0 0 256 256"><path d="M256 64v128c0 35.322-28.678 64-64 64H64c-35.322 0-64-28.678-64-64V64C0 28.678 28.678 0 64 0h128c35.322 0 64 28.678 64 64" style="fill:#fff"/><path d="M50.382 195.423h28.595v-69.449L38.126 95.336v87.831c0 6.781 5.495 12.256 12.256 12.256" style="fill:#4285f4;fill-rule:nonzero"/><path d="M177.022 195.423h28.596c6.781 0 12.256-5.495 12.256-12.256V95.336l-40.852 30.638" style="fill:#34a853;fill-rule:nonzero"/><path d="M177.022 72.867v53.107l40.852-30.638V78.995c0-15.156-17.301-23.796-29.413-14.707" style="fill:#fbbc04;fill-rule:nonzero"/><path d="M78.977 125.974V72.867L128 109.634l49.022-36.767v53.107L128 162.741" style="fill:#ea4335;fill-rule:nonzero"/><path d="M38.126 78.995v16.341l40.851 30.638V72.867l-11.438-8.579c-12.133-9.089-29.413-.449-29.413 14.707" style="fill:#c5221f;fill-rule:nonzero"/></svg>