<svg xmlns="http://www.w3.org/2000/svg" xml:space="preserve" style="fill-rule:evenodd;clip-rule:evenodd;stroke-linejoin:round;stroke-miterlimit:2" viewBox="0 0 356 356"><path d="M355.556 88.889v177.778c0 49.059-39.83 88.889-88.889 88.889H88.889C39.83 355.556 0 315.726 0 266.667V88.889C0 39.83 39.83 0 88.889 0h177.778c49.059 0 88.889 39.83 88.889 88.889" style="fill:#fff"/><path d="M69.84 271.538h39.766v-96.577l-56.809-42.607v122.141c0 9.43 7.641 17.043 17.043 17.043" style="fill:#4285f4;fill-rule:nonzero"/><path d="M245.949 271.538h39.767c9.43 0 17.043-7.641 17.043-17.043V132.354l-56.81 42.607" style="fill:#34a853;fill-rule:nonzero"/><path d="M245.949 101.109v73.852l56.81-42.607V109.63c0-21.076-24.059-33.091-40.903-20.451" style="fill:#fbbc04;fill-rule:nonzero"/><path d="M109.606 174.961v-73.852l68.172 51.129 68.171-51.129v73.852l-68.171 51.129" style="fill:#ea4335;fill-rule:nonzero"/><path d="M52.797 109.63v22.724l56.809 42.607v-73.852L93.7 89.179c-16.873-12.64-40.903-.625-40.903 20.451" style="fill:#c5221f;fill-rule:nonzero"/></svg>