<svg xmlns="http://www.w3.org/2000/svg" xml:space="preserve" style="fill-rule:evenodd;clip-rule:evenodd;stroke-linejoin:round;stroke-miterlimit:2" viewBox="0 0 356 356"><path d="M355.556 88.889v177.778c0 49.059-39.83 88.889-88.889 88.889H88.889C39.83 355.556 0 315.726 0 266.667V88.889C0 39.83 39.83 0 88.889 0h177.778c49.059 0 88.889 39.83 88.889 88.889" style="fill:#191763"/><path d="M88.749-.183c174.053 118.519 170.975 237.037 0 355.556-49.06 0-88.889-39.83-88.889-88.889V88.706C-.14 39.647 39.689-.183 88.749-.183" style="fill:#262292"/><path d="m169.519 135.362.854 132.353-69.439-15.357 1.194-116.654zM184.788 133.632l-.883 136.519 71.828-15.841-1.236-120.326z" style="fill:#fff"/><path d="M88.016 257.042q.363-63.073.709-125.964a5.845 5.845 0 0 1 4.739-5.682c15.25-3.178 39.288-2.379 55.61 3.885a64.4 64.4 0 0 1 29.049 21.151 67.8 67.8 0 0 1 29.048-20.243c15.415-5.882 38.799-7.299 55.557-4.793a5.83 5.83 0 0 1 5.029 5.701v126.471c-.01 3.191-2.638 5.811-5.828 5.811h-.037a6.4 6.4 0 0 1-1.343-.164 97.05 97.05 0 0 0-42.575 3.976 129 129 0 0 0-28.631 14.997 125.4 125.4 0 0 1 38.563-5.629 227.7 227.7 0 0 1 49.764 6.318V150.523h5.828c3.197 0 5.827 2.631 5.827 5.828v134.152c0 3.197-2.63 5.828-5.827 5.828a5.8 5.8 0 0 1-1.816-.309 221.1 221.1 0 0 0-53.868-7.862 112.4 112.4 0 0 0-46.768 9.551 6.17 6.17 0 0 1-6.609 0 112.3 112.3 0 0 0-46.768-9.551 221 221 0 0 0-53.741 7.899 5.8 5.8 0 0 1-1.816.308h-.054c-3.198 0-5.828-2.631-5.828-5.827V156.351c0-3.197 2.63-5.828 5.828-5.828h5.828v132.354a227.7 227.7 0 0 1 49.764-6.318 125 125 0 0 1 41.231 6.482 88.4 88.4 0 0 0-28.214-15.323c-12.708-4.177-32.098-5.575-46.278-4.358a6 6 0 0 1-.564.028c-3.016 0-5.56-2.342-5.809-5.348a9 9 0 0 1 0-.998Zm168.049-120.753c-13.472-1.271-32.789.218-44.899 4.812a54.46 54.46 0 0 0-27.469 21.442v109.405a139.3 139.3 0 0 1 30.356-15.723 114.1 114.1 0 0 1 42.012-5.211zm-84.024 134.533V162.379c-6.101-10.766-15.959-17.956-27.107-22.223-12.709-4.847-32.226-5.936-44.59-4.175l-.653 115.396c13.489-.49 32.117 1.235 44.517 5.284a99.8 99.8 0 0 1 27.833 14.161Z" style="fill:#fff000;fill-rule:nonzero;stroke:#fff000;stroke-width:4.31px"/><path d="M114.457 201.735c16.561-.52 31.292 1.853 42.392 9.979M241.015 201.735c-16.561-.52-31.293 1.853-42.392 9.979M114.457 232.023c16.561-.521 31.292 1.853 42.392 9.978M241.015 232.023c-16.561-.521-31.293 1.853-42.392 9.978M114.457 171.448c16.561-.521 31.292 1.853 42.392 9.978M241.015 171.448c-16.561-.521-31.293 1.853-42.392 9.978" style="fill:none;stroke:#7779e0;stroke-width:7.79px;stroke-linecap:round;stroke-miterlimit:1.5"/><circle cx="177.778" cy="123.476" r="56.891" style="fill:#fff"/><path d="M177.778 56.702c36.854 0 66.774 29.92 66.774 66.774s-29.92 66.774-66.774 66.774-66.775-29.921-66.775-66.774 29.921-66.774 66.775-66.774m0 19.766c-25.944 0-47.008 21.064-47.008 47.008s21.064 47.007 47.008 47.007 47.007-21.063 47.007-47.007-21.063-47.008-47.007-47.008" style="fill:#7779e0"/><circle cx="178.73" cy="99.681" r="8.834" style="fill:#3d55a5"/><path d="M178.73 120.44v29.171h-8.741 17.668M169.989 120.44h8.741" style="fill:none;stroke:#3d55a5;stroke-width:7.79px;stroke-linecap:round;stroke-miterlimit:1.5"/></svg>