<svg xmlns="http://www.w3.org/2000/svg" xml:space="preserve" style="fill-rule:evenodd;clip-rule:evenodd;stroke-linejoin:round;stroke-miterlimit:2" viewBox="0 0 256 256"><path d="M256 64v128c0 35.322-28.678 64-64 64H64c-35.322 0-64-28.678-64-64V64C0 28.678 28.678 0 64 0h128c35.322 0 64 28.678 64 64" style="fill:#191763"/><path d="M63.121 0c123.596 85.334 121.41 170.666 0 256C28.283 256 0 227.322 0 192V64C0 28.678 28.283 0 63.121 0" style="fill:#262292"/><path d="m122.061 97.565.614 95.175-49.933-11.043.858-83.886zm10.98-1.244-.635 98.171 51.652-11.391-.889-86.527z" style="fill:#fff"/><path d="M63.452 185.065q.261-45.355.51-90.58a4.215 4.215 0 0 1 3.408-4.086c10.966-2.286 28.252-1.711 39.989 2.793a46.3 46.3 0 0 1 20.889 15.21 48.77 48.77 0 0 1 20.889-14.557c11.085-4.229 27.9-5.248 39.951-3.446a4.206 4.206 0 0 1 3.616 4.099v90.946c-.007 2.294-1.897 4.178-4.191 4.178h-.026a4.6 4.6 0 0 1-.966-.118 69.8 69.8 0 0 0-30.616 2.86 92.7 92.7 0 0 0-20.588 10.784 90.2 90.2 0 0 1 27.73-4.048 163.8 163.8 0 0 1 35.786 4.543v-95.176h4.191c2.299 0 4.19 1.892 4.19 4.191v96.469c0 2.299-1.891 4.191-4.19 4.191a4.2 4.2 0 0 1-1.306-.222 159 159 0 0 0-38.737-5.654 80.8 80.8 0 0 0-33.631 6.869 4.44 4.44 0 0 1-4.752 0 80.8 80.8 0 0 0-33.631-6.869 159 159 0 0 0-38.645 5.681 4.2 4.2 0 0 1-1.306.221h-.039c-2.3 0-4.191-1.892-4.191-4.19v-96.496c0-2.299 1.891-4.191 4.191-4.191h4.191v95.176a163.8 163.8 0 0 1 35.785-4.543 89.9 89.9 0 0 1 29.65 4.661 63.6 63.6 0 0 0-20.289-11.018c-9.139-3.004-23.082-4.009-33.279-3.134q-.203.019-.405.02a4.21 4.21 0 0 1-4.178-3.846 7 7 0 0 1 0-.718Zm120.845-86.833c-9.688-.914-23.579.157-32.287 3.46a39.17 39.17 0 0 0-19.753 15.419v78.673a100.2 100.2 0 0 1 21.829-11.306 82 82 0 0 1 30.211-3.747zm-60.422 96.743v-77.982c-4.387-7.742-11.476-12.912-19.493-15.98-9.139-3.486-23.174-4.269-32.065-3.003l-.469 82.982c9.7-.353 23.095.888 32.012 3.799a71.8 71.8 0 0 1 20.015 10.184Z" style="fill:#fff000;fill-rule:nonzero;stroke:#fff000;stroke-width:3.1px"/><path d="M82.466 145.294c11.909-.374 22.502 1.333 30.484 7.176m60.524-7.176c-11.909-.374-22.503 1.333-30.484 7.176m-60.524 14.604c11.909-.374 22.502 1.333 30.484 7.175m60.524-7.175c-11.909-.374-22.503 1.333-30.484 7.175m-60.524-50.734c11.909-.375 22.502 1.332 30.484 7.175m60.524-7.175c-11.909-.375-22.503 1.332-30.484 7.175" style="fill:none;stroke:#7779e0;stroke-width:5.6px;stroke-linecap:round;stroke-miterlimit:1.5"/><circle cx="128" cy="89.018" r="40.91" style="fill:#fff"/><path d="M128 41.001c26.502 0 48.018 21.515 48.018 48.017S154.502 137.035 128 137.035c-26.501 0-48.018-21.516-48.018-48.017S101.499 41.001 128 41.001m0 14.213c-18.656 0-33.803 15.148-33.803 33.804s15.147 33.803 33.803 33.803c18.657 0 33.803-15.147 33.803-33.803S146.657 55.214 128 55.214" style="fill:#7779e0"/><circle cx="128.685" cy="71.907" r="6.353" style="fill:#3d55a5"/><path d="M128.685 86.835v20.977h-6.286 12.705m-12.705-20.977h6.286" style="fill:none;stroke:#3d55a5;stroke-width:5.6px;stroke-linecap:round;stroke-miterlimit:1.5"/></svg>