<svg xmlns="http://www.w3.org/2000/svg" xml:space="preserve" style="fill-rule:evenodd;clip-rule:evenodd;stroke-linejoin:round;stroke-miterlimit:2" viewBox="0 0 256 256"><path d="M256 64v128c0 35.322-28.678 64-64 64H64c-35.322 0-64-28.678-64-64V64C0 28.678 28.678 0 64 0h128c35.322 0 64 28.678 64 64" style="fill:#191763"/><path d="m218.414 119.621-28.357-28.357V58.506c0-5.923-4.8-10.723-10.732-10.723-5.918 0-10.718 4.8-10.718 10.723v11.309L147.493 48.7c-10.439-10.434-28.589-10.415-39.005.018l-70.903 70.903c-4.186 4.194-4.186 10.98 0 15.167 4.187 4.193 10.986 4.193 15.172 0l70.897-70.904c2.31-2.297 6.381-2.297 8.678-.007l70.91 70.911a10.7 10.7 0 0 0 7.584 3.14c2.746 0 5.492-1.044 7.588-3.14 4.188-4.187 4.188-10.973 0-15.167" style="fill:#fff000;fill-rule:nonzero"/><path d="M131.725 84.239a5.265 5.265 0 0 0-7.45 0l-62.367 62.349a5.28 5.28 0 0 0-1.543 3.73v45.475c0 10.671 8.652 19.323 19.323 19.323h30.878v-47.82h34.861v47.82h30.879c10.67 0 19.322-8.652 19.322-19.322v-45.476a5.26 5.26 0 0 0-1.543-3.73z" style="fill:#fff000;fill-rule:nonzero"/></svg>