<svg xmlns="http://www.w3.org/2000/svg" xml:space="preserve" style="fill-rule:evenodd;clip-rule:evenodd;stroke-linejoin:round;stroke-miterlimit:2" viewBox="0 0 256 256"><path d="M256 64v128c0 35.322-28.678 64-64 64H64c-35.322 0-64-28.678-64-64V64C0 28.678 28.678 0 64 0h128c35.322 0 64 28.678 64 64" style="fill:#191763"/><path d="M202.233 64.102H116.55c-12.781 0-23.171 8.545-23.171 19.037v8.168H51.888c-11.757 0-21.293 7.861-21.293 17.533v54.068c0 9.672 9.536 17.534 21.293 17.534h8.271l28.059 26.145a3.35 3.35 0 0 0 2.324.923c.47.008.936-.085 1.367-.274a3.47 3.47 0 0 0 2.051-3.144v-23.65h35.236c11.757 0 21.292-7.861 21.292-17.534v-.786h5.469v26.522a3.43 3.43 0 0 0 2.085 3.144 3 3 0 0 0 1.333.274 3.55 3.55 0 0 0 2.358-.889l31.203-29.05h9.297c12.782 0 23.172-8.545 23.172-19.071V83.139c0-10.492-10.39-19.037-23.172-19.037Zm-58.58 98.807c0 5.81-6.63 10.697-14.457 10.697H90.542a3.434 3.434 0 0 0-3.418 3.417v19.208l-23.309-21.702a3.42 3.42 0 0 0-2.324-.923h-9.603c-7.964 0-14.457-4.785-14.457-10.697V108.84c0-5.878 6.493-10.697 14.457-10.697h41.491v44.909c0 10.526 10.39 19.071 23.172 19.071h27.102zm74.916-19.857c0 6.733-7.348 12.235-16.336 12.235H191.57a3.47 3.47 0 0 0-2.325.888l-26.453 24.642V158.67a3.4 3.4 0 0 0-3.383-3.383H116.55c-8.988 0-16.336-5.502-16.336-12.236V83.139c0-6.733 7.348-12.201 16.336-12.201h85.683c8.988 0 16.337 5.468 16.337 12.201v59.913Z" style="fill:#fff000;fill-rule:nonzero;stroke:#fff000;stroke-width:6.61px"/><path d="M150.646 137.055H123.46v-8.231h7.607V98.865h-7.606l-.001-8.231h27.185v8.231h-7.607v29.959h7.607zm46.078-37.442h-14.496v37.442h-11.972V99.613H155.76v-8.978l40.964-.001z" style="fill:#fff;fill-rule:nonzero"/></svg>