<svg xmlns="http://www.w3.org/2000/svg" xml:space="preserve" style="fill-rule:evenodd;clip-rule:evenodd;stroke-linejoin:round;stroke-miterlimit:2" viewBox="0 0 356 356"><path d="M355.556 88.889v177.778c0 49.059-39.83 88.889-88.889 88.889H88.889C39.83 355.556 0 315.726 0 266.667V88.889C0 39.83 39.83 0 88.889 0h177.778c49.059 0 88.889 39.83 88.889 88.889" style="fill:#191763"/><path d="M88.749-.183c174.053 118.519 170.975 237.037 0 355.556-49.06 0-88.889-39.83-88.889-88.889V88.706C-.14 39.647 39.689-.183 88.749-.183" style="fill:#262292"/><path d="m190.584 267.595-30.888-111.298 46.578-51.154-32.85-12.584-64.066 61.123V77.359l-37.916 9.643v179.285l37.916 1.308-.326-62.758 23.37-22.554 24.679 85.312z" style="fill:#fff000;fill-rule:nonzero"/><path d="m254.065 290.546 19.612-11.604-8.335-24.024h-21.9l-9.316 21.9zM216.966 65.009l41.185 177.325 25.822-164.577z" style="fill:#fff;fill-rule:nonzero"/></svg>