<svg xmlns="http://www.w3.org/2000/svg" xml:space="preserve" style="fill-rule:evenodd;clip-rule:evenodd;stroke-linejoin:round;stroke-miterlimit:2" viewBox="0 0 256 256"><path d="M256 64v128c0 35.322-28.678 64-64 64H64c-35.322 0-64-28.678-64-64V64C0 28.678 28.678 0 64 0h128c35.322 0 64 28.678 64 64" style="fill:#191763"/><path d="M63.121 0c123.596 85.334 121.41 170.666 0 256C28.283 256 0 227.322 0 192V64C0 28.678 28.283 0 63.121 0" style="fill:#262292"/><path d="m137.26 192.588-22.212-80.035 33.494-36.785-23.622-9.049-46.07 43.954V55.789l-27.266 6.934v128.924l27.266.941-.235-45.129 16.806-16.219 17.746 61.348z" style="fill:#fff000;fill-rule:nonzero"/><path d="m182.909 209.092 14.103-8.344-5.994-17.276H175.27l-6.699 15.748zM156.231 46.908l29.616 127.515 18.569-118.348z" style="fill:#fff;fill-rule:nonzero"/></svg>