<svg xmlns="http://www.w3.org/2000/svg" xml:space="preserve" style="fill-rule:evenodd;clip-rule:evenodd;stroke-linejoin:round;stroke-miterlimit:2" viewBox="0 0 3508 2481"><path d="M2404.78 1435.81c-155.565 83.027-386.904 135.684-644.956 135.684-264.651 0-501.205-55.384-656.74-142.112 182.995 36.238 415.184 59.499 667.709 59.499 237.259 0 456.566-20.533 633.987-53.071" style="fill:#fff"/><path d="M2381.63 834.218c267.306 63.064 441.213 157.106 441.213 231.087 0 122.775-478.961 222.453-1068.91 222.453-589.947 0-1068.91-99.678-1068.91-222.453 0-73.981 173.907-168.023 441.213-231.087 3.091 24.766 19.614 46.584 44.004 55.714 177.362 66.385 375.156 103.561 583.691 103.561s406.329-37.176 583.691-103.561c24.39-9.13 40.913-30.948 44.004-55.714Zm-1066.19 203.637c-32.379 0-58.666 26.288-58.666 58.667s26.287 58.666 58.666 58.666 58.667-26.287 58.667-58.666-26.288-58.667-58.667-58.667m876.99 0c-32.379 0-58.667 26.288-58.667 58.667s26.288 58.666 58.667 58.666 58.666-26.287 58.666-58.666-26.287-58.667-58.666-58.667m-438.495 35.668c-32.379 0-58.667 26.288-58.667 58.667s26.288 58.666 58.667 58.666 58.667-26.287 58.667-58.666-26.288-58.667-58.667-58.667" style="fill:#fff000"/><path d="M1753.94 2143.99c-3.633-.431-7.344-.43-10.899-1.293-1.346-.327-10.477-2.544-14.956-8.73-2.289-3.161-2.228-5.814-2.215-6.353 3.679-159.679 7.79-319.348 11.685-479.023.024-1.007.165-6.759 4.978-11.572 1.474-1.474 3.248-2.709 5.169-3.52.016-.007 6.24-1.295 6.248-1.293 2.076.43 4.275.468 6.228 1.293 1.921.811 3.695 2.046 5.169 3.52 4.795 4.795 4.951 10.556 4.978 11.562 4.31 159.664 7.79 319.349 11.685 479.023.02.827.119 4.886-4.811 9.145-4.742 4.097-11.294 5.689-12.36 5.948-.008.002-10.895 1.293-10.899 1.293M2382.72 2077.61c-3.362 1.443-6.575 3.3-10.086 4.33-1.329.39-10.345 3.035-17.317-.083-3.563-1.593-4.836-3.921-5.095-4.393-76.653-140.126-152.928-280.46-229.392-420.689-.482-.885-3.236-5.936-1.475-12.511.54-2.013 1.459-3.97 2.717-5.633.01-.014 4.756-4.241 4.764-4.244 2.013-.666 3.937-1.732 6.041-1.994 2.068-.258 4.223-.076 6.236.464 6.55 1.755 9.565 6.666 10.092 7.524 83.564 136.118 166.421 272.669 249.631 409.004.431.705 2.546 4.171.406 10.325-2.058 5.919-6.936 10.573-7.73 11.331zM1125.16 2077.61c-2.93-2.19-6.145-4.044-8.792-6.569-1.002-.957-7.801-7.442-8.587-15.039-.402-3.881.978-6.149 1.258-6.609 83.025-136.447 166.42-272.669 249.631-409.003.525-.861 3.522-5.771 10.097-7.533 2.013-.54 4.168-.722 6.236-.464.018.002 6.052 1.999 6.058 2.004 1.583 1.411 3.468 2.543 4.747 4.234 1.258 1.663 2.177 3.62 2.717 5.633 1.755 6.55-.991 11.617-1.471 12.502-76.099 140.428-152.927 280.459-229.391 420.689-.396.726-2.34 4.291-8.739 5.514-6.156 1.177-12.625-.72-13.678-1.029z" style="fill:#fff"/><path d="M2816.89 1155.11c3.935 8.371 5.953 16.573 5.953 24.542 0 122.775-478.961 249.73-1068.91 249.73-589.947 0-1068.91-126.955-1068.91-249.73 0-7.969 2.018-16.171 5.953-24.542 56.692 111.7 511.301 198.858 1062.95 198.858 551.654 0 1006.26-87.158 1062.95-198.858Z" style="fill:#fff000"/><path d="M1226 821.81c44.324-266.427 263.979-469.095 527.935-469.095s483.612 202.668 527.935 469.095c-160.415 63.651-339.325 99.211-527.935 99.211s-367.52-35.56-527.935-99.211m322.12-363.005c-87.628 42.619-176.032 133.649-229.345 257.115-7.001 16.213.478 35.059 16.691 42.059 16.212 7.001 35.058-.478 42.059-16.69 46.429-107.525 122.27-187.82 198.584-224.937 15.881-7.724 22.503-26.888 14.779-42.768-7.724-15.881-26.888-22.503-42.768-14.779" style="fill:#fff"/></svg>