<svg xmlns="http://www.w3.org/2000/svg" xml:space="preserve" style="fill-rule:evenodd;clip-rule:evenodd;stroke-linejoin:round;stroke-miterlimit:2" viewBox="0 0 321 269"><path d="M257.637 162.259c-23.305 12.438-57.962 20.326-96.621 20.326-39.647 0-75.085-8.297-98.386-21.289 27.414 5.428 62.199 8.913 100.029 8.913 35.544 0 68.399-3.076 94.978-7.95" style="fill:#fff"/><path d="M254.169 72.134c40.045 9.448 66.098 23.536 66.098 34.619 0 18.393-71.753 33.326-160.133 33.326S0 125.146 0 106.753C0 95.67 26.053 81.582 66.098 72.134a10.28 10.28 0 0 0 6.592 8.347c26.571 9.945 56.203 15.514 87.443 15.514 31.241 0 60.872-5.569 87.443-15.514a10.27 10.27 0 0 0 6.592-8.347zM94.443 102.641c-4.851 0-8.789 3.938-8.789 8.789s3.938 8.789 8.789 8.789 8.789-3.938 8.789-8.789-3.938-8.789-8.789-8.789m131.382 0c-4.851 0-8.789 3.938-8.789 8.789s3.938 8.789 8.789 8.789 8.789-3.938 8.789-8.789-3.939-8.789-8.789-8.789m-65.691 5.343c-4.851 0-8.789 3.939-8.789 8.789 0 4.851 3.938 8.789 8.789 8.789s8.789-3.938 8.789-8.789-3.938-8.789-8.789-8.789" style="fill:#fff000"/><path d="M160.133 268.351c-.545-.064-1.101-.064-1.633-.194-.202-.049-1.57-.381-2.241-1.307-.343-.474-.334-.871-.332-.952.552-23.922 1.167-47.842 1.751-71.763.004-.151.025-1.012.746-1.733a2.5 2.5 0 0 1 .774-.528c.002-.001.935-.194.936-.193.311.064.641.07.933.193.288.122.554.307.774.528a2.56 2.56 0 0 1 .746 1.732c.646 23.919 1.167 47.842 1.751 71.762.003.124.018.732-.721 1.37-.71.614-1.692.853-1.852.891zm94.197-9.944c-.503.216-.985.494-1.511.648-.199.059-1.55.455-2.594-.012-.534-.239-.725-.587-.763-.658-11.484-20.992-22.91-42.016-34.366-63.024a2.56 2.56 0 0 1-.221-1.874c.081-.301.219-.595.407-.844l.714-.636c.302-.099.59-.259.905-.298.31-.039.633-.012.934.069.982.263 1.433.999 1.512 1.127 12.519 20.392 24.932 40.849 37.398 61.273.064.106.381.625.06 1.547-.308.887-1.039 1.584-1.158 1.698zm-188.395 0c-.439-.328-.921-.606-1.317-.984-.15-.144-1.169-1.115-1.287-2.253-.06-.582.147-.922.189-.991 12.438-20.441 24.931-40.848 37.397-61.272.079-.129.528-.865 1.513-1.129.301-.081.624-.108.934-.069l.908.3c.237.211.519.381.711.634.188.249.326.543.407.844.263.981-.149 1.74-.221 1.873-11.4 21.038-22.91 42.016-34.365 63.023-.059.109-.35.643-1.309.827-.922.176-1.891-.108-2.049-.155z" style="fill:#fff"/><path d="M319.375 120.207c.59 1.254.892 2.483.892 3.677 0 18.392-71.753 37.412-160.133 37.412S0 142.276 0 123.884c0-1.194.302-2.423.892-3.677 8.493 16.734 76.598 29.791 159.24 29.791 82.644 0 150.748-13.057 159.241-29.791z" style="fill:#fff000"/><path d="M81.044 70.275C87.684 30.362 120.59 0 160.134 0c39.543 0 72.449 30.362 79.09 70.275-24.032 9.536-50.835 14.863-79.09 14.863s-55.059-5.327-79.09-14.863M129.3 15.893c-13.127 6.385-26.371 20.022-34.358 38.519a4.796 4.796 0 0 0 2.501 6.301 4.795 4.795 0 0 0 6.3-2.501c6.956-16.108 18.318-28.137 29.75-33.698a4.794 4.794 0 0 0-4.193-8.621" style="fill:#fff"/></svg>