<svg xmlns="http://www.w3.org/2000/svg" xml:space="preserve" style="fill-rule:evenodd;clip-rule:evenodd;stroke-linejoin:round;stroke-miterlimit:2" viewBox="0 0 356 356"><path d="M355.556 88.889v177.778c0 49.059-39.83 88.889-88.889 88.889H88.889C39.83 355.556 0 315.726 0 266.667V88.889C0 39.83 39.83 0 88.889 0h177.778c49.059 0 88.889 39.83 88.889 88.889" style="fill:#191763"/><path d="M88.749-.183c174.053 118.519 170.975 237.037 0 355.556-49.06 0-88.889-39.83-88.889-88.889V88.706C-.14 39.647 39.689-.183 88.749-.183" style="fill:#262292"/><path d="m177.284 54.861 8.837 28.396-98.077 26.279-7.655-28.569z" style="fill:#fff000"/><path d="m177.367 54.861-7.932 28.396 98.077 26.279 7.655-28.569z" style="fill:#fff"/><path d="m182.294 281.203-7.655 28.569-76.453-20.485 7.656-28.569z" style="fill:#fff000"/><path d="m173.262 281.203 7.655 28.569 76.452-20.485-7.655-28.569z" style="fill:#fff"/><path d="m127.672 286.742-29.469 2.52L80.389 80.894l29.469-2.519z" style="fill:#fff000"/><path d="m227.884 286.742 29.469 2.52 17.814-208.368-29.47-2.519zM186.612 279.854l.433 28.296-9.433 2.767.229-30.775zM182.75 57.107l.432 28.297-5.57.21V54.861z" style="fill:#fff"/><path d="m172.475 57.107-4.945 28.507h10.082l-.252-30.753zM169.093 279.95l-.434 28.296 9.105 2.671.1-30.678zM177.612 129.346v135.672l-41.888-10.785-10.608-138.783z" style="fill:#fff000"/><path d="m228.636 115.45-1.58 19.352-49.452 15.415v-20.868z" style="fill:#fff"/><path d="m215.316 255.431-19.799 8.199 10.518-139.323h21.849z" style="fill:#fff"/></svg>