<svg xmlns="http://www.w3.org/2000/svg" xml:space="preserve" style="fill-rule:evenodd;clip-rule:evenodd;stroke-linejoin:round;stroke-miterlimit:2" viewBox="0 0 256 256"><path d="M256 64v128c0 35.322-28.678 64-64 64H64c-35.322 0-64-28.678-64-64V64C0 28.678 28.678 0 64 0h128c35.322 0 64 28.678 64 64" style="fill:#191763"/><path d="M63.121 0c123.596 85.334 121.41 170.666 0 256C28.283 256 0 227.322 0 192V64C0 28.678 28.283 0 63.121 0" style="fill:#262292"/><path d="m127.645 41.421 6.354 20.419-70.527 18.897-5.505-20.544z" style="fill:#fff000"/><path d="m127.704 41.421-5.703 20.419 70.527 18.897 5.505-20.544z" style="fill:#fff"/><path d="m131.247 204.183-5.504 20.544-54.978-14.73 5.506-20.544z" style="fill:#fff000"/><path d="m124.753 204.183 5.504 20.544 54.977-14.73-5.505-20.544z" style="fill:#fff"/><path d="m91.969 208.167-21.191 1.812L57.967 60.141l21.192-1.811z" style="fill:#fff000"/><path d="m164.031 208.167 21.191 1.812 12.811-149.838-21.192-1.811zm-29.678-4.954.311 20.348-6.783 1.99.164-22.131zm-2.778-160.177.311 20.348-4.005.151V41.421z" style="fill:#fff"/><path d="m124.187 43.036-3.556 20.499h7.25l-.182-22.114zm-2.432 160.246-.312 20.348 6.547 1.921.072-22.061zm6.126-108.299v97.562l-30.122-7.756-7.628-99.799z" style="fill:#fff000"/><path d="m164.572 84.99-1.136 13.916-35.561 11.085V94.985z" style="fill:#fff"/><path d="m154.994 185.651-14.238 5.896 7.564-100.188h15.711z" style="fill:#fff"/></svg>