<svg xmlns="http://www.w3.org/2000/svg" xml:space="preserve" style="fill-rule:evenodd;clip-rule:evenodd;stroke-linecap:round;stroke-linejoin:round;stroke-miterlimit:1.5" viewBox="0 0 356 356"><path d="M355.556 88.889v177.778c0 49.059-39.83 88.889-88.889 88.889H88.889C39.83 355.556 0 315.726 0 266.667V88.889C0 39.83 39.83 0 88.889 0h177.778c49.059 0 88.889 39.83 88.889 88.889" style="fill:#191763"/><path d="M88.749-.183c174.053 118.519 170.975 237.037 0 355.556-49.06 0-88.889-39.83-88.889-88.889V88.706C-.14 39.647 39.689-.183 88.749-.183" style="fill:#262292"/><path d="M60.391 77.423v160.803a3.91 3.91 0 0 0 2.767 3.741l75.491 23.118V96.099l-73.2-22.418c-2.514-.769-5.058 1.111-5.058 3.742M290.105 263.537c2.515.77 5.058-1.111 5.058-3.742V98.993a3.91 3.91 0 0 0-2.767-3.742c-79.157-24.242-73.795-22.76-75.49-22.76v168.808c.913 0-3.796-1.342 73.199 22.238" style="fill:#a4c9ff;fill-rule:nonzero"/><path d="M216.906 72.491c-1.694 0 3.936-1.564-78.257 23.608v168.986c82.448-25.25 77.345-23.787 78.257-23.787z" style="fill:#a4c9ff;fill-rule:nonzero"/><path d="m84.72 91.86-10.06-3.082a1.957 1.957 0 0 0-2.53 1.871v140.343c0 .859.561 1.618 1.383 1.87 62.699 19.201 49.985 15.27 65.136 20.078V107.837zM205.167 88.004l11.739-3.318V228.81l-78.257 24.13V107.837z" style="fill:#4671c6;fill-rule:nonzero"/><path d="m270.834 244.738 10.061 3.061c1.258.383 2.53-.551 2.53-1.858V106.494c0-2.05 2.42-.701-54.781-18.106l-11.738-3.702v144.176l53.928 15.875Z" style="fill:#4671c6;fill-rule:nonzero"/><path d="M120.715 117.301a4.48 4.48 0 0 0-3.114-4.263l-8.761-2.796a4.474 4.474 0 0 0-5.246 2.042c-1.668 2.918-1.879 3.526-2.857 4.259-.223.167-12.22 9.174-12.447 9.319-8.686 5.526-10.616 6.054-10.616 9.212 0 8.257-.265 8.932.908 10.48 6.061 8.001 6.593 9.562 9.468 9.562 2.65 0 5.376-.431 6.86 2.393 3.295 6.27 3.914 8.774 7.314 8.774a4.47 4.47 0 0 1 4.237 2.946l.792 2.179a4.475 4.475 0 0 0 4.206 2.945c2.915 0 6.47.553 7.649-3.097 2.34-7.237 4.557-3.759 7.586-5.653 2.508-1.566 4.359-3.203 7.04-1.833 3.284 1.68 4.515 2.644 6.675 1.948 6.917-2.222 9.539-2.403 10.092-5.808 1.484-9.154 1.41-9.089 1.696-9.81l3.766-9.526a4.475 4.475 0 0 0-2.398-5.758c-1.279-.548-2.752-.992-3.555-2.866l-1.547-3.61a4.476 4.476 0 0 0-5.629-2.447c-1.779.64-3.857 1.748-6.108.08-5.207-3.856-6.304-5.219-8.857-4.672l-1.741.373c-2.786.6-5.413-1.523-5.413-4.373M280.895 247.799c1.258.383 2.53-.551 2.53-1.858v-75.026a3.6 3.6 0 0 0-.287-.524c-6.306-9.326-4.33-6.883-9.748-12.076a3.56 3.56 0 0 0-5.577.842c-1.305 2.346-3.126 1.833-10.82 1.833-1.299 0-.381-.321-16.006 8.723-3.66 2.119-6.562-3.425-9.827-3.425-3.113 0-5.942-.496-6.9 2.466-2.117 6.549-1.184 5.05-4.846 8.282a3.56 3.56 0 0 1-4.874-.153l-4.825-4.824a3.56 3.56 0 0 0-5.582.703c-3.652 6.163-1.73 3.766-7.771 9.505a3.56 3.56 0 0 0-.934 3.686c4.334 13.312 3.064 11.526 7.393 13.45 2.876 1.278 2.04 4.191 1.737 7.332a3.56 3.56 0 0 1-4.15 3.167c-7.452-1.285-3.559-1.52-17.018 1.924-3.09.79-2.679 3.966-2.679 5.193 0 5.92-11.086 2.672-11.086 8.591 0 11.591-1.354 9.107 9.276 13.976 1.707.782-.483 1.096 38.004-10.771v.052c62.101 18.276 50.97 14.97 63.99 18.932" style="fill:#6bdddd;fill-rule:nonzero"/><circle cx="113.625" cy="153" r="6.462" style="fill:#ffea92"/><path d="m115.428 167.722-1.264-4.725c-.501-1.873 2.332-2.632 2.835-.758l1.264 4.724c.502 1.871-2.33 2.635-2.835.759M142.797 203.005a1.46 1.46 0 0 1 1.44-1.202c.013 0 1.213.197 2.173.197q.306 0 .614-.017l6.599-.39c2.023 0 2.026 2.82.169 2.93-6.275.371-11.495 1.206-10.995-1.518m18.729-1.477a1.465 1.465 0 0 1 .336-2.047c1.235-.887 1.368-1.153 6.268-6.666 1.283-1.445 3.483.5 2.194 1.95-4.538 5.104-7.241 8.93-8.798 6.763m-26.238-2.49c-.971-1.435-1.069-1.869-4.014-8.907a1.467 1.467 0 1 1 2.707-1.132c2.993 7.148 2.982 7.279 3.737 8.395 1.082 1.595-1.339 3.255-2.43 1.644m77.21-9.808a1.48 1.48 0 0 1 1.591-1.337c3.167.273 2.538.275 8.922-1.095 1.925-.411 2.487 2.467.615 2.87-3.252.698-11.409 2.847-11.128-.438m-17.574-.04c-1.921-.166-1.689-3.074.25-2.923l9.457.814c1.845.16 1.73 2.929-.123 2.929-.105-.001-9.481-.811-9.584-.82m-19.255-2.98c3.645-1.584 6.16-1.092 10.05-.757 1.914.166 1.696 3.095-.251 2.923-3.463-.298-5.62-.783-8.63.525-1.781.773-2.939-1.925-1.169-2.691m65.967 1.735c-4.429-.974-4.529-1.167-8.729-.267a1.4 1.4 0 0 1-.31.033c-1.741 0-2.014-2.533-.305-2.902 4.789-1.025 5.408-.734 9.973.271 1.874.411 1.281 3.294-.629 2.865M126.4 183.244a10.6 10.6 0 0 0-1.644-.866c-2.896-1.212-8.327-5.679-5.74-7.295 2.203-1.371 1.86 2.492 6.871 4.587 1.645.689 3.512 1.632 2.541 3.136a1.467 1.467 0 0 1-2.028.438" style="fill:#e0ebfc;fill-rule:nonzero"/><path d="M268.009 180.73a2.91 2.91 0 0 0-3.943-1.177l-9.039 4.882-4.882-9.038a2.91 2.91 0 0 0-5.121 2.765l4.882 9.039-9.039 4.882a2.91 2.91 0 1 0 2.767 5.12l9.039-4.882 4.882 9.039a2.91 2.91 0 0 0 3.943 1.178 2.91 2.91 0 0 0 1.178-3.944l-4.882-9.038 9.039-4.883a2.91 2.91 0 0 0 1.176-3.943" style="fill:red;fill-rule:nonzero"/><path d="M138.649 267.043c-.192 0-.386-.028-.573-.086l-75.491-23.12a5.84 5.84 0 0 1-4.15-5.611V77.423c0-1.881.867-3.601 2.38-4.719a5.81 5.81 0 0 1 5.209-.893l73.197 22.418a1.96 1.96 0 0 1 1.384 1.87v168.987a1.96 1.96 0 0 1-1.956 1.957M64.298 75.465c-.412 0-.815.131-1.157.385a1.94 1.94 0 0 0-.794 1.573v160.803c0 .865.556 1.616 1.385 1.871l72.96 22.345V97.546L64.877 75.552a2 2 0 0 0-.579-.087M291.268 265.669a5.9 5.9 0 0 1-1.736-.263 90348 90348 0 0 1-45.958-14.087c-20.082-6.16-25.539-7.834-26.538-8.068l-.129.004a1.957 1.957 0 0 1-1.956-1.957V72.491c0-1.08.876-1.956 1.956-1.956l.112-.005c1.191-.083 1.187-.081 32.396 9.496 10.516 3.227 24.617 7.555 43.555 13.355a5.84 5.84 0 0 1 4.151 5.612v160.802a5.82 5.82 0 0 1-2.38 4.719 5.8 5.8 0 0 1-3.473 1.155m-72.406-25.94c2.613.719 9.002 2.679 25.859 7.85 10.577 3.244 25.337 7.772 45.956 14.087.6.182 1.232.074 1.736-.298s.793-.946.793-1.573V98.993c0-.866-.555-1.617-1.384-1.871-18.939-5.8-33.041-10.128-43.557-13.355-18.64-5.72-26.427-8.111-29.405-8.95v164.912z" style="fill:#3762cc;fill-rule:nonzero"/><path d="M138.649 267.043a1.96 1.96 0 0 1-1.957-1.957V96.099c0-.859.561-1.618 1.384-1.87a78519 78519 0 0 0 45.226-13.867c32.324-9.92 32.324-9.925 33.504-9.831l.1.004c1.08 0 1.957.876 1.957 1.956v168.807a1.96 1.96 0 0 1-2.085 1.953c-1.061.253-6.92 2.05-28.37 8.63-11.318 3.471-27.116 8.316-49.186 15.075a2 2 0 0 1-.573.087m1.956-169.497v164.896c20.754-6.357 35.774-10.964 46.655-14.301 18.157-5.568 24.952-7.653 27.689-8.406V74.819c-3.045.858-11.096 3.329-30.499 9.283a73170 73170 0 0 1-43.845 13.444" style="fill:#3762cc;fill-rule:nonzero"/><path d="M138.649 254.897q-.3 0-.592-.093l-4.818-1.532c-6.467-2.06-6.467-2.06-32.119-9.912l-28.179-8.627a3.895 3.895 0 0 1-2.767-3.742V90.649c0-1.253.577-2.4 1.586-3.146a3.88 3.88 0 0 1 3.472-.594l10.054 3.079 53.919 15.975c.83.245 1.4 1.008 1.4 1.875V252.94a1.956 1.956 0 0 1-1.956 1.957M74.086 90.649v140.342l28.18 8.628c25.672 7.857 25.672 7.857 32.16 9.925l2.266.721V109.299L84.165 93.736l-.017-.005zM281.48 249.844c-.384 0-.772-.057-1.154-.173l-10.055-3.06-53.918-15.873a1.955 1.955 0 0 1-1.404-1.876V84.686c0-.623.298-1.209.8-1.578a1.95 1.95 0 0 1 1.745-.287l11.739 3.701c13.278 4.04 23.352 7.073 30.984 9.37 11.94 3.594 17.933 5.398 20.952 6.477 2.703.965 4.336 1.716 4.217 3.991l-.005.134V245.94a3.86 3.86 0 0 1-1.578 3.13 3.88 3.88 0 0 1-2.323.774m-62.618-22.445 52.525 15.462.016.005 10.062 3.062.004-139.247c-1.774-.839-8.347-2.818-22.379-7.041a9936 9936 0 0 1-31.015-9.38l-9.213-2.906z" style="fill:#3762cc;fill-rule:nonzero"/><path d="M138.649 254.897a1.96 1.96 0 0 1-1.958-1.957V107.838c0-.865.569-1.628 1.398-1.875l66.519-19.834.026-.007 11.739-3.319a1.956 1.956 0 0 1 2.487 1.883V228.81c0 .858-.559 1.617-1.379 1.87l-78.258 24.129a2 2 0 0 1-.574.088m1.956-145.602v140.994l74.344-22.922V87.272l-9.237 2.611z" style="fill:#3762cc;fill-rule:nonzero"/><path d="M273.765 154.035c18.185 10.498 24.425 33.787 13.926 51.972s-33.787 24.425-51.972 13.926-24.425-33.788-13.926-51.973c10.499-18.184 33.787-24.425 51.972-13.925" style="fill:none;stroke:#fff000;stroke-width:14.99px"/><path d="m240.948 231.834-28.498 49.36a7.696 7.696 0 0 1-10.508 2.816l-4.827-2.786a7.697 7.697 0 0 1-2.816-10.509l28.498-49.36a7.697 7.697 0 0 1 10.509-2.815l4.826 2.786a7.696 7.696 0 0 1 2.816 10.508" style="fill:#fff000"/></svg>