<svg xmlns="http://www.w3.org/2000/svg" xml:space="preserve" style="fill-rule:evenodd;clip-rule:evenodd;stroke-linecap:round;stroke-linejoin:round;stroke-miterlimit:1.5" viewBox="0 0 256 256"><path d="M256 64v128c0 35.322-28.678 64-64 64H64c-35.322 0-64-28.678-64-64V64C0 28.678 28.678 0 64 0h128c35.322 0 64 28.678 64 64" style="fill:#191763"/><path d="M63.121 0c123.596 85.334 121.41 170.666 0 256C28.283 256 0 227.322 0 192V64C0 28.678 28.283 0 63.121 0" style="fill:#262292"/><path d="M43.587 55.839v115.634a2.82 2.82 0 0 0 1.99 2.69l54.285 16.624V69.269L47.224 53.148a2.814 2.814 0 0 0-3.637 2.691m165.187 133.835a2.814 2.814 0 0 0 3.638-2.691V71.35a2.82 2.82 0 0 0-1.99-2.691c-56.922-17.432-53.066-16.367-54.285-16.367v121.39c.657 0-2.73-.965 52.637 15.992" style="fill:#a4c9ff;fill-rule:nonzero"/><path d="M156.137 52.292c-1.218 0 2.83-1.124-56.275 16.977v121.518c59.289-18.157 55.619-17.105 56.275-17.105z" style="fill:#a4c9ff;fill-rule:nonzero"/><path d="m61.082 66.221-7.234-2.217a1.408 1.408 0 0 0-1.82 1.346v100.921c0 .617.404 1.163.995 1.344 45.087 13.808 35.944 10.981 46.839 14.438V77.71zm86.613-2.773 8.442-2.386v103.639l-56.275 17.352V77.71zm47.222 112.707 7.235 2.202a1.406 1.406 0 0 0 1.819-1.337V76.744c0-1.474 1.74-.504-39.393-13.02l-8.441-2.662v103.677z" style="fill:#4671c6;fill-rule:nonzero"/><path d="M86.966 84.515a3.23 3.23 0 0 0-2.239-3.065l-6.3-2.011a3.23 3.23 0 0 0-3.773 1.469c-1.199 2.098-1.351 2.535-2.054 3.062-.161.12-8.788 6.597-8.951 6.701-6.246 3.974-7.634 4.354-7.634 6.625 0 5.937-.19 6.423.653 7.536 4.359 5.754 4.741 6.876 6.808 6.876 1.906 0 3.866-.31 4.934 1.721 2.369 4.509 2.814 6.309 5.259 6.309a3.22 3.22 0 0 1 3.047 2.119l.569 1.567a3.22 3.22 0 0 0 3.025 2.117c2.096 0 4.653.398 5.5-2.227 1.683-5.204 3.277-2.703 5.455-4.065 1.804-1.126 3.135-2.303 5.063-1.318 2.361 1.208 3.247 1.901 4.8 1.401 4.974-1.598 6.859-1.728 7.257-4.177 1.067-6.582 1.014-6.535 1.22-7.054l2.708-6.85a3.233 3.233 0 0 0-1.725-4.141c-.919-.394-1.979-.713-2.556-2.061l-1.112-2.596a3.23 3.23 0 0 0-4.048-1.759c-1.28.46-2.774 1.257-4.393.057-3.744-2.773-4.533-3.753-6.369-3.359l-1.252.268a3.215 3.215 0 0 1-3.892-3.145m115.186 93.842a1.406 1.406 0 0 0 1.819-1.337v-53.951a2.5 2.5 0 0 0-.207-.377c-4.534-6.706-3.113-4.949-7.009-8.684a2.562 2.562 0 0 0-4.011.606c-.938 1.687-2.248 1.318-7.78 1.318-.935 0-.274-.231-11.51 6.273-2.632 1.524-4.719-2.463-7.067-2.463-2.239 0-4.273-.357-4.962 1.773-1.522 4.71-.851 3.632-3.485 5.956a2.57 2.57 0 0 1-3.504-.11l-3.47-3.469a2.56 2.56 0 0 0-4.014.505c-2.626 4.432-1.244 2.708-5.588 6.835a2.56 2.56 0 0 0-.672 2.651c3.117 9.573 2.203 8.288 5.316 9.672 2.069.919 1.467 3.014 1.25 5.272a2.57 2.57 0 0 1-2.985 2.278c-5.358-.924-2.559-1.093-12.237 1.383-2.222.568-1.927 2.852-1.927 3.735 0 4.257-7.972 1.921-7.972 6.177 0 8.335-.973 6.549 6.671 10.051 1.227.562-.348.788 27.328-7.746v.037c44.657 13.143 36.653 10.765 46.016 13.615" style="fill:#6bdddd;fill-rule:nonzero"/><circle cx="81.868" cy="110.186" r="4.647" style="fill:#ffea92"/><path d="m83.164 120.773-.909-3.398c-.36-1.347 1.677-1.892 2.039-.545l.909 3.397c.361 1.346-1.676 1.895-2.039.546m19.681 25.372c.09-.499.529-.865 1.036-.864.009 0 .872.141 1.562.141q.22 0 .442-.012l4.745-.28c1.455 0 1.457 2.028.122 2.107-4.513.266-8.266.867-7.907-1.092m13.468-1.062a1.054 1.054 0 0 1 .242-1.472c.888-.638.984-.829 4.507-4.794.923-1.039 2.505.36 1.578 1.403-3.263 3.67-5.207 6.421-6.327 4.863m-18.868-1.791c-.698-1.031-.768-1.344-2.886-6.405a1.053 1.053 0 0 1 .973-1.462c.425 0 .81.257.974.648 2.152 5.14 2.144 5.235 2.687 6.037.778 1.147-.963 2.341-1.748 1.182m55.522-7.053a1.07 1.07 0 0 1 1.144-.961c2.278.196 1.825.198 6.416-.787 1.384-.296 1.789 1.774.442 2.063-2.338.502-8.204 2.048-8.002-.315m-12.637-.028c-1.382-.12-1.215-2.211.179-2.102l6.801.585c1.327.115 1.244 2.106-.088 2.106-.076 0-6.818-.583-6.892-.589m-13.847-2.143c2.622-1.139 4.43-.785 7.227-.545 1.377.12 1.22 2.226-.18 2.102-2.49-.214-4.041-.563-6.206.378-1.281.556-2.113-1.384-.841-1.935m47.437 1.247c-3.185-.7-3.256-.839-6.277-.192a1 1 0 0 1-.223.024c-1.252 0-1.448-1.821-.219-2.087 3.444-.737 3.889-.527 7.172.195 1.347.296.921 2.369-.453 2.06m-82.866-3.38a7.7 7.7 0 0 0-1.182-.623c-2.083-.871-5.988-4.084-4.128-5.246 1.584-.986 1.338 1.792 4.941 3.299 1.183.495 2.526 1.173 1.827 2.255a1.054 1.054 0 0 1-1.458.315" style="fill:#e0ebfc;fill-rule:nonzero"/><path d="M192.885 130.127a2.1 2.1 0 0 0-2.835-.846l-6.5 3.51-3.511-6.499a2.09 2.09 0 0 0-1.832-1.082 2.1 2.1 0 0 0-2.093 2.092c0 .341.083.677.243.978l3.51 6.5-6.5 3.511a2.1 2.1 0 0 0-1.11 1.848c0 1.148.944 2.093 2.092 2.093.353 0 .699-.089 1.008-.259l6.5-3.511 3.511 6.5a2.1 2.1 0 0 0 2.835.847 2.095 2.095 0 0 0 .847-2.836l-3.51-6.499 6.5-3.511a2.103 2.103 0 0 0 .845-2.836" style="fill:red;fill-rule:nonzero"/><path d="M99.862 192.195q-.208 0-.412-.062l-54.285-16.626a4.21 4.21 0 0 1-2.985-4.034V55.839c0-1.353.624-2.59 1.712-3.394a4.18 4.18 0 0 1 3.746-.642l52.636 16.121c.589.181.994.729.995 1.345v121.519a1.416 1.416 0 0 1-1.407 1.407M46.396 54.431c-.296 0-.586.094-.832.277-.36.263-.572.685-.571 1.131v115.634c0 .622.4 1.162.996 1.345l52.466 16.068V70.309L46.813 54.493a1.4 1.4 0 0 0-.417-.062m163.215 136.776a4.3 4.3 0 0 1-1.249-.189 74211 74211 0 0 1-33.048-10.13c-14.441-4.43-18.365-5.634-19.084-5.802l-.092.003a1.414 1.414 0 0 1-1.407-1.407V52.292c0-.776.63-1.406 1.407-1.406l.08-.004c.857-.06.854-.058 23.296 6.829 7.562 2.32 17.702 5.433 31.321 9.603a4.21 4.21 0 0 1 2.985 4.036v115.633a4.19 4.19 0 0 1-1.712 3.393 4.17 4.17 0 0 1-2.497.831m-52.067-18.654c1.879.517 6.473 1.927 18.595 5.645 7.606 2.333 18.22 5.589 33.047 10.13.431.131.886.053 1.248-.214.363-.268.57-.68.57-1.131V71.35c0-.623-.399-1.163-.995-1.345-13.619-4.171-23.76-7.284-31.322-9.604-13.404-4.113-19.003-5.833-21.145-6.436v118.588z" style="fill:#3762cc;fill-rule:nonzero"/><path d="M99.862 192.195a1.416 1.416 0 0 1-1.407-1.407V69.269c0-.618.403-1.164.995-1.345q16.263-4.98 32.522-9.972c23.245-7.133 23.245-7.137 24.093-7.069l.072.003c.777 0 1.407.63 1.407 1.406v121.39a1.416 1.416 0 0 1-1.499 1.404c-.763.182-4.976 1.474-20.401 6.206-8.139 2.496-19.499 5.98-35.37 10.84a1.4 1.4 0 0 1-.412.063m1.407-121.886v118.577c14.924-4.571 25.725-7.884 33.55-10.284 13.056-4.004 17.943-5.503 19.911-6.044V53.966c-2.19.617-7.979 2.394-21.932 6.676a49804 49804 0 0 1-31.529 9.667" style="fill:#3762cc;fill-rule:nonzero"/><path d="M99.862 183.461q-.215 0-.425-.067l-3.465-1.102c-4.65-1.481-4.65-1.481-23.097-7.128l-20.263-6.203a2.81 2.81 0 0 1-1.99-2.691V65.35a2.79 2.79 0 0 1 1.14-2.263 2.8 2.8 0 0 1 2.497-.427l7.23 2.214 38.773 11.488a1.405 1.405 0 0 1 1.007 1.348v104.344c0 .772-.635 1.407-1.407 1.407M53.435 65.35v100.92l20.264 6.204c18.461 5.65 18.461 5.65 23.127 7.137l1.629.519V78.761L60.683 67.57l-.012-.004zm149.137 114.477a2.9 2.9 0 0 1-.83-.124l-7.23-2.201-38.773-11.414a1.41 1.41 0 0 1-1.009-1.349V61.062a1.403 1.403 0 0 1 1.83-1.341l8.441 2.661a7432 7432 0 0 0 22.281 6.738c8.586 2.584 12.896 3.882 15.067 4.658 1.943.694 3.118 1.234 3.032 2.87l-.004.096V177.02a2.77 2.77 0 0 1-1.134 2.25 2.8 2.8 0 0 1-1.671.557m-45.028-16.14 37.77 11.119.012.003 7.235 2.202.003-100.133c-1.275-.603-6.002-2.026-16.092-5.063a6895 6895 0 0 1-22.303-6.745l-6.625-2.09z" style="fill:#3762cc;fill-rule:nonzero"/><path d="M99.862 183.461a1.417 1.417 0 0 1-1.408-1.408V77.71c0-.622.409-1.17 1.006-1.348l47.833-14.263.019-.005 8.442-2.386a1.403 1.403 0 0 1 1.788 1.353v103.64c0 .617-.402 1.163-.992 1.345l-56.275 17.351a1.5 1.5 0 0 1-.413.064m1.407-104.703v101.389l53.461-16.483V62.921l-6.643 1.878z" style="fill:#3762cc;fill-rule:nonzero"/><path d="M197.024 110.931c13.077 7.549 17.564 24.296 10.015 37.373-7.55 13.077-24.297 17.564-37.374 10.014-13.076-7.55-17.564-24.297-10.014-37.374 7.55-13.076 24.297-17.564 37.373-10.013" style="fill:none;stroke:#fff000;stroke-width:10.78px"/><path d="m173.426 166.876-20.493 35.495c-1.518 2.627-4.928 3.541-7.557 2.025l-3.471-2.004c-2.627-1.518-3.541-4.928-2.025-7.557l20.493-35.494c1.519-2.627 4.929-3.541 7.557-2.025l3.471 2.004c2.627 1.518 3.54 4.928 2.025 7.556" style="fill:#fff000"/></svg>