<svg xmlns="http://www.w3.org/2000/svg" xml:space="preserve" style="fill-rule:evenodd;clip-rule:evenodd;stroke-linejoin:round;stroke-miterlimit:2" viewBox="0 0 256 256"><path d="M256 64v128c0 35.322-28.678 64-64 64H64c-35.322 0-64-28.678-64-64V64C0 28.678 28.678 0 64 0h128c35.322 0 64 28.678 64 64" style="fill:#191763"/><path d="M63.121 0c123.596 85.334 121.41 170.666 0 256C28.283 256 0 227.322 0 192V64C0 28.678 28.283 0 63.121 0" style="fill:#262292"/><path d="M166.612 64.527c-2.198-7.481-9.111-12.655-16.909-12.656h-5.144a17.62 17.62 0 0 0-17.333 14.441l-8.811 48.012 2.186-7.48c2.191-7.492 9.11-12.678 16.915-12.679h29.895l12.538 4.884 12.086-4.884h-3.527c-7.798 0-14.711-5.175-16.909-12.657z" style="fill:url(#a);fill-rule:nonzero"/><path d="M91.2 191.401c2.172 7.517 9.104 12.728 16.929 12.728h10.926c9.557 0 17.371-7.616 17.616-17.17l1.19-46.295-2.489 8.501c-2.193 7.488-9.11 12.67-16.912 12.671H88.316l-10.747-5.83-11.634 5.83h3.468c7.825-.001 14.757 5.211 16.929 12.728z" style="fill:url(#b);fill-rule:nonzero"/><path d="M148.938 51.871H87.885c-17.444 0-27.91 23.054-34.888 46.108-8.266 27.313-19.083 63.842 12.211 63.842h26.363c7.85.005 14.801-5.235 16.958-12.783 4.584-16.035 12.616-44.008 18.925-65.303 3.207-10.821 5.878-20.114 9.977-25.902 2.298-3.245 6.128-5.962 11.507-5.962" style="fill:url(#c);fill-rule:nonzero"/><path d="M107.062 204.129h61.053c17.444 0 27.91-23.058 34.888-46.116 8.266-27.317 19.083-63.853-12.211-63.853h-26.361c-7.851-.005-14.803 5.236-16.96 12.784-4.583 16.038-12.616 44.017-18.926 65.315-3.206 10.824-5.877 20.119-9.975 25.908-2.298 3.245-6.128 5.962-11.508 5.962" style="fill:url(#d);fill-rule:nonzero"/><defs><radialGradient id="a" cx="0" cy="0" r="1" gradientTransform="rotate(230.696 117.833 14.42)scale(65.8645 61.9335)" gradientUnits="userSpaceOnUse"><stop offset="0" style="stop-color:#00aeff;stop-opacity:1"/><stop offset=".1" style="stop-color:#00aeff;stop-opacity:1"/><stop offset=".77" style="stop-color:#2253ce;stop-opacity:1"/><stop offset="1" style="stop-color:#0736c4;stop-opacity:1"/></radialGradient><radialGradient id="b" cx="0" cy="0" r="1" gradientTransform="rotate(51.84 -126.722 162.039)scale(60.87 59.0455)" gradientUnits="userSpaceOnUse"><stop offset="0" style="stop-color:#fff;stop-opacity:1"/><stop offset="1" style="stop-color:#fff;stop-opacity:1"/></radialGradient><radialGradient id="d" cx="0" cy="0" r="1" gradientTransform="rotate(109.274 67.373 110.512)scale(146.12 175.0472)" gradientUnits="userSpaceOnUse"><stop offset="0" style="stop-color:#7779e0;stop-opacity:1"/><stop offset=".07" style="stop-color:#8c48ff;stop-opacity:1"/><stop offset=".5" style="stop-color:#7779e0;stop-opacity:1"/><stop offset="1" style="stop-color:#7779e0;stop-opacity:1"/></radialGradient><linearGradient id="c" x1="0" x2="1" y1="0" y2="0" gradientTransform="rotate(85.06 6.58 78.51)scale(101.15274)" gradientUnits="userSpaceOnUse"><stop offset="0" style="stop-color:#ffd600;stop-opacity:1"/><stop offset=".16" style="stop-color:#e1d10d;stop-opacity:1"/><stop offset=".49" style="stop-color:#ffe400;stop-opacity:1"/><stop offset=".65" style="stop-color:#ffe200;stop-opacity:1"/><stop offset=".94" style="stop-color:#ffc800;stop-opacity:1"/><stop offset="1" style="stop-color:#ffc800;stop-opacity:1"/></linearGradient></defs></svg>