<svg xmlns="http://www.w3.org/2000/svg" xml:space="preserve" style="fill-rule:evenodd;clip-rule:evenodd;stroke-linejoin:round;stroke-miterlimit:2" viewBox="0 0 356 356"><path d="M355.556 88.889v177.778c0 49.059-39.83 88.889-88.889 88.889H88.889C39.83 355.556 0 315.726 0 266.667V88.889C0 39.83 39.83 0 88.889 0h177.778c49.059 0 88.889 39.83 88.889 88.889" style="fill:#191763"/><path d="M88.749-.183c174.053 118.519 170.975 237.037 0 355.556-49.06 0-88.889-39.83-88.889-88.889V88.706C-.14 39.647 39.689-.183 88.749-.183" style="fill:#262292"/><path d="M231.472 89.511a24.51 24.51 0 0 0-23.513-17.601h-7.154c-11.829 0-21.969 8.449-24.104 20.083l-12.253 66.767 3.041-10.403a24.51 24.51 0 0 1 23.522-17.631h41.573l17.435 6.791 16.807-6.791h-4.905a24.51 24.51 0 0 1-23.514-17.601z" style="fill:url(#a);fill-rule:nonzero"/><path d="M126.602 265.944a24.506 24.506 0 0 0 23.542 17.701h15.194c13.29 0 24.157-10.592 24.498-23.877l1.655-64.379-3.461 11.821a24.51 24.51 0 0 1-23.519 17.62h-41.919l-14.945-8.107-16.179 8.107h4.823a24.504 24.504 0 0 1 23.542 17.701z" style="fill:url(#b);fill-rule:nonzero"/><path d="M206.895 71.91h-84.902c-24.258 0-38.813 32.06-48.516 64.12-11.496 37.982-26.538 88.78 16.981 88.78h36.66a24.51 24.51 0 0 0 23.583-17.776c6.374-22.299 17.544-61.199 26.318-90.812 4.459-15.048 8.173-27.972 13.873-36.021 3.196-4.512 8.522-8.291 16.003-8.291" style="fill:url(#c);fill-rule:nonzero"/><path d="M206.895 71.91h-84.902c-24.258 0-38.813 32.06-48.516 64.12-11.496 37.982-26.538 88.78 16.981 88.78h36.66a24.51 24.51 0 0 0 23.583-17.776c6.374-22.299 17.544-61.199 26.318-90.812 4.459-15.048 8.173-27.972 13.873-36.021 3.196-4.512 8.522-8.291 16.003-8.291" style="fill:url(#d);fill-rule:nonzero"/><path d="M148.661 283.645h84.902c24.258 0 38.812-32.065 48.516-64.13 11.495-37.989 26.537-88.796-16.981-88.796h-36.659a24.51 24.51 0 0 0-23.584 17.778c-6.374 22.303-17.544 61.21-26.319 90.828-4.459 15.052-8.173 27.978-13.872 36.028-3.196 4.513-8.522 8.292-16.003 8.292" style="fill:url(#e);fill-rule:nonzero"/><path d="M148.661 283.645h84.902c24.258 0 38.812-32.065 48.516-64.13 11.495-37.989 26.537-88.796-16.981-88.796h-36.659a24.51 24.51 0 0 0-23.584 17.778c-6.374 22.303-17.544 61.21-26.319 90.828-4.459 15.052-8.173 27.978-13.872 36.028-3.196 4.513-8.522 8.292-16.003 8.292" style="fill:url(#f);fill-rule:nonzero"/><defs><radialGradient id="a" cx="0" cy="0" r="1" gradientTransform="rotate(230.696 163.697 19.994)scale(91.5928 86.1263)" gradientUnits="userSpaceOnUse"><stop offset="0" style="stop-color:#00aeff;stop-opacity:1"/><stop offset=".1" style="stop-color:#00aeff;stop-opacity:1"/><stop offset=".77" style="stop-color:#2253ce;stop-opacity:1"/><stop offset="1" style="stop-color:#0736c4;stop-opacity:1"/></radialGradient><radialGradient id="b" cx="0" cy="0" r="1" gradientTransform="rotate(51.84 -176.106 224.995)scale(84.6474 82.1102)" gradientUnits="userSpaceOnUse"><stop offset="0" style="stop-color:#fff;stop-opacity:1"/><stop offset="1" style="stop-color:#fff;stop-opacity:1"/></radialGradient><radialGradient id="e" cx="0" cy="0" r="1" gradientTransform="rotate(109.274 93.658 153.49)scale(203.1981 243.4247)" gradientUnits="userSpaceOnUse"><stop offset="0" style="stop-color:#7779e0;stop-opacity:1"/><stop offset=".07" style="stop-color:#8c48ff;stop-opacity:1"/><stop offset=".5" style="stop-color:#7779e0;stop-opacity:1"/><stop offset="1" style="stop-color:#7779e0;stop-opacity:1"/></radialGradient><linearGradient id="c" x1="0" x2="1" y1="0" y2="0" gradientTransform="rotate(85.06 9.16 108.945)scale(140.6655)" gradientUnits="userSpaceOnUse"><stop offset="0" style="stop-color:#ffd600;stop-opacity:1"/><stop offset=".16" style="stop-color:#e1d10d;stop-opacity:1"/><stop offset=".49" style="stop-color:#ffe400;stop-opacity:1"/><stop offset=".65" style="stop-color:#ffe200;stop-opacity:1"/><stop offset=".94" style="stop-color:#ffc800;stop-opacity:1"/><stop offset="1" style="stop-color:#ffc800;stop-opacity:1"/></linearGradient><linearGradient id="d" x1="0" x2="1" y1="0" y2="0" gradientTransform="rotate(87.523 26.205 102.522)scale(153.043)" gradientUnits="userSpaceOnUse"><stop offset="0" style="stop-color:#e5ff00;stop-opacity:1"/><stop offset=".25" style="stop-color:#f7c005;stop-opacity:0"/><stop offset="1" style="stop-color:#0588f7;stop-opacity:0"/></linearGradient><linearGradient id="f" x1="0" x2="1" y1="0" y2="0" gradientTransform="rotate(90.12 77.519 198.487)scale(41.65209)" gradientUnits="userSpaceOnUse"><stop offset="0" style="stop-color:#7779e0;stop-opacity:1"/><stop offset=".06" style="stop-color:#7779e0;stop-opacity:1"/><stop offset=".71" style="stop-color:#a86edd;stop-opacity:0"/><stop offset="1" style="stop-color:#a86edd;stop-opacity:0"/></linearGradient></defs></svg>