<svg xmlns="http://www.w3.org/2000/svg" xml:space="preserve" style="fill-rule:evenodd;clip-rule:evenodd;stroke-linejoin:round;stroke-miterlimit:2" viewBox="0 0 256 256"><path d="M256 64v128c0 35.322-28.678 64-64 64H64c-35.322 0-64-28.678-64-64V64C0 28.678 28.678 0 64 0h128c35.322 0 64 28.678 64 64" style="fill:#191763"/><path d="M63.121 0c123.596 85.334 121.41 170.666 0 256C28.283 256 0 227.322 0 192V64C0 28.678 28.283 0 63.121 0" style="fill:#262292"/><path d="M171.089 64.263 71.372 127.47l-8.575-13.53v-11.658a12.55 12.55 0 0 1 5.712-10.511l57.965-37.612c8.814-5.72 20.221-5.722 29.037-.005z" style="fill:#978a00;fill-rule:nonzero"/><path d="M154.615 53.607q.45.267.892.556l45.236 29.346-112.165 71.094-17.21-27.153 82.317-52.281c7.802-4.952 8.143-16.092.93-21.562" style="fill:#c7a400;fill-rule:nonzero"/><path d="M131.275 168.179 85.45 154.57l97.427-60.464c8.207-5.092 8.186-16.821-.039-21.883l-.437-.269 1.264.767 29.649 18.833c3.647 2.317 5.849 6.283 5.849 10.537v11.314z" style="fill:#cdc400;fill-rule:nonzero"/><path d="M128.168 206.132h63.837c14.994 0 27.15-12.156 27.15-27.15v-76.495a12.9 12.9 0 0 1-6.029 10.907l-94.956 59.621a17.59 17.59 0 0 0-8.228 14.886c0 10.072 8.158 18.231 18.226 18.231" style="fill:#fff849;fill-rule:nonzero"/><path d="M154.744 206.128H90.12c-15.097 0-27.335-12.157-27.335-27.15V102.43a12.87 12.87 0 0 0 6.049 10.893l95.503 59.807a17.85 17.85 0 0 1 8.401 15.125c0 9.871-8.057 17.873-17.994 17.873" style="fill:#ffe200;fill-rule:nonzero"/><path d="M53.199 97.651h47.831c9.036 0 16.361 7.325 16.361 16.362v47.83c0 9.037-7.325 16.362-16.361 16.362H53.199c-9.036 0-16.362-7.325-16.362-16.362v-47.83c0-9.037 7.326-16.362 16.362-16.362" style="fill:#7b7de1;fill-rule:nonzero"/><path d="M76.892 161.706q-9.953-.001-16.343-6.421-6.39-6.417-6.388-16.76-.001-10.917 6.488-17.656c4.325-4.497 9.983-6.742 16.982-6.742q9.923 0 16.149 6.454 6.26 6.453 6.259 17.016.002 10.854-6.487 17.494-6.454 6.617-16.66 6.615m.189-9.084c3.615 0 6.53-1.275 8.733-3.819 2.204-2.55 3.308-6.089 3.308-10.628q-.001-7.094-3.208-11.045c-2.142-2.636-5-3.948-8.572-3.948q-5.525 0-8.894 4.08-3.369 4.043-3.37 10.723 0 6.772 3.37 10.723 3.368 3.915 8.633 3.914" style="fill:#fff;fill-rule:nonzero"/></svg>