<svg xmlns="http://www.w3.org/2000/svg" xml:space="preserve" style="fill-rule:evenodd;clip-rule:evenodd;stroke-linejoin:round;stroke-miterlimit:2" viewBox="0 0 356 356"><path d="M355.556 88.889v177.778c0 49.059-39.83 88.889-88.889 88.889H88.889C39.83 355.556 0 315.726 0 266.667V88.889C0 39.83 39.83 0 88.889 0h177.778c49.059 0 88.889 39.83 88.889 88.889" style="fill:#191763"/><path d="M88.749-.183c174.053 118.519 170.975 237.037 0 355.556-49.06 0-88.889-39.83-88.889-88.889V88.706C-.14 39.647 39.689-.183 88.749-.183" style="fill:#262292"/><path d="M237.698 89.149 99.029 177.047l-11.924-18.815v-16.213a17.43 17.43 0 0 1 7.943-14.617l80.607-52.304a37.1 37.1 0 0 1 40.38-.006z" style="fill:#978a00;fill-rule:nonzero"/><path d="M214.789 74.331q.625.37 1.24.773l62.907 40.809-155.98 98.866-23.933-37.761 114.473-72.703c10.849-6.886 11.324-22.377 1.293-29.984" style="fill:#c7a400;fill-rule:nonzero"/><path d="m182.332 233.657-63.725-18.925 135.484-84.082c11.413-7.081 11.384-23.392-.054-30.432l-.608-.373 1.757 1.066 41.231 26.19c5.072 3.222 8.134 8.737 8.134 14.653v15.733z" style="fill:#cdc400;fill-rule:nonzero"/><path d="M178.011 286.436h88.773c20.851 0 37.756-16.905 37.756-37.755V142.305a17.92 17.92 0 0 1-8.384 15.167l-132.048 82.91a24.44 24.44 0 0 0-11.442 20.702c0 14.006 11.345 25.352 25.345 25.352" style="fill:#fff849;fill-rule:nonzero"/><path d="M214.108 286.43h-89.264c-20.852 0-37.756-16.905-37.756-37.755v-106.45a17.9 17.9 0 0 0 8.355 15.149l131.916 83.169a24.86 24.86 0 0 1 11.603 21.033c0 13.726-11.128 24.854-24.854 24.854" style="fill:url(#a);fill-rule:nonzero"/><path d="M214.969 286.43H125.1c-20.993 0-38.012-16.905-38.012-37.755v-106.45a17.88 17.88 0 0 0 8.412 15.149l132.809 83.169c7.272 4.552 11.682 12.495 11.682 21.033 0 13.726-11.204 24.854-25.022 24.854" style="fill:#ffe200;fill-rule:nonzero"/><path d="M73.758 135.579h66.514c12.566 0 22.753 10.187 22.753 22.754v66.514c0 12.566-10.187 22.753-22.753 22.753H73.758c-12.566 0-22.754-10.187-22.754-22.753v-66.514c0-12.567 10.188-22.754 22.754-22.754" style="fill:url(#b);fill-rule:nonzero"/><path d="M106.705 224.656c-9.226 0-16.803-2.979-22.727-8.929q-8.885-8.925-8.883-23.307-.002-15.182 9.022-24.553c6.015-6.253 13.883-9.376 23.616-9.376q13.799 0 22.457 8.975 8.706 8.975 8.704 23.663c0 10.062-3.004 18.173-9.021 24.328q-8.975 9.2-23.168 9.199m.263-12.633c5.028 0 9.081-1.772 12.145-5.31 3.064-3.546 4.6-8.468 4.6-14.78 0-6.577-1.49-11.697-4.462-15.36-2.978-3.665-6.952-5.489-11.92-5.489q-7.682 0-12.368 5.673c-3.123 3.75-4.686 8.718-4.686 14.912q0 9.417 4.686 14.912c3.123 3.631 7.123 5.442 12.005 5.442" style="fill:#fff;fill-rule:nonzero"/><defs><radialGradient id="a" cx="0" cy="0" r="1" gradientTransform="rotate(123.339 27.885 143.414)scale(125.1648 -324.8158)" gradientUnits="userSpaceOnUse"><stop offset="0" style="stop-color:#49deff;stop-opacity:1"/><stop offset=".72" style="stop-color:#29c3ff;stop-opacity:1"/><stop offset="1" style="stop-color:#29c3ff;stop-opacity:1"/></radialGradient><linearGradient id="b" x1="0" x2="1" y1="0" y2="0" gradientTransform="translate(51.004 191.59)scale(111.397)" gradientUnits="userSpaceOnUse"><stop offset="0" style="stop-color:#fff000;stop-opacity:1"/><stop offset="1" style="stop-color:#49deff;stop-opacity:1"/></linearGradient></defs></svg>