<svg xmlns="http://www.w3.org/2000/svg" xml:space="preserve" style="fill-rule:evenodd;clip-rule:evenodd;stroke-linejoin:round;stroke-miterlimit:2" viewBox="0 0 256 256"><path d="M256 64v128c0 35.322-28.678 64-64 64H64c-35.322 0-64-28.678-64-64V64C0 28.678 28.678 0 64 0h128c35.322 0 64 28.678 64 64" style="fill:#191763"/><path d="M63.121 0c123.596 85.334 121.41 170.666 0 256C28.283 256 0 227.322 0 192V64C0 28.678 28.283 0 63.121 0" style="fill:#262292"/><path d="M69.395 97.098C58.377 91.35 54.1 77.74 59.847 66.722c5.749-11.016 19.359-15.294 30.376-9.546l106.604 55.616c11.018 5.749 15.295 19.359 9.547 30.376s-19.358 15.295-30.375 9.547z" style="fill:#fff;stroke:#1b2129;stroke-width:5.06px"/><path d="M175.999 112.792c11.017-5.747 24.627-1.469 30.375 9.548s1.471 24.628-9.547 30.375L90.223 208.333c-11.017 5.748-24.627 1.47-30.376-9.547-5.747-11.017-1.47-24.628 9.548-30.375z" style="fill:#fff;stroke:#1b2129;stroke-width:5.06px"/><path d="m138.628 132.754 26.261-17.077.237 33.933z" style="fill:#0006ff;stroke:#1b2129;stroke-width:5.06px;stroke-linecap:round;stroke-miterlimit:1.5"/><circle cx="79.809" cy="77.137" r="27.809" style="fill:#fff000;stroke:#1b2129;stroke-width:5.02px;stroke-linecap:round;stroke-miterlimit:1.5"/><circle cx="79.809" cy="188.371" r="27.809" style="fill:#fff000;stroke:#1b2129;stroke-width:5.02px;stroke-linecap:round;stroke-miterlimit:1.5"/><circle cx="186.413" cy="132.754" r="27.809" style="fill:#fff000;stroke:#1b2129;stroke-width:5.06px;stroke-linecap:round;stroke-miterlimit:1.5"/></svg>