<svg xmlns="http://www.w3.org/2000/svg" xml:space="preserve" style="fill-rule:evenodd;clip-rule:evenodd;stroke-linejoin:round;stroke-miterlimit:2" viewBox="0 0 356 356"><path d="M355.556 88.889v177.778c0 49.059-39.83 88.889-88.889 88.889H88.889C39.83 355.556 0 315.726 0 266.667V88.889C0 39.83 39.83 0 88.889 0h177.778c49.059 0 88.889 39.83 88.889 88.889" style="fill:#191763"/><path d="M88.749-.183c174.053 118.519 170.975 237.037 0 355.556-49.06 0-88.889-39.83-88.889-88.889V88.706C-.14 39.647 39.689-.183 88.749-.183" style="fill:#262292"/><path d="M93.634 133.791c-15.321-7.993-21.269-26.92-13.277-42.241 7.994-15.32 26.921-21.269 42.241-13.276l148.247 77.342c15.321 7.994 21.269 26.921 13.276 42.241s-26.92 21.27-42.24 13.277z" style="fill:#fff;stroke:#1b2129;stroke-width:7.03px"/><path d="M241.881 155.616c15.32-7.992 34.247-2.043 42.24 13.277s2.045 34.248-13.276 42.241l-148.247 77.343c-15.32 7.993-34.247 2.044-42.241-13.276-7.992-15.32-2.044-34.248 13.277-42.241z" style="fill:#fff;stroke:#1b2129;stroke-width:7.03px"/><path d="m189.911 183.375 36.52-23.748.329 47.189z" style="fill:#0006ff;stroke:#1b2129;stroke-width:7.03px;stroke-linecap:round;stroke-miterlimit:1.5"/><circle cx="108.116" cy="106.033" r="38.672" style="fill:#fff000;stroke:#1b2129;stroke-width:6.98px;stroke-linecap:round;stroke-miterlimit:1.5"/><circle cx="108.116" cy="260.718" r="38.672" style="fill:#fff000;stroke:#1b2129;stroke-width:6.98px;stroke-linecap:round;stroke-miterlimit:1.5"/><circle cx="256.363" cy="183.375" r="38.672" style="fill:#fff000;stroke:#1b2129;stroke-width:7.03px;stroke-linecap:round;stroke-miterlimit:1.5"/></svg>