<svg xmlns="http://www.w3.org/2000/svg" xml:space="preserve" style="fill-rule:evenodd;clip-rule:evenodd;stroke-linecap:round;stroke-linejoin:round;stroke-miterlimit:1.5" viewBox="0 0 256 256"><path d="M256 64v128c0 35.322-28.678 64-64 64H64c-35.322 0-64-28.678-64-64V64C0 28.678 28.678 0 64 0h128c35.322 0 64 28.678 64 64" style="fill:#191763"/><path d="M63.121 0c123.596 85.334 121.41 170.666 0 256C28.283 256 0 227.322 0 192V64C0 28.678 28.283 0 63.121 0" style="fill:#262292"/><path d="M61.719 145.349V86.958h.02a46.9 46.9 0 0 1 13.707-31.782c18.29-18.29 47.988-18.29 66.278 0a46.9 46.9 0 0 1 13.708 31.782h.019v58.391h-23.437V87.883a23.45 23.45 0 0 0-6.859-16.137c-9.145-9.145-23.994-9.145-33.139 0a23.44 23.44 0 0 0-6.86 16.137v57.466z" style="fill:#fff;stroke:#231f20;stroke-width:1.98px"/><path d="M171.965 141.89v48.434c0 13.365-10.851 24.217-24.217 24.217h-78.08c-13.366 0-24.217-10.852-24.217-24.217V141.89c0-13.366 10.851-24.217 24.217-24.217h78.08c13.366 0 24.217 10.851 24.217 24.217" style="fill:#fff000;stroke:#231f20;stroke-width:2.88px"/><path d="M155.028 155.132v21.95c0 6.058-4.917 10.975-10.974 10.975H73.363c-6.058 0-10.976-4.917-10.976-10.975v-21.95c0-6.058 4.918-10.976 10.976-10.976h70.691c6.057 0 10.974 4.918 10.974 10.976" style="fill:#fff;stroke:#231f20;stroke-width:1.93px"/><path d="m74.533 160.393 5.741 2.023.492-.164v-6.234h5.14v6.234l.438.164 5.796-2.023 1.695 4.866-5.851 2.078-.164.492 3.937 5.359-4.155 3.007-4.047-5.468h-.437l-4.047 5.468-4.155-3.007 3.937-5.359-.164-.492-5.851-2.078zm25.372 0 5.741 2.023.492-.164v-6.234h5.14v6.234l.438.164 5.796-2.023 1.695 4.866-5.851 2.078-.164.492 3.937 5.359-4.156 3.007-4.046-5.468h-.438l-4.046 5.468-4.156-3.007 3.937-5.359-.164-.492-5.85-2.078zm25.371 0 5.742 2.023.492-.164v-6.234h5.14v6.234l.437.164 5.796-2.023 1.696 4.866-5.851 2.078-.164.492 3.937 5.359-4.156 3.007-4.046-5.468h-.438l-4.046 5.468-4.156-3.007 3.937-5.359-.164-.492-5.851-2.078z" style="fill:#003aff;fill-rule:nonzero"/><path d="M207.342 71.809c-4.267-4.268-11.21-4.266-15.474 0l-60.636 60.637c-.081.081-.995 1.032-1.233 1.564l-8.397 18.865a3.55 3.55 0 0 0-.307 1.443 3.555 3.555 0 0 0 3.538 3.538c.497 0 .989-.105 1.443-.308l18.865-8.397c.531-.235 1.483-1.151 1.565-1.231l60.636-60.636a10.88 10.88 0 0 0 3.207-7.739c0-2.922-1.139-5.671-3.207-7.736Zm-5.005 10.467-60.638 60.638-.025.031-9.855 4.386 4.387-9.853c.009-.011.022-.016.032-.026l60.636-60.637c1.46-1.461 4.006-1.459 5.463.001a3.82 3.82 0 0 1 1.132 2.729 3.83 3.83 0 0 1-1.132 2.731Z" style="fill:#fff000;fill-rule:nonzero;stroke:#3d55a5;stroke-width:4.28px;stroke-linecap:butt;stroke-miterlimit:2"/></svg>