<svg xmlns="http://www.w3.org/2000/svg" xml:space="preserve" style="fill-rule:evenodd;clip-rule:evenodd;stroke-linecap:round;stroke-linejoin:round;stroke-miterlimit:1.5" viewBox="0 0 256 256"><path d="M256 64v128c0 35.322-28.678 64-64 64H64c-35.322 0-64-28.678-64-64V64C0 28.678 28.678 0 64 0h128c35.322 0 64 28.678 64 64" style="fill:#191763"/><path d="M63.121 0c123.596 85.334 121.41 170.666 0 256C28.283 256 0 227.322 0 192V64C0 28.678 28.283 0 63.121 0" style="fill:#262292"/><path d="M100.186 138.4v-34.563h.012a27.75 27.75 0 0 1 8.114-18.811c10.825-10.827 28.405-10.827 39.231 0a27.75 27.75 0 0 1 8.114 18.811h.011V138.4h-13.873v-34.015a13.88 13.88 0 0 0-4.06-9.551c-5.413-5.414-14.203-5.414-19.615 0a13.88 13.88 0 0 0-4.061 9.551V138.4z" style="fill:#fff;stroke:#231f20;stroke-width:1.98px"/><path d="M165.443 136.353v28.669c0 7.912-6.423 14.335-14.335 14.335h-46.217c-7.911 0-14.334-6.423-14.334-14.335v-28.669c0-7.911 6.423-14.334 14.334-14.334h46.217c7.912 0 14.335 6.423 14.335 14.334" style="fill:#fff000;stroke:#231f20;stroke-width:2.88px"/><path d="M155.418 144.191v12.993a6.5 6.5 0 0 1-6.496 6.496h-41.844a6.5 6.5 0 0 1-6.496-6.496v-12.993a6.5 6.5 0 0 1 6.496-6.496h41.844a6.5 6.5 0 0 1 6.496 6.496" style="fill:#fff;stroke:#231f20;stroke-width:1.93px"/><path d="m107.771 147.305 3.398 1.198.292-.097v-3.69h3.042v3.69l.259.097 3.431-1.198 1.003 2.881-3.463 1.23-.097.291 2.33 3.172-2.459 1.78-2.396-3.236h-.258l-2.396 3.236-2.459-1.78 2.33-3.172-.097-.291-3.463-1.23zm15.018 0 3.399 1.198.291-.097v-3.69h3.042v3.69l.259.097 3.431-1.198 1.004 2.881-3.464 1.23-.097.291 2.331 3.172-2.46 1.78-2.395-3.236h-.259l-2.395 3.236-2.46-1.78 2.33-3.172-.097-.291-3.463-1.23zm15.018 0 3.399 1.198.291-.097v-3.69h3.043v3.69l.258.097 3.431-1.198 1.004 2.881-3.464 1.23-.097.291 2.331 3.172-2.46 1.78-2.395-3.236h-.259l-2.395 3.236-2.46-1.78 2.33-3.172-.097-.291-3.463-1.23z" style="fill:#003aff;fill-rule:nonzero"/><path d="m183.072 60.698-13.77 16.828c-25.938-21.224-63.738-19.341-87.436 4.358-25.457 25.457-25.457 66.793 0 92.25s66.794 25.457 92.25 0a65.25 65.25 0 0 0 19.107-46.125h21.743a87 87 0 0 1-25.474 61.5c-33.944 33.943-89.058 33.943-123.001 0s-33.943-89.058 0-123.001c31.598-31.597 81.999-34.109 116.581-5.81" style="fill:#fff"/><path d="m194.202 84.73-35.736.511 30.949-35.927z" style="fill:#fff"/></svg>