<svg xmlns="http://www.w3.org/2000/svg" xml:space="preserve" style="fill-rule:evenodd;clip-rule:evenodd;stroke-linecap:round;stroke-linejoin:round;stroke-miterlimit:1.5" viewBox="0 0 356 356"><path d="M355.556 88.889v177.778c0 49.059-39.83 88.889-88.889 88.889H88.889C39.83 355.556 0 315.726 0 266.667V88.889C0 39.83 39.83 0 88.889 0h177.778c49.059 0 88.889 39.83 88.889 88.889" style="fill:#191763"/><path d="M88.749-.183c174.053 118.519 170.975 237.037 0 355.556-49.06 0-88.889-39.83-88.889-88.889V88.706C-.14 39.647 39.689-.183 88.749-.183" style="fill:#262292"/><path d="M85.535 201.812v-81.2h.028a65.18 65.18 0 0 1 19.061-44.196c25.435-25.435 66.734-25.435 92.169 0a65.18 65.18 0 0 1 19.062 44.196h.027v81.2H183.29v-79.913a32.6 32.6 0 0 0-9.539-22.441c-12.717-12.717-33.367-12.717-46.084 0a32.58 32.58 0 0 0-9.539 22.441v79.913z" style="fill:#fff;stroke:#231f20;stroke-width:2.75px"/><path d="M238.847 197.002v67.354c0 18.586-15.091 33.677-33.677 33.677H96.59c-18.587 0-33.677-15.091-33.677-33.677v-67.354c0-18.587 15.09-33.677 33.677-33.677h108.58c18.586 0 33.677 15.09 33.677 33.677" style="fill:#fff000;stroke:#231f20;stroke-width:4.01px"/><path d="M215.294 215.417v30.524c0 8.424-6.838 15.262-15.262 15.262h-98.304c-8.424 0-15.263-6.838-15.263-15.262v-30.524c0-8.424 6.839-15.263 15.263-15.263h98.304c8.424 0 15.262 6.839 15.262 15.263" style="fill:#fff;stroke:#231f20;stroke-width:2.68px"/><text x="97.956" y="271.094" style="font-family:&quot;ProductSans-Bold&quot;,&quot;Product Sans&quot;,sans-serif;font-weight:700;font-size:76.04px;fill:#003aff">***</text><path d="M288.043 99.546c-5.934-5.935-15.59-5.933-21.519 0l-84.322 84.323c-.112.113-1.384 1.435-1.714 2.175l-11.677 26.234a4.92 4.92 0 0 0 6.499 6.499l26.234-11.677c.739-.328 2.062-1.601 2.176-1.713l84.323-84.321a15.12 15.12 0 0 0 4.459-10.762c0-4.064-1.584-7.887-4.459-10.758Zm-6.96 14.556-84.325 84.324c-.014.014-.022.032-.035.043l-13.704 6.1 6.1-13.702c.013-.015.03-.023.044-.036l84.322-84.324c2.031-2.031 5.571-2.029 7.598.002a5.32 5.32 0 0 1 1.574 3.795c0 1.436-.56 2.783-1.574 3.798Z" style="fill:#fff000;fill-rule:nonzero;stroke:#3d55a5;stroke-width:5.95px;stroke-linecap:butt;stroke-miterlimit:2"/></svg>