<svg xmlns="http://www.w3.org/2000/svg" xml:space="preserve" style="fill-rule:evenodd;clip-rule:evenodd;stroke-linecap:round;stroke-linejoin:round;stroke-miterlimit:1.5" viewBox="0 0 356 356"><path d="M355.556 88.889v177.778c0 49.059-39.83 88.889-88.889 88.889H88.889C39.83 355.556 0 315.726 0 266.667V88.889C0 39.83 39.83 0 88.889 0h177.778c49.059 0 88.889 39.83 88.889 88.889" style="fill:#191763"/><path d="M88.749-.183c174.053 118.519 170.975 237.037 0 355.556-49.06 0-88.889-39.83-88.889-88.889V88.706C-.14 39.647 39.689-.183 88.749-.183" style="fill:#262292"/><path d="M139.099 192.058v-48.064h.016a38.58 38.58 0 0 1 11.284-26.16c15.054-15.056 39.501-15.056 54.556 0a38.58 38.58 0 0 1 11.283 26.16h.016v48.064h-19.292v-47.302a19.3 19.3 0 0 0-5.646-13.283c-7.528-7.528-19.751-7.528-27.278 0a19.29 19.29 0 0 0-5.647 13.283v47.302z" style="fill:#fff;stroke:#231f20;stroke-width:2.75px"/><path d="M229.847 189.211v39.868c0 11.002-8.932 19.934-19.934 19.934h-64.271c-11.002 0-19.934-8.932-19.934-19.934v-39.868c0-11.002 8.932-19.934 19.934-19.934h64.271c11.002 0 19.934 8.932 19.934 19.934" style="fill:#fff000;stroke:#231f20;stroke-width:4.01px"/><path d="M215.906 200.111v18.068c0 4.986-4.048 9.034-9.034 9.034h-58.189c-4.985 0-9.034-4.048-9.034-9.034v-18.068c0-4.986 4.049-9.034 9.034-9.034h58.189c4.986 0 9.034 4.048 9.034 9.034" style="fill:#fff;stroke:#231f20;stroke-width:2.68px"/><text x="146.451" y="233.068" style="font-family:&quot;ProductSans-Bold&quot;,&quot;Product Sans&quot;,sans-serif;font-weight:700;font-size:45.01px;fill:#003aff">***</text><path d="m254.362 84.003-19.149 23.402c-36.069-29.515-88.635-26.896-121.59 6.06-35.401 35.401-35.401 92.884 0 128.285s92.885 35.401 128.285 0a90.71 90.71 0 0 0 26.57-64.143h30.237a120.95 120.95 0 0 1-35.425 85.524c-47.203 47.202-123.846 47.202-171.048 0s-47.202-123.846 0-171.048c43.941-43.94 114.029-47.433 162.12-8.08" style="fill:#fff"/><path d="m269.84 117.423-49.695.71 43.038-49.961z" style="fill:#fff"/></svg>