<svg xmlns="http://www.w3.org/2000/svg" xml:space="preserve" style="fill-rule:evenodd;clip-rule:evenodd;stroke-linejoin:round;stroke-miterlimit:2" viewBox="0 0 356 356"><path d="M355.556 88.889v177.778c0 49.059-39.83 88.889-88.889 88.889H88.889C39.83 355.556 0 315.726 0 266.667V88.889C0 39.83 39.83 0 88.889 0h177.778c49.059 0 88.889 39.83 88.889 88.889" style="fill:#191763"/><path d="M88.749-.183c174.053 118.519 170.975 237.037 0 355.556-49.06 0-88.889-39.83-88.889-88.889V88.706C-.14 39.647 39.689-.183 88.749-.183" style="fill:#262292"/><path d="M278.555 264.84c-.52 2.685.526 5.52.005 8.204-.261 1.348-1.296 2.465-2.262 3.44a11.3 11.3 0 0 1-3.513 2.38c-20.746 8.932-41.682 17.413-62.547 26.061-.707.293-4.65 1.492-9.543-.644-12.458-5.436-26.609-16.361-57.167-27.001-22.938-7.986-41.91 11.595-64.901 19.428-.621.212-4.188 1.427-8.187-.539a10.7 10.7 0 0 1-3.281-2.486c-.007-.007-2.146-3.669-2.147-3.675-.18-1.402-.633-2.797-.539-4.209a10.7 10.7 0 0 1 1.081-3.972 10.7 10.7 0 0 1 2.485-3.281 11.2 11.2 0 0 1 3.664-2.142c24.453-8.614 49.064-16.771 73.622-25.084.676-.229 4.638-1.57 8.876.896 17.598 10.24 32.396 29.591 52.718 30.852 20.763 1.289 38.406-16.003 57.609-24.004 4.563-1.901 8.342-.584 9.025-.346 1.344.469 2.636 1.197 3.688 2.158 1.049.959 1.423 2.516 2.472 3.475z" style="fill:#fff000"/><path d="M268.1 158.089c-11.181 4.948-22.354 9.912-33.55 14.825-.715.314-5.011 2.199-9.746-.552-14.118-8.202-26.013-23.413-42.289-24.718-20.039-1.607-51.785-2.455-57.959 16.676-35.659 110.498-31.962 125.365-39.149 125.431-.656.006-1.319 4.223-5.265 6.293a10.7 10.7 0 0 1-3.943 1.183c-.01.001-4.228-.432-4.233-.435-1.24-.681-2.633-1.139-3.718-2.047-1.052-.88-1.932-2-2.568-3.216-.305-.581-2.052-3.912-.753-8.164 13.362-43.731 27.203-87.314 40.872-130.951 1.401-4.474 5.003-6.191 5.623-6.486a11 11 0 0 1 1.65-.626q33.943-9.839 67.925-19.544c.65-.186 4.407-1.259 8.379 1.047 13.863 8.052 25.51 23.47 41.522 24.271 16.431.821 30.079-13.338 45.149-19.936 4.555-1.994 8.353-.159 9.001.155.648.313 4.465 2.158 5.713 6.957.075.287.471 1.81.3 3.685-3.856 42.385-7.818 84.761-11.727 127.141-.06.653-.405 4.406-3.833 7.254a10.7 10.7 0 0 1-3.608 1.981c-.009.003-4.225.461-4.23.46-1.355-.408-2.813-.564-4.064-1.225a10.7 10.7 0 0 1-3.184-2.608c-.419-.505-2.823-3.395-2.443-7.826 3.119-36.365 6.838-72.676 10.128-109.025" style="fill:#fff000"/><path d="M145.39 271.824c-.634-.173-4.27-1.162-6.483-5.029-.326-.57-2.194-3.832-1.053-8.131 10.902-41.119 22.334-82.097 33.501-123.146.172-.633 1.161-4.269 5.029-6.482a10.7 10.7 0 0 1 3.896-1.329c.01-.001 4.242.276 4.247.279 1.263.635 2.673 1.041 3.79 1.908a10.7 10.7 0 0 1 2.686 3.119c.326.569 2.193 3.833 1.054 8.131-10.904 41.12-22.335 82.097-33.502 123.145-.172.634-1.161 4.27-5.028 6.483-3.868 2.213-7.504 1.224-8.137 1.052M204.715 305.585c-.646-.114-4.356-.773-6.907-4.426-.376-.538-2.53-3.622-1.78-8.003 7.635-44.575 15.81-89.056 23.715-133.584.114-.647.773-4.357 4.426-6.908a10.7 10.7 0 0 1 3.761-1.673c.01-.002 4.25-.106 4.255-.105 1.315.52 2.755.797 3.946 1.561 1.156.74 2.17 1.74 2.956 2.865.375.537 2.53 3.622 1.779 8.003-7.635 44.575-15.809 89.056-23.715 133.584-.114.646-.773 4.356-4.426 6.908s-7.363 1.893-8.01 1.778" style="fill:#fff000"/><path d="m170.594 139.871 24.403 78.812-54.937-61.553z" style="fill:#00daff;stroke:#fff;stroke-width:8.3px"/><path d="M83.92 97.266c7.24-27.019 35.053-43.078 62.073-35.838 27.019 7.24 43.077 35.054 35.838 62.073-7.24 27.019-35.054 43.078-62.073 35.838-27.02-7.24-43.078-35.054-35.838-62.073Zm24.288 6.508c-3.648 13.614 4.443 27.628 18.057 31.276 13.615 3.649 27.629-4.443 31.277-18.057s-4.443-27.629-18.058-31.277c-13.613-3.648-27.628 4.444-31.276 18.058Z" style="fill:#00daff;stroke:#fff;stroke-width:8.3px"/></svg>