<svg xmlns="http://www.w3.org/2000/svg" xml:space="preserve" style="fill-rule:evenodd;clip-rule:evenodd;stroke-linejoin:round;stroke-miterlimit:2" viewBox="0 0 256 256"><path d="M256 64v128c0 35.322-28.678 64-64 64H64c-35.322 0-64-28.678-64-64V64C0 28.678 28.678 0 64 0h128c35.322 0 64 28.678 64 64" style="fill:#191763"/><path d="M202.986 189.105c-.387 1.998.391 4.107.004 6.105-.195 1.002-.964 1.834-1.683 2.559a8.4 8.4 0 0 1-2.614 1.771c-15.437 6.646-31.015 12.956-46.54 19.392-.526.218-3.46 1.11-7.101-.479-9.27-4.046-19.8-12.174-42.537-20.091-17.068-5.943-31.184 8.627-48.291 14.456-.463.157-3.117 1.061-6.092-.402a8 8 0 0 1-2.442-1.849c-.005-.006-1.596-2.731-1.597-2.734-.134-1.044-.471-2.082-.401-3.133a8 8 0 0 1 .804-2.955 8 8 0 0 1 1.849-2.441 8.4 8.4 0 0 1 2.726-1.594c18.195-6.41 36.508-12.479 54.781-18.664.503-.171 3.452-1.169 6.605.666 13.095 7.619 24.105 22.018 39.226 22.956 15.45.959 28.577-11.907 42.866-17.86 3.395-1.415 6.207-.435 6.715-.258 1 .348 1.962.89 2.744 1.605.781.714 1.059 1.872 1.84 2.586z" style="fill:#fff000"/><path d="M195.207 109.674c-8.319 3.681-16.633 7.376-24.964 11.031-.532.233-3.729 1.635-7.251-.411-10.505-6.103-19.356-17.421-31.467-18.392-14.911-1.197-38.532-1.828-43.126 12.409-26.533 82.218-23.782 93.281-29.13 93.33-.489.004-.981 3.143-3.918 4.682a8 8 0 0 1-2.933.881c-.008.001-3.147-.322-3.15-.324-.922-.507-1.959-.847-2.766-1.523a8 8 0 0 1-1.912-2.393 8.06 8.06 0 0 1-.56-6.075c9.943-32.539 20.241-64.969 30.412-97.438 1.043-3.328 3.723-4.606 4.184-4.826a8 8 0 0 1 1.228-.466q25.256-7.321 50.542-14.542c.483-.138 3.279-.937 6.234.78 10.316 5.99 18.982 17.463 30.896 18.059 12.226.611 22.381-9.925 33.595-14.834 3.389-1.484 6.215-.118 6.697.115s3.322 1.606 4.251 5.177c.055.213.35 1.346.223 2.742-2.869 31.537-5.817 63.068-8.725 94.602a8 8 0 0 1-2.853 5.398 8 8 0 0 1-2.684 1.474c-.008.003-3.145.343-3.148.342-1.008-.303-2.093-.419-3.024-.911a7.9 7.9 0 0 1-2.369-1.941 8.07 8.07 0 0 1-1.818-5.823c2.321-27.058 5.088-54.076 7.536-81.123" style="fill:#fff000"/><path d="M103.9 194.302c-.471-.129-3.177-.865-4.823-3.742a8.07 8.07 0 0 1-.784-6.05c8.113-30.596 16.618-61.087 24.928-91.63a8 8 0 0 1 3.742-4.824 8 8 0 0 1 2.898-.988c.008-.001 3.157.205 3.16.207.941.472 1.989.774 2.821 1.42a8 8 0 0 1 1.999 2.32c.242.424 1.631 2.852.784 6.05-8.113 30.596-16.619 61.087-24.928 91.63a8 8 0 0 1-3.742 4.823c-2.878 1.647-5.583.911-6.054.783m44.143 25.121a8 8 0 0 1-5.141-3.293c-.279-.4-1.882-2.695-1.323-5.955 5.681-33.167 11.763-66.265 17.645-99.397a8 8 0 0 1 3.294-5.14 8 8 0 0 1 2.798-1.245c.008-.001 3.162-.079 3.166-.078.979.387 2.05.594 2.937 1.162a7.9 7.9 0 0 1 2.198 2.132c.28.4 1.883 2.694 1.324 5.954-5.681 33.168-11.763 66.265-17.645 99.398a8 8 0 0 1-3.294 5.139 8 8 0 0 1-5.959 1.323" style="fill:#fff000"/><path d="m122.655 96.118 18.158 58.642-40.878-45.8z" style="fill:#3d55a5;stroke:#fff;stroke-width:5.68px"/><path d="M58.162 64.417c5.387-20.105 26.083-32.054 46.188-26.667 20.104 5.387 32.053 26.083 26.666 46.188-5.387 20.104-26.083 32.052-46.187 26.665-20.105-5.387-32.054-26.082-26.667-46.187Zm18.073 4.843c-2.715 10.13 3.306 20.558 13.436 23.272s20.558-3.306 23.272-13.436-3.306-20.558-13.436-23.273S78.949 59.13 76.234 69.26Z" style="fill:#3d55a5;stroke:#fff;stroke-width:5.68px"/></svg>