<svg xmlns="http://www.w3.org/2000/svg" xml:space="preserve" style="fill-rule:evenodd;clip-rule:evenodd;stroke-linejoin:round;stroke-miterlimit:2" viewBox="0 0 256 256"><path d="M256 64v128c0 35.322-28.678 64-64 64H64c-35.322 0-64-28.678-64-64V64C0 28.678 28.678 0 64 0h128c35.322 0 64 28.678 64 64" style="fill:#191763"/><path d="M63.121 0c123.596 85.334 121.41 170.666 0 256C28.283 256 0 227.322 0 192V64C0 28.678 28.283 0 63.121 0" style="fill:#262292"/><path d="M200.469 191.178c-.374 1.931.378 3.97.003 5.9-.187.969-.931 1.772-1.626 2.473a8.1 8.1 0 0 1-2.526 1.712c-14.919 6.423-29.974 12.522-44.978 18.74-.508.211-3.344 1.073-6.862-.463-8.959-3.909-19.135-11.765-41.109-19.416-16.495-5.743-30.138 8.338-46.671 13.97a7.73 7.73 0 0 1-5.887-.387 7.7 7.7 0 0 1-2.359-1.788 1059 1059 0 0 1-1.544-2.642c-.13-1.009-.455-2.012-.388-3.027a7.7 7.7 0 0 1 .778-2.856 7.7 7.7 0 0 1 1.787-2.36 8.1 8.1 0 0 1 2.634-1.54c17.585-6.194 35.282-12.06 52.942-18.038.486-.165 3.335-1.129 6.383.644 12.655 7.364 23.296 21.279 37.909 22.186 14.931.927 27.618-11.508 41.427-17.261 3.281-1.367 5.999-.42 6.49-.249.966.337 1.895.861 2.652 1.552.754.689 1.023 1.809 1.778 2.499z" style="fill:#fff000"/><path d="M192.951 114.413c-8.041 3.559-16.075 7.128-24.126 10.661-.514.226-3.604 1.581-7.009-.397-10.152-5.898-18.706-16.836-30.41-17.775-14.41-1.155-37.238-1.765-41.678 11.992-25.642 79.459-22.984 90.15-28.152 90.198-.472.004-.949 3.036-3.786 4.525a7.7 7.7 0 0 1-2.836.851c-.007 0-3.04-.311-3.044-.313-.891-.49-1.893-.819-2.673-1.472a7.7 7.7 0 0 1-1.847-2.313c-.219-.418-1.475-2.813-.541-5.87 9.608-31.447 19.561-62.788 29.391-94.167 1.007-3.218 3.598-4.452 4.043-4.665a8 8 0 0 1 1.187-.45q24.408-7.075 48.845-14.054c.467-.134 3.169-.905 6.025.753 9.969 5.79 18.344 16.877 29.859 17.453 11.815.591 21.63-9.591 32.466-14.336 3.276-1.434 6.007-.114 6.473.112.466.225 3.211 1.552 4.108 5.003.054.206.339 1.301.216 2.649-2.773 30.48-5.622 60.952-8.433 91.428a7.73 7.73 0 0 1-2.756 5.216 7.7 7.7 0 0 1-2.595 1.425c-.006.002-3.038.331-3.042.33-.974-.293-2.022-.405-2.922-.88a7.7 7.7 0 0 1-2.29-1.876c-.301-.363-2.03-2.441-1.756-5.628 2.242-26.15 4.917-52.261 7.283-78.4" style="fill:#fff000"/><path d="M104.71 196.2c-.456-.124-3.071-.835-4.662-3.616a7.8 7.8 0 0 1-.757-5.847c7.839-29.569 16.06-59.036 24.09-88.554a7.74 7.74 0 0 1 3.617-4.662 7.7 7.7 0 0 1 2.801-.955c.007-.001 3.051.198 3.054.2.908.457 1.922.749 2.726 1.372a7.7 7.7 0 0 1 1.931 2.243 7.8 7.8 0 0 1 .758 5.847c-7.841 29.57-16.061 59.036-24.091 88.554-.124.456-.835 3.071-3.616 4.662a7.74 7.74 0 0 1-5.851.756m42.66 24.278a7.73 7.73 0 0 1-4.966-3.183 7.8 7.8 0 0 1-1.28-5.755c5.49-32.054 11.369-64.04 17.053-96.06a7.74 7.74 0 0 1 3.183-4.968 7.7 7.7 0 0 1 2.704-1.203c.008-.001 3.057-.076 3.06-.075.946.374 1.981.573 2.838 1.122a7.7 7.7 0 0 1 2.125 2.06c.27.387 1.82 2.605 1.28 5.755-5.491 32.054-11.369 64.041-17.054 96.061a7.74 7.74 0 0 1-3.183 4.967 7.73 7.73 0 0 1-5.76 1.279" style="fill:#fff000"/><path d="m122.834 101.313 17.548 56.674-39.505-44.263z" style="fill:#00daff;stroke:#fff;stroke-width:5.97px"/><path d="M60.507 70.676c5.206-19.43 25.206-30.978 44.636-25.772s30.977 25.208 25.772 44.637c-5.207 19.43-25.208 30.978-44.637 25.771-19.43-5.206-30.978-25.207-25.771-44.636Zm17.465 4.679c-2.623 9.79 3.195 19.868 12.985 22.491 9.791 2.624 19.868-3.195 22.491-12.985s-3.195-19.868-12.985-22.491-19.868 3.196-22.491 12.985Z" style="fill:#00daff;stroke:#fff;stroke-width:5.97px"/></svg>