<svg xmlns="http://www.w3.org/2000/svg" xml:space="preserve" style="fill-rule:evenodd;clip-rule:evenodd" viewBox="0 0 256 256"><path d="M256 64v128c0 35.322-28.678 64-64 64H64c-35.322 0-64-28.678-64-64V64C0 28.678 28.678 0 64 0h128c35.322 0 64 28.678 64 64" style="fill:#191763"/><path d="M63.121 0c123.596 85.334 121.41 170.666 0 256C28.283 256 0 227.322 0 192V64C0 28.678 28.283 0 63.121 0" style="fill:#262292"/><path d="M27.837 27.837h96.289c-1.733 3.384-5.595 5.974-5.293 10.142.085 4.452 3.392 7.813 6.237 10.861 2.343-2.68 4.597-5.607 5.732-9.019.343-2.175.426-4.636-.826-6.561-1.24-1.976-2.743-3.776-4.394-5.423h102.581v200.326h-94.11c-1.71-2.594-3.498-5.247-4.16-8.33-1.021-4.449-.845-9.05-1.177-13.577-.278-7.837.227-15.706-.509-23.519-.098-5.732 0-11.468-.165-17.2-.285-2.722-.226-5.465-.285-8.196-.657-6.503-.109-13.053-.634-19.559-.074-8.409-.152-16.817-.152-25.225-.349.004-.693.012-1.041.019-.078 3.71-.169 7.415-.207 11.119-.274 3.124-.227 6.254-.294 9.38-.642 5.982-.187 12.011-.516 18.01-.384 3.638-.004 7.312-.466 10.943-.305 4.946.011 9.918-.438 14.86-.09 4.041.11 8.103-.426 12.125-.161 6.264.195 12.548-.364 18.8.003 4.919-.004 10.021-1.98 14.626-.928 2.015-2.011 3.983-3.393 5.724H27.837z" style="fill:none;fill-rule:nonzero"/><path d="M124.126 27.837h1.456c1.651 1.647 3.154 3.447 4.394 5.423 1.252 1.925 1.169 4.386.826 6.561-1.135 3.412-3.389 6.339-5.732 9.019-2.845-3.048-6.152-6.409-6.237-10.861-.302-4.168 3.56-6.758 5.293-10.142Zm18.507 15.306c.747-1.945 2.95-2.606 4.789-3.06.657 1.46 1.64 2.88 1.584 4.551.071 1.78.146 3.901-1.381 5.149-1.24.963-2.405 2.532-4.115 2.476-.885-1.221-1.656-2.609-1.941-4.104.14-1.709.497-3.393 1.064-5.012Zm-45.277 6.702c.509-2.042.951-4.315 2.398-5.904 4.395.458 8.194 3.49 10.729 6.976 1.225 1.558 1.385 3.584 1.287 5.49.114 3.24-1.549 6.127-2.821 8.987-3.94-1.19-8.396-2.7-10.517-6.522-1.178-2.825-1.443-6.01-1.076-9.027Zm59.347 5.11c2.156-1.901 5.29-1.862 8.001-1.975-.458 2.648-.716 5.645-2.762 7.625-1.718 1.835-4.426 1.863-6.757 1.894.172-2.5-.712-5.721 1.518-7.544Zm-84.908.505c3.15.121 6.476-.509 9.449.849 2.207.892 3.506 3.056 4.44 5.13.955 2.148 1.609 4.472 1.433 6.843-2.887.046-5.795.195-8.67-.086-2.258-.674-3.667-2.79-4.856-4.688-1.553-2.367-1.913-5.278-1.796-8.048Zm41.709 13.421c.946-.431 2.022.093 2.962.351 2.508.939 5.262 2.09 6.557 4.61 2.41 3.681.896 8.255-.098 12.148-1.792.098-3.267-.966-4.734-1.831-2.371-1.366-5.048-3.036-5.575-5.959-.247-3.106-.435-6.409.888-9.319Zm62.472 4.147c1.972-2.419 5.301-3.006 8.252-3.209.168 3.032-.035 6.491-2.441 8.674-1.742 1.711-4.304 1.687-6.569 1.581.011-2.343-.455-4.914.758-7.046Zm-20.596-2.403c2.105-.5 4.277-.399 6.417-.265-.321 2.636-.704 5.309-1.565 7.828-.607 1.78-1.972 3.142-3.529 4.132-.861.591-1.776 1.26-2.872 1.245-2.281.085-4.578.117-6.851-.146-.071-3.951 1.095-8.005 3.651-11.068 1.255-1.213 3.121-1.377 4.749-1.726Zm-94.047 8.991c2.571-.09 5.587-.145 7.481 1.894 1.612 2.106 2.375 4.856 2.16 7.492-1.35.008-2.673-.312-4.007-.469-1.014-.199-2.179-.227-2.938-1.025-.849-.837-1.601-1.788-2.16-2.84-.701-1.585-.485-3.365-.536-5.052Zm75.052 2.129c1.088-.524 1.459.818 1.506 1.639.102 1.901.058 3.917-.786 5.662-1.467 1.917-3.541 3.599-5.991 3.947-.865.259-1.154-.837-1.299-1.467-.129-1.858-.234-3.756.051-5.603 1.021-2.597 4.081-3.467 6.518-4.178zm65.677.422c2.723-.402 5.517-.332 8.251-.093.212 3.501.118 7.379-2.066 10.31-2.273 2.343-4.961 4.632-8.266 5.226-2.622.13-5.267.168-7.889.024-1.138-1.85-.148-4.116.29-6.049 1.091-2.477 1.949-5.247 4.089-7.055 1.545-1.388 3.622-1.905 5.591-2.363Zm-59.351 12.948c1.436-.514 2.954-1.171 4.511-.873 1.569 3.724 2.657 8.197.834 12.031-.806 1.772-1.413 3.831-3.131 4.961-3.129 2.137-7.073 2.222-10.724 2.066-.57-4.206-1.264-8.842.904-12.732 1.596-2.856 4.711-4.276 7.606-5.453Zm-30.299 2.217c2.535.181 5.654-.633 7.575 1.515 2.105 1.839 2.469 4.769 2.653 7.391-2.035-.023-4.14.192-6.116-.415-3.095-1.486-4.515-5.211-4.112-8.491Zm-63.345 1.992c3.553-1.052 7.453-2.25 11.069-.778 3.642 1.987 5.763 5.998 6.354 10-2.896 1.209-6.092 1.714-9.198 1.143-4.591-1.268-7.619-5.815-8.225-10.365Zm25.048 2.661c2.532.094 5.51-.763 7.637 1.033 2.082 1.749 2.763 4.605 2.688 7.222-2.022.02-4.065.157-6.072-.133-2.726-1.639-4.398-4.949-4.253-8.122Zm128.033 1.373c2.844-.419 6.143-.778 8.619 1.017 2.43 1.628 4.895 3.331 6.706 5.665-.966 1.429-2.37 2.47-3.588 3.671-2.773 2.261-6.33 3.975-10 3.392-3.141-.199-5.787-2.117-8.177-3.991-.893-.95-2.238-1.925-2.196-3.353 2.082-2.962 5.161-5.31 8.636-6.401Zm-98.097 7.927c3.678-1.072 8.232-1.15 11.1 1.784a19 19 0 0 1 3.916 8.412c-2.867.482-5.685 1.687-8.643 1.151-4.39-1.334-7.841-5.333-8.45-9.895-.005-1.061 1.303-1.194 2.077-1.452Zm21.879 1.291c.348-.007.692-.015 1.041-.019 0 8.408.078 16.816.152 25.225.525 6.506-.023 13.056.634 19.559.059 2.731 0 5.474.286 8.196.164 5.732.066 11.468.164 17.2.736 7.813.232 15.682.509 23.519.332 4.527.156 9.128 1.177 13.577.662 3.083 2.45 5.736 4.16 8.33h-16.207c1.382-1.741 2.465-3.709 3.393-5.724 1.976-4.605 1.983-9.707 1.98-14.626.559-6.252.203-12.536.364-18.8.536-4.022.336-8.084.426-12.126.449-4.941.133-9.913.439-14.859.461-3.631.081-7.305.465-10.943.329-5.999-.126-12.028.516-18.01.067-3.127.02-6.256.294-9.38.038-3.704.129-7.41.207-11.119Zm31.324 4.973c1.8-.528 3.799-.567 5.548.165 3.002 1.134 6.37 2.277 8.123 5.184-.07.575-.552.963-.891 1.389-2.353 2.398-4.571 5.168-7.811 6.397-1.842.645-3.837 1.307-5.798.814-1.397-.282-2.903-.31-4.144-1.08-1.866-1.124-3.567-2.504-5.211-3.928 2.132-4.066 5.642-7.724 10.184-8.941ZM44.133 118.75c4.175-2.371 9.543-.923 13.033 2.035-1.628 3.079-3.487 6.597-7.027 7.751-4.007.86-8.525-.227-11.468-3.161 1.358-2.528 2.848-5.2 5.462-6.625Zm36.141.834c1.924-.145 4.007-.352 5.787.556 2.574 1.263 4.871 3.106 6.592 5.406-3.082 2.337-6.264 5.177-10.329 5.341-3.85-.845-7.066-3.42-9.508-6.416 2.124-2.07 4.488-4.203 7.458-4.887Zm98.297 4.526c2.758-.938 6.139-1.615 8.681.208 1.452 1.381 2.74 3.118 3.252 5.071-2.003 1.522-4.703 1.991-7.129 1.408-2.856-.962-4.128-3.994-4.804-6.687Zm-44.702 4.305c1.776-1.323 4.112-1.562 6.252-1.761.771-.168 1.89.328 1.686 1.252-.395 2.465-1.056 5.211-3.082 6.855-1.883 1.522-4.41 1.299-6.671 1.267-.082-2.602-.314-5.692 1.815-7.613Zm-23.777 2.656c2.782-.598 5.568.611 7.751 2.27-1.467 2.93-4.394 5.474-7.798 5.434-1.866-.52-3.862-1.346-5.094-2.911 1.013-2.148 2.782-4.147 5.141-4.793Zm-45.829 8.451c1.034-1.764 2.661-3.321 4.696-3.799 2.464-.34 5.07.29 7.015 1.871-1.428 2.378-3.142 5.105-6.034 5.775-2.171.548-4.444-.489-5.884-2.105-.376-.521-.035-1.233.207-1.742Zm126.476 1.561c1.205-.758 2.762-.712 4.155-.821 2.672-.027 5.806-.341 7.841 1.781 2.348 2.475 4.174 5.735 4.272 9.209-2.962.184-5.83 1.635-8.823 1.057-2.739-.767-4.964-2.981-6.119-5.54-.77-1.796-1.69-3.674-1.326-5.686Zm-20.718 6.011c3.338-.576 7.438-1.081 9.977 1.697 2.027 2.328 3.768 5.267 3.737 8.448.094.669-.724.7-1.162.88-1.612.364-3.255.602-4.887.869-1.866.293-3.768-.395-5.251-1.503-1.972-1.51-2.907-3.909-3.924-6.091-.364-1.108-1.029-2.313-.665-3.491.661-.418 1.42-.638 2.175-.809Zm-106.885 2.637c4.461-1.495 9.313-.568 13.628.954.72 1.53-.321 3.255-.943 4.684-1.565 3.634-4.805 6.303-8.416 7.755-2.167.61-4.444.093-6.627-.177-2.02-.25-3.827-1.26-5.803-1.694.102-2.931 1.71-5.52 3.498-7.739 1.263-1.553 2.661-3.205 4.663-3.783Zm101.607 20.427c2.336-.313 4.727.446 6.691 1.683 2.327 2.105 2.817 5.453 2.606 8.439-3.068.317-6.179-.903-8.268-3.145-1.334-2.039-1.178-4.649-1.029-6.977Zm-84.724 2.978c1.839-1.953 4.735-1.393 7.133-1.523.079 2.661.165 5.822-2.183 7.627-1.777 1.925-4.523 1.838-6.925 1.827-.083-2.728-.161-5.889 1.975-7.931Zm27.733 3.252a7.6 7.6 0 0 1 1.538-.169c1.181 2.602 1.753 5.544 1.201 8.376-.748 2.63-2.368 5.22-4.922 6.398-1.8.849-3.752 1.812-5.799 1.299-1.009-3.24-1.271-6.839-.274-10.111 1.335-3.387 4.958-4.956 8.256-5.793Zm28.316 4.819c-.032-1.384-.595-3.767 1.341-4.061 3.483-.215 7.748-.544 10.248 2.414 2.222 2.802 3.224 6.483 3.286 10.025-3.043.399-6.295.766-9.195-.489-3.047-1.526-4.828-4.712-5.68-7.889Z" style="fill:#feec02;fill-rule:nonzero;stroke:#feec02;stroke-width:.1px"/><path d="M40.752 40.752h162.666v162.666H40.752z" style="fill:none"/><path d="M121.713 55.157c.629-.894 1.373-2.077 2.643-1.887 1.281.905 2.252 2.301 3.811 2.782 2.051.804 4.253.046 6.157-.8.591.486 1.183 1.008 1.498 1.725 1.065 2.169 1.819 4.47 2.783 6.681.303.887 1.231 1.228 1.971 1.664 1.362.709 2.68 1.525 3.807 2.583a9 9 0 0 1-1.411 4.86c-.947-.011-1.933.02-2.794-.432a156 156 0 0 1-9.221-4.804c-2.002-1.02-3.803-2.43-5.961-3.12-2.376-.956-5.038-1.642-6.843-3.58 1.13-1.926 2.362-3.788 3.56-5.672ZM92.248 73.95c4.132.049 8.123-1.352 12.261-1.168.215 2.414.48 4.837.29 7.265-1.073.384-2.206.695-3.138 1.383-.161.886.579 1.648.886 2.445 1.225 2.689 2.76 5.209 4.235 7.763.706 1.306 1.503 2.618 1.701 4.118-1.804 1.669-4.224 2.318-6.317 3.514-1.453.804-2.964 1.503-4.432 2.28-1.704.805-1.82 3.102-3.44 3.994-.381.155-.832.586-1.224.219-.423-.776-.639-1.648-.889-2.491-.999-3.776-2.086-7.527-3.197-11.27-.381-1.218-.607-2.534-1.426-3.557-.769.406-1.538.811-2.3 1.224-2.107-1.041-3.97-2.487-5.991-3.669-.9-.434-.346-1.496.144-2.026 1.645-2.014 2.957-4.283 4.665-6.252 1.778.688 3.768 1.75 5.66.822 1.785-.826 1.912-2.964 2.512-4.594Zm75.656 12.553c.566-.125 1.155-.084 1.73-.015 2.878.479 5.695 1.259 8.559 1.797 1.467.303 2.864-.414 4.321-.422.64.268 1.518.86 1.316 1.672-.351 1.819-1.298 3.439-1.891 5.181-.651 1.979-1.701 3.789-2.458 5.728-1.196 3.215-3.234 6.006-4.949 8.948-1.248 1.814-2.396 3.782-4.178 5.128-1.101.721-2.081-.497-2.857-1.152a149 149 0 0 0-7.349-6.903c-1.602-1.163-.903-3.427-.044-4.847 2.407-3.735 4.496-7.689 6.007-11.874.431-1.152.819-2.414 1.793-3.241Z" style="fill:#fff;fill-rule:nonzero;stroke:#feee03;stroke-width:.09px"/><path d="M163.688 108.595a113 113 0 0 1 1.56-.076 4.4 4.4 0 0 1-.206 1.713q-.662-.024-1.318-.042c-.017-.534-.026-1.064-.036-1.595Z" style="fill:#fff;fill-rule:nonzero;stroke:#fff;stroke-width:.08px"/><path d="M146.854 144.221c2.57-2.099 4.048-5.158 6.377-7.476 2.011 3.285 4.27 6.455 5.733 10.043 1.226 2.958 2.34 5.974 3.221 9.058.597 2.089 1.434 4.122 1.741 6.284-1.152 1.66-2.87 2.9-4.87 3.289-2.655-3.677-4.51-7.97-7.795-11.162-.156 3.104.044 6.214-.133 9.314-.322 2.211-.508 4.433-.704 6.658-.011.652-.363 1.293-.944 1.611-1.256.171-2.526.067-3.785.107-.789-1.555-.255-3.339-.522-4.999-.607-4.032-1.867-7.921-2.877-11.865-.56-2.214-1.49-4.303-2.363-6.402 2.196-1.66 4.844-2.63 6.921-4.46Zm-55.906-5.932c.679.199 1.346.479 1.91.923 2.173 1.641 4.319 3.335 6.202 5.317-.012 1.047-.051 2.104-.25 3.14-.989 4.872-2.1 9.721-3.001 14.616-.134.655-.38 1.285-.64 1.901-3.638-1.997-7.541-3.611-10.821-6.187.471-4.109 1.828-8.042 3.093-11.959 1.115-2.607 1.813-5.432 3.507-7.751Z" style="fill:#fff;fill-rule:nonzero;stroke:#feee03;stroke-width:.09px"/><path d="M86.329 140.669c.633-.257 1.304-.406 1.967-.579.214 1.469-.549 2.772-1.063 4.087-1.375 3.319-2.158 6.838-3.173 10.277-.46 1.403-.48 2.89-.464 4.354 2.399 1.859 5.524 2.53 7.77 4.619-1.882-.015-3.676-.632-5.485-1.065a11.2 11.2 0 0 1-3.792-1.721c-.203-2.507.595-4.915 1.043-7.349.514-2.97 1.445-5.845 1.951-8.816.322-1.288.495-2.692 1.246-3.807Zm13.417 6.095c.728-1.399 2.525-2.066 4.055-1.79 2.507.376 5.041.299 7.563.31-.322 2.17-1.169 4.209-1.687 6.333a203 203 0 0 0-2.66 12.155c-2.621.146-5.102-1.905-7.682-.824-.878.318-1.767.617-2.679.824.763-5.711 1.985-11.358 3.09-17.008Z" style="fill:#fff;fill-rule:nonzero;stroke:#feee03;stroke-width:.09px"/><path d="M109.846 153.936c.441-1.682.622-3.48 1.583-4.976.897.028.659 1.085.652 1.676-.395 3.07-1.403 6.022-2.028 9.05-.636 2.56-.901 5.286-2.3 7.59-2.917-1.1-5.665-2.615-8.682-3.454 2.882-1.223 5.723.728 8.64.705.384-3.591 1.318-7.083 2.135-10.591Z" style="fill:#fff;fill-rule:nonzero;stroke:#feee03;stroke-width:.09px"/></svg>