<svg xmlns="http://www.w3.org/2000/svg" xml:space="preserve" style="fill-rule:evenodd;clip-rule:evenodd" viewBox="0 0 356 356"><path d="M355.556 88.889v177.778c0 49.059-39.83 88.889-88.889 88.889H88.889C39.83 355.556 0 315.726 0 266.667V88.889C0 39.83 39.83 0 88.889 0h177.778c49.059 0 88.889 39.83 88.889 88.889" style="fill:#191763"/><path d="M88.749-.183c174.053 118.519 170.975 237.037 0 355.556-49.06 0-88.889-39.83-88.889-88.889V88.706C-.14 39.647 39.689-.183 88.749-.183" style="fill:#262292"/><path d="M38.489 38.489h133.902c-2.41 4.706-7.781 8.308-7.361 14.103.119 6.191 4.717 10.866 8.673 15.104 3.259-3.727 6.393-7.797 7.971-12.542.478-3.025.593-6.447-1.148-9.124-1.725-2.748-3.815-5.251-6.111-7.541h142.652v278.578H186.195c-2.378-3.607-4.864-7.296-5.784-11.584-1.42-6.186-1.175-12.585-1.637-18.88-.387-10.898.315-21.841-.708-32.706-.136-7.971 0-15.948-.229-23.919-.397-3.786-.315-7.6-.397-11.398-.914-9.043-.152-18.152-.881-27.199-.103-11.694-.212-23.386-.212-35.079-.485.006-.963.017-1.448.027-.108 5.159-.234 10.311-.288 15.463-.38 4.343-.315 8.696-.408 13.043-.893 8.319-.261 16.703-.718 25.045-.534 5.06-.006 10.169-.648 15.218-.424 6.878.016 13.793-.609 20.665-.125 5.62.153 11.268-.593 16.861-.223 8.711.272 17.45-.506 26.144.005 6.84-.005 13.935-2.753 20.339-1.29 2.802-2.797 5.539-4.718 7.96H38.489z" style="fill:none;fill-rule:nonzero"/><path d="M172.391 38.489h2.024c2.296 2.29 4.386 4.793 6.111 7.541 1.741 2.677 1.626 6.099 1.148 9.124-1.578 4.745-4.712 8.815-7.971 12.542-3.956-4.238-8.554-8.913-8.673-15.104-.42-5.795 4.951-9.397 7.361-14.103ZM198.127 59.774c1.039-2.705 4.103-3.624 6.66-4.255.914 2.03 2.28 4.005 2.203 6.328.098 2.475.202 5.425-1.921 7.16-1.724 1.339-3.345 3.521-5.723 3.444-1.23-1.698-2.302-3.629-2.699-5.707a28 28 0 0 1 1.48-6.97ZM135.164 69.094c.708-2.84 1.322-6.001 3.335-8.21 6.111.636 11.394 4.853 14.92 9.701 1.703 2.166 1.925 4.984 1.789 7.634.159 4.505-2.154 8.521-3.923 12.498-5.479-1.655-11.676-3.755-14.625-9.07-1.638-3.929-2.007-8.358-1.496-12.553ZM217.693 76.2c2.998-2.644 7.356-2.59 11.126-2.747-.636 3.683-.995 7.85-3.841 10.604-2.388 2.552-6.154 2.59-9.396 2.633.239-3.476-.99-7.955 2.111-10.49ZM99.618 76.902c4.38.169 9.005-.708 13.14 1.181 3.069 1.24 4.875 4.249 6.175 7.133 1.328 2.987 2.237 6.219 1.992 9.516-4.015.065-8.058.272-12.057-.119-3.14-.937-5.099-3.88-6.753-6.519-2.159-3.292-2.66-7.34-2.497-11.192ZM157.619 95.565c1.316-.599 2.813.13 4.119.489 3.488 1.306 7.318 2.906 9.119 6.41 3.351 5.12 1.246 11.48-.136 16.894-2.492.136-4.543-1.344-6.583-2.546-3.298-1.9-7.02-4.222-7.754-8.287-.343-4.32-.604-8.912 1.235-12.96ZM244.495 101.332c2.742-3.363 7.372-4.179 11.475-4.462.234 4.217-.049 9.027-3.395 12.063-2.422 2.378-5.985 2.345-9.135 2.198.016-3.259-.632-6.834 1.055-9.799ZM215.853 97.991c2.928-.696 5.948-.555 8.924-.369-.446 3.666-.979 7.383-2.176 10.886-.844 2.476-2.743 4.37-4.908 5.746-1.197.822-2.47 1.752-3.994 1.731-3.172.119-6.366.163-9.527-.202-.098-5.495 1.523-11.132 5.077-15.392 1.746-1.687 4.341-1.915 6.604-2.4ZM85.069 110.494c3.575-.125 7.77-.201 10.403 2.634 2.242 2.928 3.303 6.753 3.004 10.419-1.877.011-3.717-.435-5.572-.653-1.41-.277-3.03-.315-4.086-1.425-1.181-1.164-2.226-2.486-3.003-3.95-.975-2.204-.675-4.679-.746-7.025ZM189.438 113.455c1.513-.729 2.029 1.137 2.095 2.279.141 2.644.081 5.447-1.094 7.874-2.04 2.666-4.924 5.005-8.33 5.489-1.203.359-1.606-1.164-1.807-2.04-.179-2.585-.326-5.224.071-7.792 1.42-3.612 5.675-4.821 9.064-5.81ZM280.77 114.042c3.787-.56 7.672-.462 11.475-.13.294 4.869.163 10.261-2.873 14.337-3.161 3.259-6.899 6.442-11.496 7.268-3.646.18-7.324.234-10.97.033-1.583-2.573-.206-5.724.403-8.411 1.518-3.445 2.71-7.297 5.686-9.811 2.149-1.931 5.038-2.65 7.775-3.286ZM198.236 132.047c1.997-.714 4.108-1.628 6.273-1.214 2.182 5.179 3.694 11.399 1.159 16.731-1.121 2.464-1.964 5.327-4.353 6.899-4.352 2.971-9.837 3.09-14.914 2.873-.793-5.849-1.757-12.296 1.257-17.705 2.22-3.972 6.552-5.947 10.578-7.584ZM156.101 135.131c3.525.251 7.862-.881 10.534 2.106 2.927 2.557 3.433 6.632 3.689 10.278-2.83-.032-5.757.267-8.505-.577-4.304-2.067-6.279-7.247-5.718-11.807ZM68.012 137.901c4.94-1.464 10.364-3.129 15.392-1.083 5.065 2.764 8.015 8.341 8.836 13.907-4.026 1.681-8.471 2.383-12.791 1.589-6.383-1.763-10.594-8.086-11.437-14.413ZM102.844 141.601c3.521.13 7.662-1.061 10.621 1.436 2.895 2.432 3.842 6.404 3.738 10.044-2.813.027-5.653.218-8.444-.185-3.792-2.279-6.116-6.883-5.915-11.295ZM280.89 143.51c3.955-.582 8.542-1.082 11.986 1.415 3.379 2.264 6.807 4.631 9.326 7.878-1.344 1.987-3.297 3.434-4.99 5.105-3.857 3.144-8.803 5.527-13.906 4.716-4.369-.277-8.048-2.943-11.372-5.549-1.241-1.322-3.112-2.677-3.053-4.663 2.895-4.119 7.177-7.384 12.009-8.902ZM144.474 154.534c5.114-1.491 11.448-1.6 15.436 2.481 2.737 3.368 4.641 7.422 5.446 11.698-3.988.67-7.906 2.345-12.019 1.6-6.105-1.855-10.904-7.416-11.752-13.76-.006-1.475 1.812-1.66 2.889-2.019ZM174.899 156.329c.485-.01.963-.021 1.448-.027 0 11.693.109 23.385.212 35.079.729 9.047-.033 18.156.881 27.199.082 3.798 0 7.612.398 11.398.228 7.971.092 15.948.228 23.919 1.023 10.865.322 21.808.708 32.706.462 6.295.217 12.694 1.637 18.88.92 4.288 3.406 7.977 5.784 11.584h-22.537c1.921-2.421 3.428-5.158 4.718-7.96 2.748-6.404 2.758-13.499 2.753-20.339.778-8.694.283-17.433.506-26.144.746-5.593.468-11.241.593-16.862.625-6.871.185-13.786.61-20.664.641-5.049.113-10.158.647-15.218.457-8.342-.175-16.726.718-25.045.093-4.348.028-8.7.408-13.043.054-5.152.18-10.305.288-15.463ZM218.46 163.245c2.502-.735 5.283-.789 7.715.229 4.174 1.577 8.858 3.166 11.296 7.209-.098.8-.768 1.339-1.24 1.932-3.271 3.334-6.356 7.187-10.861 8.895-2.562.898-5.337 1.818-8.064 1.132-1.942-.392-4.037-.43-5.762-1.502-2.595-1.562-4.961-3.482-7.247-5.462 2.965-5.654 7.846-10.741 14.163-12.433ZM61.151 164.915c5.805-3.297 13.27-1.284 18.123 2.829-2.263 4.282-4.848 9.174-9.772 10.779-5.571 1.197-11.855-.315-15.947-4.396 1.888-3.515 3.961-7.231 7.596-9.212ZM111.409 166.074c2.676-.201 5.572-.489 8.047.773 3.58 1.757 6.774 4.32 9.168 7.519-4.287 3.249-8.711 7.199-14.364 7.427-5.354-1.175-9.827-4.756-13.222-8.923 2.954-2.878 6.241-5.844 10.371-6.796ZM248.103 172.369c3.835-1.305 8.537-2.247 12.073.289 2.018 1.92 3.809 4.336 4.521 7.051-2.785 2.117-6.539 2.769-9.913 1.959-3.972-1.338-5.74-5.555-6.681-9.299ZM185.94 178.355c2.47-1.84 5.718-2.172 8.694-2.449 1.072-.234 2.628.457 2.345 1.741-.55 3.428-1.469 7.247-4.287 9.533-2.618 2.117-6.132 1.806-9.277 1.762-.114-3.618-.436-7.916 2.525-10.587ZM152.874 182.049c3.869-.832 7.743.849 10.779 3.156-2.04 4.075-6.11 7.612-10.844 7.557-2.595-.723-5.37-1.872-7.084-4.048 1.409-2.987 3.869-5.767 7.149-6.665ZM89.144 193.801c1.437-2.453 3.7-4.619 6.53-5.283 3.427-.473 7.051.403 9.755 2.601-1.986 3.308-4.369 7.1-8.39 8.031-3.02.762-6.181-.68-8.183-2.927-.523-.724-.049-1.714.288-2.422ZM265.024 195.972c1.676-1.055 3.841-.99 5.778-1.142 3.716-.038 8.074-.474 10.904 2.476 3.265 3.443 5.805 7.976 5.941 12.807-4.119.256-8.107 2.274-12.269 1.47-3.809-1.067-6.904-4.146-8.51-7.705-1.071-2.497-2.35-5.109-1.844-7.906ZM236.214 204.33c4.641-.8 10.343-1.502 13.874 2.361 2.819 3.237 5.24 7.324 5.197 11.747.13.931-1.007.974-1.616 1.224-2.242.507-4.527.838-6.796 1.208-2.596.408-5.24-.549-7.302-2.089-2.743-2.1-4.043-5.436-5.457-8.471-.506-1.541-1.431-3.216-.925-4.854.919-.582 1.975-.887 3.025-1.126ZM87.577 207.997c6.203-2.078 12.95-.789 18.951 1.327 1.001 2.128-.446 4.527-1.311 6.514-2.177 5.054-6.682 8.765-11.704 10.784-3.014.848-6.18.13-9.216-.246-2.808-.348-5.322-1.752-8.07-2.355.142-4.076 2.378-7.677 4.865-10.763 1.757-2.159 3.7-4.456 6.485-5.261ZM228.874 236.404c3.248-.435 6.573.62 9.304 2.34 3.237 2.928 3.918 7.584 3.624 11.736-4.266.441-8.592-1.256-11.497-4.374-1.856-2.835-1.638-6.464-1.431-9.702ZM111.055 240.545c2.557-2.715 6.584-1.937 9.919-2.117.109 3.7.229 8.096-3.036 10.605-2.471 2.677-6.29 2.557-9.63 2.541-.115-3.793-.224-8.189 2.747-11.029ZM149.621 245.067c.702-.148 1.414-.23 2.138-.234 1.643 3.618 2.438 7.709 1.67 11.648-1.039 3.657-3.292 7.259-6.844 8.897-2.503 1.18-5.218 2.519-8.064 1.806-1.404-4.506-1.768-9.511-.381-14.06 1.856-4.711 6.894-6.893 11.481-8.057ZM188.997 251.769c-.044-1.925-.827-5.239 1.866-5.647 4.843-.299 10.774-.757 14.25 3.357 3.09 3.896 4.484 9.015 4.57 13.94-4.232.555-8.754 1.066-12.786-.68-4.238-2.122-6.714-6.552-7.9-10.97Z" style="fill:#feec02;fill-rule:nonzero;stroke:#feec02;stroke-width:.14px"/><path d="M56.449 56.449h226.208v226.208H56.449z" style="fill:none"/><path d="M169.035 76.481c.875-1.244 1.909-2.889 3.675-2.625 1.782 1.259 3.132 3.2 5.3 3.87 2.852 1.117 5.915.063 8.562-1.113.822.675 1.645 1.402 2.083 2.399 1.481 3.016 2.53 6.216 3.87 9.29.422 1.234 1.713 1.708 2.742 2.315 1.893.986 3.727 2.12 5.293 3.591a12.54 12.54 0 0 1-1.961 6.759c-1.318-.016-2.689.027-3.886-.601-4.35-2.072-8.621-4.324-12.823-6.681-2.784-1.418-5.289-3.379-8.289-4.338-3.305-1.33-7.007-2.284-9.516-4.978 1.571-2.679 3.284-5.268 4.95-7.888Z" style="fill:#fff;fill-rule:nonzero;stroke:#feee03;stroke-width:.13px"/><path d="M128.06 102.615c5.746.068 11.296-1.88 17.051-1.625.299 3.357.667 6.727.403 10.104-1.492.534-3.067.966-4.363 1.923-.225 1.232.805 2.291 1.232 3.4 1.703 3.739 3.837 7.243 5.889 10.795.981 1.816 2.09 3.641 2.365 5.727-2.508 2.321-5.874 3.223-8.784 4.887-2.021 1.118-4.122 2.09-6.163 3.17-2.37 1.119-2.532 4.313-4.784 5.554-.53.216-1.158.815-1.703.304-.588-1.079-.888-2.291-1.236-3.464-1.389-5.25-2.9-10.466-4.445-15.672-.53-1.693-.845-3.524-1.983-4.946-1.07.564-2.14 1.128-3.199 1.702-2.93-1.447-5.521-3.459-8.332-5.102-1.251-.604-.481-2.081.201-2.817 2.287-2.802 4.112-5.957 6.487-8.695 2.473.957 5.24 2.434 7.871 1.143 2.482-1.148 2.659-4.122 3.493-6.388ZM233.269 120.071c.788-.173 1.607-.117 2.406-.02 4.003.666 7.92 1.75 11.903 2.498 2.04.422 3.983-.575 6.008-.586.89.372 2.111 1.196 1.831 2.325-.488 2.529-1.805 4.782-2.63 7.204-.905 2.752-2.365 5.27-3.418 7.966-1.663 4.471-4.497 8.352-6.883 12.443-1.735 2.523-3.332 5.259-5.809 7.132-1.531 1.002-2.894-.692-3.973-1.603a207 207 0 0 0-10.22-9.599c-2.228-1.618-1.256-4.766-.061-6.74 3.347-5.194 6.252-10.693 8.353-16.513.6-1.602 1.139-3.357 2.493-4.507Z" style="fill:#fff;fill-rule:nonzero;stroke:#feee03;stroke-width:.12px"/><path d="M227.407 150.793q1.08-.06 2.169-.106a6.1 6.1 0 0 1-.287 2.382q-.92-.032-1.833-.058c-.023-.742-.036-1.48-.049-2.218Z" style="fill:#fff;fill-rule:nonzero;stroke:#fff;stroke-width:.11px"/><path d="M203.997 200.336c3.574-2.92 5.629-7.174 8.868-10.397 2.796 4.568 5.938 8.976 7.972 13.966 1.705 4.114 3.255 8.307 4.48 12.596.83 2.905 1.993 5.732 2.42 8.739-1.601 2.308-3.99 4.033-6.772 4.574-3.692-5.114-6.272-11.083-10.84-15.522-.216 4.316.062 8.641-.185 12.952-.448 3.074-.706 6.164-.979 9.259-.015.907-.504 1.798-1.313 2.24-1.746.238-3.512.093-5.263.149-1.097-2.162-.355-4.644-.726-6.952-.844-5.607-2.596-11.015-4.001-16.5-.778-3.079-2.071-5.984-3.286-8.903 3.054-2.308 6.736-3.657 9.625-6.201ZM126.253 192.086c.944.277 1.871.666 2.655 1.284 3.022 2.282 6.007 4.638 8.625 7.394-.016 1.455-.07 2.926-.347 4.366-1.376 6.775-2.921 13.519-4.174 20.326-.186.911-.528 1.786-.89 2.643-5.059-2.777-10.486-5.021-15.048-8.603.655-5.715 2.542-11.184 4.301-16.631 1.551-3.625 2.522-7.554 4.878-10.779Z" style="fill:#fff;fill-rule:nonzero;stroke:#feee03;stroke-width:.13px"/><path d="M119.829 195.396c.88-.357 1.813-.565 2.735-.805.298 2.042-.763 3.854-1.477 5.683-1.913 4.616-3.001 9.509-4.413 14.291-.64 1.951-.667 4.02-.646 6.056 3.337 2.585 7.682 3.518 10.806 6.423-2.617-.021-5.112-.879-7.628-1.482-1.887-.469-3.684-1.263-5.273-2.393-.282-3.486.827-6.834 1.45-10.219.715-4.131 2.01-8.129 2.714-12.26.447-1.791.688-3.743 1.732-5.294ZM138.487 203.872c1.012-1.946 3.512-2.873 5.639-2.489 3.487.522 7.01.415 10.518.431-.448 3.017-1.626 5.853-2.346 8.806a282 282 0 0 0-3.699 16.904c-3.646.202-7.096-2.65-10.683-1.146-1.221.442-2.457.858-3.726 1.146 1.061-7.943 2.761-15.795 4.297-23.652Z" style="fill:#fff;fill-rule:nonzero;stroke:#feee03;stroke-width:.13px"/><path d="M152.533 213.845c.613-2.339.864-4.839 2.201-6.919 1.248.038.917 1.509.906 2.33-.548 4.27-1.95 8.374-2.819 12.586-.885 3.56-1.253 7.35-3.199 10.554-4.056-1.53-7.878-3.636-12.073-4.803 4.008-1.701 7.958 1.013 12.015.981.533-4.995 1.833-9.851 2.969-14.729Z" style="fill:#fff;fill-rule:nonzero;stroke:#feee03;stroke-width:.13px"/></svg>