<svg xmlns="http://www.w3.org/2000/svg" xml:space="preserve" style="fill-rule:evenodd;clip-rule:evenodd;stroke-linejoin:round;stroke-miterlimit:2" viewBox="0 0 256 256"><path d="M256 64v128c0 35.322-28.678 64-64 64H64c-35.322 0-64-28.678-64-64V64C0 28.678 28.678 0 64 0h128c35.322 0 64 28.678 64 64" style="fill:#191763"/><path d="M63.121 0c123.596 85.334 121.41 170.666 0 256C28.283 256 0 227.322 0 192V64C0 28.678 28.283 0 63.121 0" style="fill:#262292"/><path d="M123.344 114.033h58.971c16.285 0 29.485 12.507 29.485 27.934v46.555c0 15.428-13.2 27.934-29.485 27.934-16.284 0-29.486-12.506-29.486-27.934v-46.555c0-15.427-13.201-27.934-29.485-27.934" style="fill:#fff;fill-rule:nonzero"/><path d="M62.822 132.655c0-15.426 12.506-27.933 27.933-27.933H128c15.427 0 27.933 12.507 27.933 27.933v55.867c0 15.428 12.507 27.934 27.934 27.934h-74.49c-25.712 0-46.555-20.844-46.555-46.556z" style="fill:#fff000;fill-rule:nonzero"/><path d="M179.211 104.722c12.856 0 23.278-10.422 23.278-23.278s-10.422-23.278-23.278-23.278-23.278 10.422-23.278 23.278 10.422 23.278 23.278 23.278" style="fill:#fff;fill-rule:nonzero"/><path d="M109.378 95.411c15.427 0 27.933-12.507 27.933-27.933 0-15.428-12.506-27.934-27.933-27.934-15.428 0-27.934 12.506-27.934 27.934 0 15.426 12.506 27.933 27.934 27.933" style="fill:#fff000;fill-rule:nonzero"/><path d="M118.689 129.623v71.244a1.634 1.634 0 0 1-1.623 1.623H45.823a1.634 1.634 0 0 1-1.623-1.623v-71.244A1.633 1.633 0 0 1 45.823 128h71.243c.89.001 1.622.733 1.623 1.623" style="fill:#4e5ed7"/><path d="M97.642 151.768H86.249v34.759h-9.613v-34.759H65.244v-7.806h32.398z" style="fill:#fff;fill-rule:nonzero"/></svg>