<svg xmlns="http://www.w3.org/2000/svg" xml:space="preserve" style="fill-rule:evenodd;clip-rule:evenodd;stroke-linejoin:round;stroke-miterlimit:2" viewBox="0 0 356 356"><path d="M355.556 88.889v177.778c0 49.059-39.83 88.889-88.889 88.889H88.889C39.83 355.556 0 315.726 0 266.667V88.889C0 39.83 39.83 0 88.889 0h177.778c49.059 0 88.889 39.83 88.889 88.889" style="fill:#191763"/><path d="M88.749-.183c174.053 118.519 170.975 237.037 0 355.556-49.06 0-88.889-39.83-88.889-88.889V88.706C-.14 39.647 39.689-.183 88.749-.183" style="fill:#262292"/><path d="M171.233 158.172h82.006c22.646 0 41.003 17.392 41.003 38.846v64.741c0 21.454-18.357 38.845-41.003 38.845-22.645 0-41.003-17.391-41.003-38.845v-64.741c0-21.454-18.358-38.846-41.003-38.846" style="fill:#7779e0;fill-rule:nonzero"/><path d="M87.069 184.069c0-21.453 17.391-38.845 38.845-38.845h51.793c21.454 0 38.845 17.392 38.845 38.845v77.69c0 21.454 17.392 38.845 38.845 38.845H151.81c-35.756 0-64.741-28.986-64.741-64.742z" style="fill:#fff000;fill-rule:nonzero"/><path d="M248.923 145.224c17.878 0 32.371-14.493 32.371-32.371s-14.493-32.371-32.371-32.371-32.371 14.493-32.371 32.371 14.493 32.371 32.371 32.371" style="fill:#fff;fill-rule:nonzero"/><path d="M151.811 132.276c21.453 0 38.845-17.392 38.845-38.845 0-21.454-17.392-38.845-38.845-38.845-21.454 0-38.845 17.391-38.845 38.845 0 21.453 17.391 38.845 38.845 38.845" style="fill:#fff000;fill-rule:nonzero"/><path d="M164.76 179.852v99.073a2.26 2.26 0 0 1-2.257 2.257H63.43a2.26 2.26 0 0 1-2.257-2.257v-99.073a2.26 2.26 0 0 1 2.257-2.257h99.073a2.26 2.26 0 0 1 2.257 2.257" style="fill:url(#a)"/><path d="M135.491 210.648h-15.843v48.336H106.28v-48.336H90.437v-10.856h45.054z" style="fill:#fff;fill-rule:nonzero"/><defs><radialGradient id="a" cx="0" cy="0" r="1" gradientTransform="rotate(45 -183.79 162.64)scale(146.494)" gradientUnits="userSpaceOnUse"><stop offset="0" style="stop-color:#688eff;stop-opacity:1"/><stop offset=".05" style="stop-color:#688eff;stop-opacity:1"/><stop offset=".95" style="stop-color:#230f94;stop-opacity:1"/><stop offset="1" style="stop-color:#230f94;stop-opacity:1"/></radialGradient></defs></svg>