<svg xmlns="http://www.w3.org/2000/svg" xml:space="preserve" style="fill-rule:evenodd;clip-rule:evenodd;stroke-linejoin:round;stroke-miterlimit:2" viewBox="0 0 356 356"><path d="M355.556 88.889v177.778c0 49.059-39.83 88.889-88.889 88.889H88.889C39.83 355.556 0 315.726 0 266.667V88.889C0 39.83 39.83 0 88.889 0h177.778c49.059 0 88.889 39.83 88.889 88.889" style="fill:#191763"/><path d="M88.749-.183c174.053 118.519 170.975 237.037 0 355.556-49.06 0-88.889-39.83-88.889-88.889V88.706C-.14 39.647 39.689-.183 88.749-.183" style="fill:#262292"/><path d="M292.604 115.95c6.103 1.331 9.859 3.495 9.868 6.816v147.22a2.71 2.71 0 0 1-2.709 2.708c-14.191 0-80.059 0-99.513.037-3.053 0-6.052.804-8.696 2.33-3.467 2.023-7.749 3.221-12.389 3.221-4.59 0-8.832-1.176-12.255-3.188a18.3 18.3 0 0 0-9.057-2.4H55.792a2.71 2.71 0 0 1-2.708-2.708v-147.22c0-4.082 4.644-6.579 12.103-7.974v-12.701c0-1.115.684-2.117 1.724-2.523l.55-.215c.769-.301 19.22-7.473 43.853-7.473 26.368 0 49.099 8.036 67.574 23.896 18.49-15.86 41.22-23.896 67.573-23.896 24.406 0 42.744 7.041 43.842 7.456l.042.016.542.214a2.71 2.71 0 0 1 1.717 2.52zm-119.106 78.952v-74.205c-17.056-14.321-37.916-21.669-62.192-21.669-18.467 0-33.478 4.336-38.971 6.175v145.578c9.432-3.781 20.504-5.699 32.995-5.699 27.8 0 55.576 9.278 68.114 14.099v-63.518q0-.389.054-.761m10.71 64.142c12.167-4.964 38.791-14.335 66.58-14.335 12.879 0 24.515 2.045 34.643 6.119V105.203c-5.508-1.831-20.559-6.175-38.978-6.175-24.276 0-45.144 7.348-62.184 21.669v86.897l-.061-.067z" style="fill:#fff000"/><path d="M130.507 126.747a2.706 2.706 0 0 0 2.145 2.645c11.506 2.437 20.25 6.148 24.198 8.008a2.7 2.7 0 0 0 3.558-1.114q.105-.175.203-.355a2.71 2.71 0 0 0-1.101-3.708c-4.219-2.032-13.492-6.036-25.767-8.623a2.675 2.675 0 0 0-3.231 2.623q-.008.266-.005.524M130.507 143.152a2.71 2.71 0 0 0 2.146 2.646c11.459 2.422 20.179 6.116 24.15 7.987a2.7 2.7 0 0 0 3.604-1.09q.108-.177.207-.359a2.71 2.71 0 0 0-1.101-3.706c-4.215-2.029-13.478-6.028-25.74-8.612a2.704 2.704 0 0 0-3.261 2.648q-.008.247-.005.486M130.507 158.569a2.71 2.71 0 0 0 2.145 2.645c11.46 2.426 20.18 6.117 24.151 7.988a2.7 2.7 0 0 0 3.604-1.091q.109-.178.208-.363a2.705 2.705 0 0 0-1.09-3.7c-4.209-2.028-13.477-6.029-25.752-8.614a2.7 2.7 0 0 0-3.261 2.648q-.008.246-.005.487M130.507 175.466a2.71 2.71 0 0 0 2.145 2.645c11.506 2.437 20.25 6.152 24.199 8.014a2.704 2.704 0 0 0 3.558-1.113q.104-.175.202-.355a2.71 2.71 0 0 0-1.099-3.707c-4.215-2.032-13.477-6.035-25.739-8.618a2.7 2.7 0 0 0-3.261 2.647q-.008.246-.005.487M89.196 188.051a2.707 2.707 0 0 0-1.987 3.326q.044.19.096.379a2.71 2.71 0 0 0 3.242 1.939c30.654-7.116 58.294 4.281 66.296 8.078a2.705 2.705 0 0 0 3.572-1.111q.101-.175.198-.351a2.71 2.71 0 0 0-1.138-3.726c-8.515-4.129-37.373-16.206-70.279-8.534M89.196 204.133a2.7 2.7 0 0 0-1.987 3.325q.044.19.096.378a2.71 2.71 0 0 0 3.243 1.938c30.637-7.124 58.264 4.255 66.282 8.063a2.705 2.705 0 0 0 3.586-1.101q.1-.172.197-.348a2.705 2.705 0 0 0-1.128-3.722c-8.503-4.132-37.371-16.21-70.289-8.533M89.196 220.252a2.704 2.704 0 0 0-1.988 3.326q.046.19.097.378a2.71 2.71 0 0 0 3.243 1.939c30.674-7.138 58.33 4.286 66.311 8.073a2.705 2.705 0 0 0 3.557-1.116q.099-.173.196-.349a2.706 2.706 0 0 0-1.133-3.725c-8.509-4.131-37.372-16.206-70.283-8.526M199.056 136.73a2.71 2.71 0 0 0 3.555 1.108c7.967-3.784 35.632-15.217 66.313-8.084a2.705 2.705 0 0 0 3.238-1.936q.056-.188.105-.377a2.71 2.71 0 0 0-1.991-3.331c-32.899-7.673-61.758 4.396-70.285 8.537a2.707 2.707 0 0 0-1.128 3.731q.094.178.193.352M200.004 149.05a2.707 2.707 0 0 0-1.134 3.721q.094.177.19.35a2.71 2.71 0 0 0 3.559 1.118c7.978-3.788 35.633-15.216 66.304-8.08a2.703 2.703 0 0 0 3.238-1.937q.057-.19.107-.384a2.71 2.71 0 0 0-1.99-3.33c-32.9-7.675-61.761 4.406-70.274 8.542M200.009 164.458a2.703 2.703 0 0 0-1.14 3.722q.094.178.192.353a2.707 2.707 0 0 0 3.575 1.112c8-3.8 35.64-15.199 66.289-8.084a2.706 2.706 0 0 0 3.237-1.936q.055-.184.103-.37a2.71 2.71 0 0 0-1.99-3.332c-32.892-7.667-61.748 4.404-70.266 8.535M200.003 181.362a2.707 2.707 0 0 0-1.133 3.721q.093.177.19.351a2.71 2.71 0 0 0 3.561 1.118c7.98-3.791 35.634-15.217 66.303-8.087a2.705 2.705 0 0 0 3.238-1.936q.055-.188.105-.377a2.71 2.71 0 0 0-1.99-3.331c-32.9-7.682-61.762 4.404-70.274 8.541M200.001 197.018a2.706 2.706 0 0 0-1.136 3.718q.096.182.196.361a2.71 2.71 0 0 0 3.577 1.113c8.002-3.801 35.639-15.203 66.286-8.084a2.705 2.705 0 0 0 3.238-1.936q.055-.187.104-.376a2.71 2.71 0 0 0-1.99-3.331c-32.903-7.671-61.767 4.403-70.275 8.535M200.004 213.097a2.704 2.704 0 0 0-1.134 3.721q.093.177.191.35a2.71 2.71 0 0 0 3.56 1.118c7.98-3.788 35.635-15.211 66.304-8.086a2.703 2.703 0 0 0 3.237-1.936 8 8 0 0 0 .103-.369 2.707 2.707 0 0 0-1.989-3.332c-32.899-7.675-61.759 4.4-70.272 8.534M200.011 229.216a2.706 2.706 0 0 0-1.137 3.725q.091.174.187.345a2.71 2.71 0 0 0 3.527 1.132c7.938-3.767 35.625-15.244 66.336-8.099a2.704 2.704 0 0 0 3.238-1.936q.055-.186.105-.376a2.71 2.71 0 0 0-1.99-3.331c-32.891-7.673-61.745 4.404-70.266 8.54" style="fill:#fff000;fill-rule:nonzero"/><path d="M124.24 176.652v-54.663s-9.305-1.062-18.871-.808c-9.55.261-18.87 3.17-18.87 3.17v54.655s7.791-2.307 17.84-3.035c10.034-.729 19.901.681 19.901.681" style="fill:#00daff;fill-rule:nonzero"/></svg>