<svg xmlns="http://www.w3.org/2000/svg" xml:space="preserve" style="fill-rule:evenodd;clip-rule:evenodd;stroke-linejoin:round;stroke-miterlimit:2" viewBox="0 0 256 256"><path d="M256 64v128c0 35.322-28.678 64-64 64H64c-35.322 0-64-28.678-64-64V64C0 28.678 28.678 0 64 0h128c35.322 0 64 28.678 64 64" style="fill:#191763"/><path d="M63.121 0c123.596 85.334 121.41 170.666 0 256C28.283 256 0 227.322 0 192V64C0 28.678 28.283 0 63.121 0" style="fill:#262292"/><path d="M210.572 86.306c4.388.957 7.089 2.513 7.096 4.901v105.866a1.96 1.96 0 0 1-1.948 1.947c-10.205 0-57.571 0-71.56.027-2.196 0-4.352.578-6.254 1.675-2.493 1.455-5.572 2.317-8.909 2.317-3.3 0-6.351-.846-8.812-2.293a13.16 13.16 0 0 0-6.513-1.726H40.28a1.96 1.96 0 0 1-1.948-1.947V91.207c0-2.935 3.34-4.731 8.704-5.734v-9.134c0-.801.492-1.522 1.239-1.814l.396-.154c.553-.217 13.821-5.374 31.535-5.374 18.961 0 35.307 5.778 48.592 17.183 13.296-11.405 29.642-17.183 48.592-17.183 17.55 0 30.737 5.063 31.527 5.361l.03.012.39.154a1.95 1.95 0 0 1 1.235 1.812zm-85.65 56.774V89.719C112.657 79.421 97.657 74.137 80.2 74.137c-13.28 0-24.074 3.118-28.024 4.44v104.686c6.782-2.719 14.744-4.099 23.727-4.099 19.991 0 39.964 6.672 48.98 10.139v-45.676q0-.28.039-.547m7.702 46.125c8.749-3.57 27.894-10.309 47.878-10.309 9.261 0 17.628 1.471 24.911 4.4V78.577c-3.96-1.316-14.784-4.44-28.029-4.44-17.457 0-32.463 5.284-44.716 15.582v62.488l-.044-.048z" style="fill:#fff000"/><path d="M94.007 94.07a1.95 1.95 0 0 0 1.543 1.902c8.274 1.752 14.562 4.421 17.401 5.758a1.95 1.95 0 0 0 2.558-.801q.076-.126.146-.255a1.95 1.95 0 0 0-.792-2.667c-3.033-1.461-9.702-4.34-18.529-6.2a1.932 1.932 0 0 0-2.323 1.881v.005a10 10 0 0 0-.004.377m0 11.796a1.954 1.954 0 0 0 1.544 1.903c8.24 1.742 14.51 4.398 17.366 5.744a1.95 1.95 0 0 0 2.591-.784q.078-.128.149-.258a1.95 1.95 0 0 0-.791-2.665c-3.031-1.459-9.692-4.335-18.51-6.193a1.954 1.954 0 0 0-2.345 1.903v.001a8 8 0 0 0-.004.349m0 11.087a1.955 1.955 0 0 0 1.543 1.902c8.241 1.744 14.511 4.399 17.367 5.744a1.95 1.95 0 0 0 2.591-.784q.08-.129.15-.261a1.946 1.946 0 0 0-.784-2.661c-3.026-1.459-9.691-4.336-18.518-6.195a1.95 1.95 0 0 0-2.345 1.9v.005a8 8 0 0 0-.004.35m0 12.151a1.956 1.956 0 0 0 1.543 1.902c8.274 1.752 14.562 4.423 17.401 5.762a1.953 1.953 0 0 0 2.559-.8q.075-.126.145-.255a1.95 1.95 0 0 0-.79-2.666c-3.031-1.461-9.691-4.34-18.509-6.197a2 2 0 0 0-.403-.043 1.95 1.95 0 0 0-1.942 1.942v.004q-.006.177-.004.351m-29.706 9.049a1.953 1.953 0 0 0-1.429 2.392q.031.136.069.273a1.96 1.96 0 0 0 2.331 1.394c22.043-5.117 41.919 3.078 47.674 5.809a1.954 1.954 0 0 0 2.568-.799q.073-.126.143-.252a1.95 1.95 0 0 0-.819-2.68c-6.123-2.969-26.875-11.654-50.537-6.137m0 11.565a1.946 1.946 0 0 0-1.429 2.391q.031.137.069.272a1.956 1.956 0 0 0 2.332 1.393c22.031-5.122 41.898 3.06 47.663 5.799a1.955 1.955 0 0 0 2.579-.792l.142-.25a1.947 1.947 0 0 0-.812-2.677c-6.114-2.971-26.873-11.657-50.544-6.136m0 11.591a1.95 1.95 0 0 0-1.43 2.392q.033.137.07.272a1.957 1.957 0 0 0 2.332 1.394c22.058-5.133 41.945 3.082 47.684 5.805a1.953 1.953 0 0 0 2.558-.802l.141-.251a1.944 1.944 0 0 0-.815-2.679c-6.119-2.97-26.874-11.654-50.54-6.131m79-60.061a1.956 1.956 0 0 0 2.556.797c5.73-2.721 25.623-10.942 47.686-5.813a1.955 1.955 0 0 0 2.329-1.392q.04-.135.075-.271a1.955 1.955 0 0 0-1.432-2.396c-23.657-5.517-44.41 3.162-50.542 6.139a1.95 1.95 0 0 0-.811 2.683q.068.129.139.253m.682 8.86a1.95 1.95 0 0 0-.816 2.676l.137.251a1.956 1.956 0 0 0 2.559.804c5.737-2.724 25.624-10.942 47.679-5.81a1.954 1.954 0 0 0 2.329-1.393q.04-.137.077-.276.065-.246.065-.499c0-.899-.622-1.687-1.496-1.896-23.659-5.519-44.413 3.169-50.534 6.143m.003 11.08a1.946 1.946 0 0 0-.819 2.676q.067.128.138.254a1.955 1.955 0 0 0 2.57.8c5.753-2.733 25.629-10.93 47.669-5.814a1.955 1.955 0 0 0 2.328-1.392q.04-.132.074-.266a1.955 1.955 0 0 0-1.431-2.396c-23.653-5.513-44.403 3.167-50.529 6.138m-.004 12.155a1.95 1.95 0 0 0-.815 2.676q.067.127.137.253a1.957 1.957 0 0 0 2.561.803c5.738-2.726 25.624-10.942 47.678-5.815a1.954 1.954 0 0 0 2.329-1.392q.039-.136.075-.271a1.953 1.953 0 0 0-1.431-2.395c-23.658-5.525-44.413 3.166-50.534 6.141m-.001 11.259a1.946 1.946 0 0 0-.817 2.673q.069.13.141.26a1.957 1.957 0 0 0 2.572.8c5.754-2.733 25.628-10.932 47.666-5.813a1.956 1.956 0 0 0 2.329-1.392q.04-.135.074-.271.066-.246.066-.499c0-.899-.622-1.687-1.497-1.896-23.66-5.516-44.416 3.166-50.534 6.138m.002 11.562a1.946 1.946 0 0 0-.816 2.676q.067.128.138.251a1.956 1.956 0 0 0 2.56.804c5.738-2.724 25.625-10.938 47.679-5.814a1.954 1.954 0 0 0 2.328-1.392q.04-.132.074-.266.065-.246.066-.502c0-.899-.622-1.686-1.497-1.894-23.657-5.519-44.411 3.164-50.532 6.137m.005 11.591a1.95 1.95 0 0 0-.818 2.679q.066.125.135.248a1.957 1.957 0 0 0 2.536.814c5.708-2.709 25.618-10.962 47.702-5.824a1.953 1.953 0 0 0 2.329-1.392q.039-.134.075-.271.065-.246.065-.499c0-.899-.622-1.687-1.496-1.896-23.652-5.518-44.401 3.167-50.528 6.141" style="fill:#fff000;fill-rule:nonzero"/><path d="M89.501 129.956V90.648s-6.691-.764-13.57-.581c-6.868.188-13.57 2.28-13.57 2.28v39.302s5.603-1.659 12.829-2.182c7.215-.525 14.311.489 14.311.489" style="fill:#00daff;fill-rule:nonzero"/></svg>