<svg xmlns="http://www.w3.org/2000/svg" xml:space="preserve" style="fill-rule:evenodd;clip-rule:evenodd;stroke-linejoin:round;stroke-miterlimit:2" viewBox="0 0 356 356"><path d="M355.556 88.889v177.778c0 49.059-39.83 88.889-88.889 88.889H88.889C39.83 355.556 0 315.726 0 266.667V88.889C0 39.83 39.83 0 88.889 0h177.778c49.059 0 88.889 39.83 88.889 88.889" style="fill:#fff"/><path d="M88.749-.183c174.053 118.519 170.975 237.037 0 355.556-49.06 0-88.889-39.83-88.889-88.889V88.706C-.14 39.647 39.689-.183 88.749-.183" style="fill:#fff"/><path d="M48.569 48.072h78.447v78.499H48.569z" style="fill:#fb4725"/><path d="M137.17 48.072h81.076v78.499H137.17z" style="fill:#ff7b39"/><path d="M228.348 48.072h78.499v78.499h-78.499z" style="fill:#fc9b3a"/><path d="M48.569 137.498h78.447v81.076H48.569z" style="fill:#22b45c"/><path d="M137.17 137.498h81.076v81.076H137.17z" style="fill:#91ca06"/><path d="M228.348 137.498h78.499v81.076h-78.499z" style="fill:#d6d230"/><path d="M48.569 228.985h78.447v78.499H48.569z" style="fill:#0066b6"/><path d="M137.17 228.985h81.076v78.499H137.17z" style="fill:#429acc"/><path d="M228.348 228.985h78.499v78.499h-78.499z" style="fill:#6cbadd"/><path d="M82.071 112.861h13.401V73.173h14.947V61.834h-43.81v11.339h15.462z" style="fill:#fff;fill-rule:nonzero"/><path d="M171.239 61.834h13.401v51.027h-13.401z" style="fill:#fff"/><path d="m256.799 78.121 15.669 34.74h17.833V61.834h-12.37v35.1l-15.462-35.1h-18.04v51.027h12.37zM111.141 152.033H94.905l-15.411 18.761v-18.761H66.093v51.026h13.401v-20.668l16.442 20.668h16.854l-23.245-27.008zM193.918 193.266H172.27v-11.339h20.101v-9.793H172.27v-9.793h20.617v-10.308h-34.018v51.026h35.049zM285.147 166.103c0-8.762-6.855-14.07-18.349-14.07h-20.307v51.026h12.885v-20.101h2.68c4.433 0 5.361 1.391 7.474 7.061l4.639 13.04H288.6l-6.855-17.37c-1.443-3.556-2.835-5.978-5.154-7.525 5.515-2.061 8.556-6.339 8.556-12.061m-13.401 1.031c0 5.051-4.793 6.082-8.814 6.082h-3.556v-11.339h3.866c6.133-.051 8.504 1.443 8.504 5.257M103.1 281.712c-2.834 1.289-6.133 1.907-9.844 1.907-9.638 0-15.411-5.927-15.411-15.823 0-9.484 6.288-15.823 15.617-15.823 3.144 0 6.701.67 9.484 1.855l1.701.722.567-10.876-.98-.309c-3.814-1.134-8.453-1.804-12.473-1.804-16.081 0-27.781 11.03-27.781 26.235.052 8.092 2.732 14.793 7.886 19.431 4.896 4.433 11.803 6.804 19.947 6.804 4.69 0 9.226-.773 12.731-2.113l.876-.361-.619-10.618zM170.157 242.231l-19.432 51.027h13.35l4.381-12.37h18.761l4.278 12.37h13.968l-19.483-51.027zm13.916 28.864H171.6l6.34-17.061zM263.293 242.231h-18.349v51.027h17.009c17.628 0 28.194-9.793 28.194-26.184 0-15.978-9.536-24.843-26.854-24.843m13.04 24.843c0 10.567-5.515 16.391-15.926 16.391h-2.062v-31.441h3.299c9.484 0 14.689 5.515 14.689 15.05" style="fill:#fff;fill-rule:nonzero"/></svg>