<svg xmlns="http://www.w3.org/2000/svg" xml:space="preserve" style="fill-rule:evenodd;clip-rule:evenodd;stroke-linejoin:round;stroke-miterlimit:2" viewBox="0 0 256 256"><path d="M256 64v128c0 35.322-28.678 64-64 64H64c-35.322 0-64-28.678-64-64V64C0 28.678 28.678 0 64 0h128c35.322 0 64 28.678 64 64" style="fill:#fff"/><path d="M35.136 34.728h56.411v56.449H35.136z" style="fill:#fb4725"/><path d="M98.849 34.728h58.302v56.449H98.849z" style="fill:#ff7b39"/><path d="M164.415 34.728h56.449v56.449h-56.449z" style="fill:#fc9b3a"/><path d="M35.136 99.035h56.411v58.302H35.136z" style="fill:#22b45c"/><path d="M98.849 99.035h58.302v58.302H98.849z" style="fill:#91ca06"/><path d="M164.415 99.035h56.449v58.302h-56.449z" style="fill:#d6d230"/><path d="M35.136 164.823h56.411v56.449H35.136z" style="fill:#0066b6"/><path d="M98.849 164.823h58.302v56.449H98.849z" style="fill:#429acc"/><path d="M164.415 164.823h56.449v56.449h-56.449z" style="fill:#6cbadd"/><path d="M59.227 81.318v-28.54H48.109v-8.153h31.503v8.153H68.864v28.54zm64.121-36.693h9.637v36.693h-9.637zm61.526 11.712v24.981h-8.895V44.625h12.973l11.118 25.24v-25.24h8.896v36.693h-12.824zm-104.742 53.15-15.53 17.271 16.715 19.422H69.198l-11.824-14.863v14.863h-9.636v-36.693h9.636v13.491l11.082-13.491zm59.525 29.65v7.043h-25.204v-36.693h24.462v7.412H124.09v7.042h14.454v7.043H124.09v8.153zm65.603-19.533c0 4.115-2.187 7.192-6.153 8.674 1.667 1.112 2.668 2.854 3.706 5.411l4.93 12.491h-10.378l-3.336-9.377c-1.519-4.078-2.186-5.078-5.374-5.078h-1.927v14.455h-9.266v-36.693h14.603c8.265 0 13.195 3.817 13.195 10.117m-9.637.742c0-2.743-1.705-3.817-6.115-3.78h-2.78v8.153h2.557c2.891 0 6.338-.741 6.338-4.373M74.349 202.739l1.223-.556.446 7.636-.63.259c-2.521.964-5.783 1.52-9.155 1.52-5.857 0-10.823-1.705-14.344-4.893-3.706-3.335-5.634-8.154-5.671-13.973 0-10.934 8.414-18.866 19.977-18.866 2.891 0 6.227.482 8.97 1.298l.704.222-.407 7.821-1.223-.519c-2.002-.852-4.56-1.334-6.82-1.334-6.709 0-11.231 4.558-11.231 11.378 0 7.116 4.152 11.378 11.082 11.378 2.669 0 5.041-.444 7.079-1.371m48.221-28.391h11.378l14.011 36.694h-10.045l-3.076-8.895h-13.491l-3.151 8.895h-9.6zm10.007 20.756-4.41-12.268-4.559 12.268zm56.967-20.756c12.454 0 19.311 6.375 19.311 17.865 0 11.787-7.598 18.829-20.274 18.829h-12.232v-36.694zm9.377 17.865c0-6.857-3.743-10.823-10.563-10.823h-2.372V204h1.483c7.487 0 11.452-4.188 11.452-11.787" style="fill:#fff"/></svg>