<svg xmlns="http://www.w3.org/2000/svg" xml:space="preserve" style="fill-rule:evenodd;clip-rule:evenodd;stroke-linejoin:round;stroke-miterlimit:2" viewBox="0 0 356 356"><path d="M355.556 88.889v177.778c0 49.059-39.83 88.889-88.889 88.889H88.889C39.83 355.556 0 315.726 0 266.667V88.889C0 39.83 39.83 0 88.889 0h177.778c49.059 0 88.889 39.83 88.889 88.889" style="fill:#191763"/><path d="M88.749-.183c174.053 118.519 170.975 237.037 0 355.556-49.06 0-88.889-39.83-88.889-88.889V88.706C-.14 39.647 39.689-.183 88.749-.183" style="fill:#262292"/><path d="M284.06 149.425v46.919c0 11.51-1.841 19.743-2.835 31.462-.344 4.063.354 7.384 1.164 11.565 12.558 64.824 7.214 59.502-26.46 24.91-5.447-5.596-11.137 3.188-17.794 6.542-11.254 5.67-23.966 8.864-37.418 8.864h-50.562c-45.999 0-83.344-37.345-83.344-83.343v-46.919c0-45.999 37.345-83.343 83.344-83.343h50.562c45.999 0 83.343 37.344 83.343 83.343" style="fill:url(#a)"/><circle cx="141.698" cy="150.933" r="12.023" style="fill:#1b2129"/><circle cx="203.843" cy="150.933" r="12.023" style="fill:#1b2129"/><path d="M132.324 184.791a5.663 5.663 0 0 1 5.502-7.009c3.043-.004 6.627-.004 9.444-.004a5.67 5.67 0 0 1 5.445 4.091c2.197 7.514 10.341 13.087 20.05 13.087s17.853-5.573 20.06-13.083a5.66 5.66 0 0 1 5.435-4.084c2.817-.011 6.401-.011 9.443-.011a5.67 5.67 0 0 1 5.507 7.015c-3.897 15.61-20.524 27.342-40.445 27.342s-36.549-11.732-40.441-27.344" style="fill:#1b2129"/><defs><linearGradient id="a" x1="0" x2="1" y1="0" y2="0" gradientTransform="translate(66.811 177.778)scale(212.892)" gradientUnits="userSpaceOnUse"><stop offset="0" style="stop-color:#f4b137;stop-opacity:1"/><stop offset="1" style="stop-color:orange;stop-opacity:1"/></linearGradient></defs></svg>