<svg xmlns="http://www.w3.org/2000/svg" xml:space="preserve" style="fill-rule:evenodd;clip-rule:evenodd;stroke-linejoin:round;stroke-miterlimit:2" viewBox="0 0 256 256"><path d="M256 64v128c0 35.322-28.678 64-64 64H64c-35.322 0-64-28.678-64-64V64C0 28.678 28.678 0 64 0h128c35.322 0 64 28.678 64 64" style="fill:#191763"/><path d="M63.121 0c123.596 85.334 121.41 170.666 0 256C28.283 256 0 227.322 0 192V64C0 28.678 28.283 0 63.121 0" style="fill:#262292"/><path d="M204.478 107.611v33.74c0 8.277-1.323 14.197-2.038 22.624-.248 2.922.254 5.31.837 8.317 9.03 46.615 5.187 42.788-19.028 17.912-3.917-4.024-8.008 2.293-12.795 4.705-8.093 4.077-17.234 6.374-26.908 6.374h-36.359c-33.078 0-59.933-26.855-59.933-59.932v-33.74c0-33.078 26.855-59.932 59.933-59.932h36.359c33.078 0 59.932 26.854 59.932 59.932" style="fill:url(#a)"/><circle cx="102.106" cy="108.696" r="8.646" style="fill:#1b2129"/><circle cx="146.794" cy="108.696" r="8.646" style="fill:#1b2129"/><path d="M95.365 133.043a4 4 0 0 1-.117-.968c0-2.234 1.838-4.072 4.072-4.072h.001c2.189-.003 4.766-.003 6.792-.003a4.09 4.09 0 0 1 3.915 2.942c1.58 5.403 7.436 9.411 14.418 9.411s12.838-4.008 14.425-9.408a4.08 4.08 0 0 1 3.908-2.937c2.026-.008 4.603-.008 6.791-.008 2.236.001 4.076 1.841 4.076 4.077q0 .49-.116.968c-2.802 11.225-14.759 19.661-29.084 19.661s-26.282-8.436-29.081-19.663" style="fill:#1b2129"/><defs><linearGradient id="a" x1="0" x2="1" y1="0" y2="0" gradientTransform="translate(48.254 128)scale(153.091)" gradientUnits="userSpaceOnUse"><stop offset="0" style="stop-color:#f4b137;stop-opacity:1"/><stop offset="1" style="stop-color:orange;stop-opacity:1"/></linearGradient></defs></svg>