<svg xmlns="http://www.w3.org/2000/svg" xml:space="preserve" style="fill-rule:evenodd;clip-rule:evenodd;stroke-linejoin:round;stroke-miterlimit:2" viewBox="0 0 356 356"><path d="M355.556 88.889v177.778c0 49.059-39.83 88.889-88.889 88.889H88.889C39.83 355.556 0 315.726 0 266.667V88.889C0 39.83 39.83 0 88.889 0h177.778c49.059 0 88.889 39.83 88.889 88.889" style="fill:#191763"/><path d="M88.749-.183c174.053 118.519 170.975 237.037 0 355.556-49.06 0-88.889-39.83-88.889-88.889V88.706C-.14 39.647 39.689-.183 88.749-.183" style="fill:#262292"/><path d="M126.89 150.272q-13.84-13.84-33.436-13.84-19.595 0-33.435 13.84t-13.84 33.435 13.84 33.435q13.84 13.839 33.434 13.839 19.596 0 33.436-13.839t13.839-33.435q0-19.596-13.838-33.435m-19.556 50.173c.572-1.143 1.51-1.919 2.776-2.328s2.449-.285 3.633.286c1.143.653 1.919 1.551 2.286 2.817.368 1.184.245 2.409-.367 3.633-.613 1.144-1.551 1.878-2.776 2.246-1.225.408-2.368.286-3.511-.286-1.184-.612-1.919-1.551-2.328-2.735-.448-1.266-.366-2.491.287-3.633m27.598-32.496c-.613 1.143-1.51 1.918-2.735 2.327a4.4 4.4 0 0 1-3.511-.368c-1.184-.571-1.96-1.469-2.368-2.694-.408-1.265-.327-2.449.245-3.633q.98-1.715 2.818-2.327c1.265-.408 2.49-.246 3.674.327 1.143.571 1.919 1.51 2.286 2.775.366 1.225.244 2.45-.409 3.593m-15.595 26.903c-1.225.326-2.409.245-3.552-.327-1.143-.613-1.919-1.51-2.327-2.735-.409-1.265-.367-2.449.245-3.633q.919-1.776 2.817-2.327c1.266-.368 2.449-.286 3.633.326 1.184.613 1.919 1.511 2.328 2.777.367 1.225.204 2.449-.409 3.592-.571 1.184-1.511 1.919-2.735 2.327m.816-18.942c.612-1.184 1.551-2.001 2.817-2.368 1.265-.409 2.449-.286 3.592.327 1.185.612 1.96 1.51 2.369 2.775.367 1.184.204 2.409-.409 3.634-.612 1.143-1.511 1.919-2.776 2.327-1.184.327-2.368.204-3.511-.408-1.184-.572-1.919-1.47-2.327-2.695-.408-1.265-.327-2.49.245-3.592m-30.17-14.33c1.184-.572 2.409-.735 3.634-.327q1.898.613 2.817 2.328c.572 1.183.694 2.367.245 3.632-.367 1.225-1.184 2.124-2.327 2.695q-1.715.918-3.552.367c-1.225-.408-2.163-1.184-2.735-2.327-.653-1.143-.734-2.368-.326-3.593.326-1.265 1.102-2.204 2.244-2.775m19.311 26.577c.612 1.184.694 2.368.246 3.633-.409 1.225-1.184 2.123-2.287 2.735-1.143.572-2.368.653-3.552.327-1.265-.408-2.163-1.143-2.734-2.328-.653-1.143-.776-2.367-.409-3.592.409-1.265 1.143-2.164 2.286-2.776 1.184-.613 2.409-.694 3.675-.327 1.223.368 2.162 1.144 2.775 2.328m-14.82-7.879c-.612-1.225-.734-2.45-.326-3.634.326-1.265 1.102-2.163 2.286-2.775s2.367-.736 3.592-.327c1.307.367 2.205 1.184 2.818 2.368.612 1.102.735 2.327.285 3.592q-.612 1.837-2.327 2.695c-1.143.612-2.327.735-3.551.408-1.266-.408-2.164-1.185-2.777-2.327" style="fill:#fff000;fill-rule:nonzero"/><path d="M132.809 154.926c.367 1.225 1.143 2.123 2.285 2.694 1.184.613 2.328.735 3.512.367 1.225-.408 2.163-1.184 2.776-2.286.612-1.184.735-2.368.367-3.633-.367-1.225-1.142-2.164-2.286-2.776-1.142-.613-2.368-.694-3.633-.327-1.265.409-2.204 1.184-2.776 2.327-.612 1.184-.694 2.368-.244 3.634zM142.239 136.718c-1.225.367-2.123 1.102-2.776 2.286-.571 1.184-.694 2.368-.245 3.633q.612 1.838 2.327 2.695c1.143.612 2.286.694 3.511.367 1.225-.367 2.164-1.143 2.735-2.286.612-1.184.776-2.409.408-3.592-.326-1.265-1.102-2.245-2.286-2.818-1.184-.612-2.409-.693-3.674-.285M145.587 130.349c.408 1.225 1.183 2.164 2.327 2.736 1.143.612 2.327.693 3.551.367 1.225-.408 2.123-1.184 2.735-2.368.613-1.143.735-2.327.408-3.552-.408-1.224-1.143-2.164-2.327-2.776-1.143-.613-2.367-.694-3.592-.327-1.307.368-2.205 1.143-2.858 2.327-.571 1.144-.693 2.327-.244 3.593M157.14 162.723c-.694.612-1.061 1.47-1.061 2.572s.367 2.041 1.061 2.654c.653.652 1.551 1.02 2.695 1.02h8.573v34.252c0 1.225.327 2.164 1.02 2.898.695.736 1.634 1.103 2.777 1.103s2.082-.367 2.735-1.103c.694-.734 1.02-1.673 1.02-2.898v-34.252h8.574c1.143 0 2.041-.367 2.735-1.02.693-.613 1.021-1.552 1.021-2.654 0-1.143-.368-2.001-1.103-2.735a4.25 4.25 0 0 0-2.653-.897h-24.699c-1.143-.001-2.041.366-2.695 1.06M285.371 173.256c2.285-3.389 5.388-5.062 9.43-5.062 1.633 0 3.102.245 4.409.857.653.327 1.511.898 2.613 1.755.653.531 1.143.898 1.551 1.102.572.368 1.143.532 1.715.532.98 0 1.755-.368 2.368-1.103.652-.694.979-1.592.979-2.654 0-1.673-1.224-3.265-3.755-4.817-2.776-1.756-6.084-2.613-9.88-2.613-6.573 0-11.758 2.449-15.473 7.348-3.306 4.327-4.939 9.594-4.939 15.759 0 6.205 1.633 11.43 4.899 15.798q5.511 7.35 15.187 7.349c3.919 0 7.307-.694 10.206-2.041 1.511-.694 2.612-1.51 3.47-2.367.816-.94 1.225-1.838 1.225-2.736 0-1.102-.286-1.959-.94-2.613-.571-.693-1.387-1.061-2.367-1.061-.49 0-1.061.164-1.674.448-.367.164-.939.45-1.796.94-1.307.776-2.45 1.347-3.348 1.715-1.511.571-3.061.816-4.776.816-3.878 0-6.94-1.755-9.145-5.184-1.959-3.021-2.939-6.696-2.939-11.064-.001-4.409.979-8.124 2.98-11.104M228.91 160.967c-.736-.081-1.429.123-2.082.531q-.98.612-1.593 1.837l-18.248 38.253c-.531 1.103-.612 2.124-.286 3.103.368.94 1.061 1.633 2.001 2.124 1.021.448 1.96.53 2.858.204.98-.327 1.755-1.021 2.327-2.164l14.942-31.313 14.982 31.313c.531 1.061 1.266 1.796 2.245 2.123.899.327 1.879.286 2.9-.245 1.02-.449 1.714-1.143 2-2.082.327-.98.245-2.041-.286-3.103l-18.289-38.212c-.818-1.592-1.961-2.369-3.471-2.369" style="fill:#fff;fill-rule:nonzero"/></svg>