<svg xmlns="http://www.w3.org/2000/svg" xml:space="preserve" style="fill-rule:evenodd;clip-rule:evenodd;stroke-linejoin:round;stroke-miterlimit:2" viewBox="0 0 256 256"><path d="M256 64v128c0 35.322-28.678 64-64 64H64c-35.322 0-64-28.678-64-64V64C0 28.678 28.678 0 64 0h128c35.322 0 64 28.678 64 64" style="fill:#191763"/><path d="M63.121 0c123.596 85.334 121.41 170.666 0 256C28.283 256 0 227.322 0 192V64C0 28.678 28.283 0 63.121 0" style="fill:#262292"/><path d="M91.407 108.352Q81.454 98.4 67.363 98.4q-14.09 0-24.043 9.952t-9.953 24.043q0 14.09 9.953 24.043t24.042 9.952q14.091 0 24.044-9.952 9.952-9.951 9.952-24.043t-9.951-24.043m-14.063 36.079c.411-.821 1.086-1.379 1.996-1.674.911-.294 1.761-.205 2.613.206.822.47 1.38 1.115 1.644 2.026.264.851.176 1.732-.264 2.612-.441.823-1.116 1.351-1.997 1.615-.88.294-1.702.206-2.524-.205-.852-.44-1.38-1.116-1.674-1.967-.323-.91-.264-1.791.206-2.613m19.846-23.367c-.441.821-1.086 1.379-1.967 1.673a3.16 3.16 0 0 1-2.525-.265c-.851-.41-1.409-1.056-1.703-1.937-.293-.91-.235-1.761.177-2.612q.704-1.234 2.026-1.674c.91-.293 1.791-.177 2.642.235.822.411 1.38 1.086 1.644 1.996a3.2 3.2 0 0 1-.294 2.584M85.975 140.41c-.881.234-1.732.176-2.554-.236-.822-.44-1.38-1.085-1.673-1.966-.294-.91-.264-1.761.176-2.613q.661-1.277 2.026-1.673c.91-.265 1.761-.206 2.612.234.852.441 1.38 1.087 1.674 1.997.264.881.147 1.761-.294 2.583-.41.852-1.086 1.38-1.967 1.674m.587-13.622c.44-.851 1.115-1.439 2.026-1.703.91-.294 1.761-.205 2.583.236.852.44 1.409 1.085 1.703 1.995.264.852.147 1.732-.294 2.613-.44.822-1.086 1.38-1.996 1.674-.851.235-1.703.146-2.525-.294-.851-.411-1.38-1.057-1.673-1.938-.293-.909-.235-1.79.176-2.583m-21.695-10.304c.851-.412 1.732-.529 2.613-.236q1.365.44 2.026 1.675c.411.85.499 1.702.176 2.611-.264.881-.851 1.528-1.673 1.938q-1.234.66-2.555.264c-.881-.293-1.555-.851-1.966-1.673-.47-.822-.528-1.703-.235-2.584a3 3 0 0 1 1.614-1.995m13.886 19.111c.441.852.499 1.703.177 2.613-.294.881-.851 1.526-1.644 1.966-.822.412-1.703.47-2.554.236-.91-.294-1.556-.822-1.967-1.675a3.2 3.2 0 0 1-.294-2.583c.294-.909.822-1.556 1.644-1.996.852-.441 1.733-.499 2.643-.235.879.265 1.555.823 1.995 1.674m-10.657-5.666c-.44-.881-.527-1.761-.234-2.613.234-.91.792-1.555 1.644-1.995s1.702-.53 2.583-.236c.94.264 1.585.852 2.026 1.703.44.793.529 1.674.205 2.583q-.44 1.322-1.673 1.938a3.38 3.38 0 0 1-2.554.294c-.91-.294-1.556-.852-1.997-1.674" style="fill:#fff000;fill-rule:nonzero"/><path d="M95.663 111.699c.264.881.822 1.526 1.643 1.937.852.441 1.674.529 2.526.264a3.48 3.48 0 0 0 1.996-1.644c.44-.851.528-1.703.264-2.612-.264-.881-.821-1.557-1.644-1.997-.821-.441-1.703-.499-2.612-.235-.91.294-1.585.852-1.997 1.673-.44.852-.499 1.703-.175 2.614zm6.781-13.094c-.881.264-1.526.793-1.996 1.644-.411.852-.499 1.703-.176 2.613q.44 1.322 1.673 1.938c.822.44 1.644.499 2.525.264a3.14 3.14 0 0 0 1.967-1.644c.44-.852.558-1.733.293-2.583-.234-.91-.792-1.615-1.644-2.027-.851-.44-1.732-.498-2.642-.205m2.408-4.58c.293.881.85 1.556 1.673 1.968.822.44 1.673.498 2.554.264.881-.294 1.526-.852 1.966-1.703a3.38 3.38 0 0 0 .294-2.554c-.294-.881-.822-1.556-1.674-1.997-.821-.44-1.702-.499-2.583-.235-.939.265-1.585.822-2.055 1.674-.41.822-.498 1.673-.175 2.583m8.308 23.281c-.5.44-.763 1.057-.763 1.849 0 .793.263 1.468.763 1.909.469.468 1.115.733 1.938.733h6.164v24.631c0 .881.236 1.556.734 2.084.5.529 1.175.793 1.997.793s1.497-.264 1.967-.793c.499-.528.733-1.203.733-2.084v-24.631h6.166c.822 0 1.467-.264 1.966-.733.499-.441.735-1.116.735-1.909 0-.822-.265-1.439-.794-1.967a3.06 3.06 0 0 0-1.907-.645h-17.761c-.822 0-1.468.263-1.938.763m92.211 7.574c1.643-2.437 3.874-3.64 6.781-3.64 1.174 0 2.23.176 3.17.616.47.235 1.087.646 1.879 1.262.47.382.822.646 1.116.792.411.265.822.383 1.233.383.705 0 1.262-.265 1.703-.793.469-.499.704-1.145.704-1.909 0-1.203-.881-2.347-2.701-3.464-1.996-1.262-4.375-1.879-7.104-1.879-4.727 0-8.455 1.762-11.127 5.284-2.377 3.112-3.552 6.899-3.552 11.333 0 4.462 1.175 8.219 3.523 11.36q3.963 5.286 10.921 5.285c2.818 0 5.255-.499 7.339-1.468 1.087-.499 1.879-1.086 2.496-1.702.587-.676.881-1.322.881-1.967 0-.793-.206-1.409-.676-1.88-.411-.498-.998-.762-1.702-.762-.353 0-.763.117-1.204.322-.264.118-.675.323-1.292.676-.94.558-1.762.968-2.407 1.233-1.087.411-2.201.587-3.435.587-2.788 0-4.99-1.262-6.576-3.728-1.409-2.173-2.113-4.815-2.113-7.956-.001-3.171.704-5.842 2.143-7.985m-40.602-8.837c-.529-.058-1.027.088-1.497.382q-.704.44-1.145 1.321l-13.122 27.507c-.382.794-.441 1.528-.206 2.232.265.676.763 1.174 1.439 1.527.734.322 1.409.381 2.055.147.705-.235 1.262-.734 1.673-1.556l10.745-22.518 10.774 22.518c.382.763.91 1.291 1.614 1.526.647.236 1.351.206 2.086-.176.733-.323 1.232-.822 1.438-1.497.235-.705.176-1.468-.206-2.231l-13.152-27.479c-.588-1.144-1.41-1.703-2.496-1.703" style="fill:#fff;fill-rule:nonzero"/></svg>