<svg xmlns="http://www.w3.org/2000/svg" xml:space="preserve" style="fill-rule:evenodd;clip-rule:evenodd;stroke-linejoin:round;stroke-miterlimit:2" viewBox="0 0 356 356"><path d="M355.556 88.889v177.778c0 49.059-39.83 88.889-88.889 88.889H88.889C39.83 355.556 0 315.726 0 266.667V88.889C0 39.83 39.83 0 88.889 0h177.778c49.059 0 88.889 39.83 88.889 88.889" style="fill:#191763"/><path d="M88.749-.183c174.053 118.519 170.975 237.037 0 355.556-49.06 0-88.889-39.83-88.889-88.889V88.706C-.14 39.647 39.689-.183 88.749-.183" style="fill:#262292"/><path d="M203.918 122.721c-22.278.335-42.578 13.142-52.474 33.103l-.134.232c-21.115-4.573-42.909 5.081-53.711 23.791a49.8 49.8 0 0 0-6.265 18.522l-.676.318c-21.482-2.266-41.12 13.256-43.875 34.682-1.882 15.766 5.851 31.214 19.602 39.153a39.77 39.77 0 0 0 21.458 5.296l171.592.031.016-.083c25.243-.383 46.304-19.431 49.196-44.537 2.81-27.138-17.06-51.832-44.171-54.894h-.214c-1.252-21.536-14.236-40.727-33.76-49.899a60.05 60.05 0 0 0-26.561-5.701z" style="fill:#fff;fill-rule:nonzero"/><circle cx="255.108" cy="131.51" r="53.804" style="fill:#fff000"/><path d="m163.596 194.757-8.777 11.89 14.753-3.718 3.404 12.683 5.372-12.683 4.146 1.194-43.605 56.282v-65.648zm22.781 4.353-2.936-4.353h6.309z" style="fill:#3d55a5"/><path d="m180.796 250.555-7.631 9.85v-45.239l5.183-12.237 13.164 3.793-8.071-11.965h40.586l-20.459 26.407.886-1.147-3.74-12.593-3.143 12.641-12.365-4.453 6.306 9.303-10.134 7.464 12.531 1.252-7.355 9.493-2.083-5.836-2.086 5.832-6.476-2.478 3.726 5.732-4.917 3.196z" style="fill:#eed507"/><path d="m183.749 170.82-2.496 15.618 16.318.731-14.132 7.588-19.782-.091-13.307-7.598 15.053-.964-2.05-15.469 9.943 11.855z" style="fill:#3d55a5"/></svg>