<svg xmlns="http://www.w3.org/2000/svg" xml:space="preserve" style="fill-rule:evenodd;clip-rule:evenodd;stroke-linejoin:round;stroke-miterlimit:2" viewBox="0 0 256 256"><path d="M256 64v128c0 35.322-28.678 64-64 64H64c-35.322 0-64-28.678-64-64V64C0 28.678 28.678 0 64 0h128c35.322 0 64 28.678 64 64" style="fill:#191763"/><path d="M63.121 0c123.596 85.334 121.41 170.666 0 256C28.283 256 0 227.322 0 192V64C0 28.678 28.283 0 63.121 0" style="fill:#262292"/><path d="M146.848 88.409c-16.02.241-30.618 9.45-37.734 23.804l-.097.167c-15.183-3.288-30.855 3.654-38.623 17.108a35.8 35.8 0 0 0-4.505 13.319l-.486.229c-15.448-1.63-29.57 9.532-31.551 24.94-1.353 11.337 4.207 22.446 14.096 28.155a28.6 28.6 0 0 0 15.43 3.808l123.392.022.012-.059c18.152-.276 33.297-13.973 35.377-32.027 2.02-19.515-12.268-37.272-31.764-39.474h-.154c-.9-15.487-10.237-29.287-24.277-35.883a43.2 43.2 0 0 0-19.1-4.099z" style="fill:#fff;fill-rule:nonzero"/><circle cx="183.659" cy="94.729" r="38.691" style="fill:#fff000"/><path d="m117.852 140.21-6.311 8.55 10.609-2.674 2.447 9.121 3.863-9.121 2.982.859-31.357 40.472V140.21zm16.382 3.13-2.111-3.13h4.537z" style="fill:#3d55a5"/><path d="m130.221 180.334-5.488 7.083v-32.531l3.727-8.8 9.467 2.728-5.804-8.604h29.185l-14.712 18.989.637-.825-2.689-9.055-2.26 9.09-8.892-3.202 4.535 6.69-7.288 5.367 9.011.9-5.289 6.827-1.497-4.197-1.5 4.194-4.657-1.782 2.679 4.122-3.536 2.298z" style="fill:#eed507"/><path d="m132.344 122.997-1.795 11.231 11.735.525-10.163 5.457-14.225-.066-9.569-5.463 10.825-.693-1.474-11.124 7.15 8.525z" style="fill:#3d55a5"/></svg>