<svg xmlns="http://www.w3.org/2000/svg" xml:space="preserve" style="fill-rule:evenodd;clip-rule:evenodd;stroke-linecap:round;stroke-linejoin:round;stroke-miterlimit:1.5" viewBox="0 0 356 356"><path d="M355.556 88.889v177.778c0 49.059-39.83 88.889-88.889 88.889H88.889C39.83 355.556 0 315.726 0 266.667V88.889C0 39.83 39.83 0 88.889 0h177.778c49.059 0 88.889 39.83 88.889 88.889" style="fill:#191763"/><path d="M88.749-.183c174.053 118.519 170.975 237.037 0 355.556-49.06 0-88.889-39.83-88.889-88.889V88.706C-.14 39.647 39.689-.183 88.749-.183" style="fill:#262292"/><path d="M126.189 101.082c1.576.015 18.15-.52 31.98 13.078 19.406 19.083 17.696 50.737-3.675 67.659-20.023 15.856-49.344 12.154-64.766-8.361-15.057-20.03-10.924-48.553 9.457-63.535 12.123-8.913 24.389-8.816 27.004-8.841m.004 6.235v.004c-1.189.012-16.006-.524-28.075 11.776-16.568 16.884-14.411 44.403 4.603 58.557 17.65 13.138 42.829 9.21 55.601-8.884 12.442-17.628 8.159-42.11-9.814-54.513-10.103-6.971-20.01-6.906-22.315-6.94" style="fill:#fff000"/><path d="M128.095 191.07c-.151.118-1.016.796-2.31.642a3.1 3.1 0 0 1-1.145-.365c-.739-.41-.694-.475-1.214-1.139-29.657-37.804-14.197-69.101.28-87.825.117-.151.789-1.021 2.084-1.186a3.2 3.2 0 0 1 1.2.075c1.274.341 1.83 1.312 1.927 1.48.631 1.104.349 2.15.3 2.332-.215.8-.288.772-.794 1.43-25.034 32.505-16.244 59.3.198 80.177.119.15.797 1.012.643 2.297s-1.019 1.964-1.169 2.082" style="fill:#fff000"/><path d="M124.283 191.07a3.13 3.13 0 0 1-1.082-3.276c.223-.799.296-.77.809-1.425 24.808-31.624 16.386-58.588-.304-80.177-.116-.151-.787-1.019-.622-2.303.052-.396.179-.79.377-1.137.097-.168.653-1.139 1.926-1.48.183-.048 1.234-.329 2.344.3.733.416.687.479 1.201 1.147 29.597 38.428 14.34 69.309-.244 87.825-.119.151-.799 1.014-2.095 1.168-1.294.154-2.159-.524-2.31-.642" style="fill:#fff000"/><path d="M168.617 132.313c0 .191 0 1.287-.921 2.203-.917.912-2.017.916-2.208.917-26.197.08-52.395 0-78.592 0-.192 0-1.293 0-2.214-.917a3.1 3.1 0 0 1-.674-.992 3.15 3.15 0 0 1 0-2.422c.492-1.173 1.496-1.59 1.67-1.663 1.382-.573 1.464-.246 79.804-.246.192 0 1.293 0 2.214.917.921.916.921 2.012.921 2.203M168.617 160.592c0 .191 0 1.287-.921 2.203-.917.913-2.017.916-2.208.917-26.197.08-52.395 0-78.592 0-.192 0-1.293 0-2.214-.917a3.1 3.1 0 0 1-.674-.992 3.15 3.15 0 0 1 0-2.422 3.12 3.12 0 0 1 1.67-1.662c1.382-.574 1.464-.246 79.804-.246.192 0 1.293 0 2.214.916s.921 2.012.921 2.203" style="fill:#fff000"/><path d="m220.362 193.852-7.027 9.519 11.812-2.977 2.725 10.155 4.301-10.155 3.319.957-34.911 45.059v-52.558zm18.239 3.485-2.351-3.485h5.051z" style="fill:#fff"/><path d="m234.133 238.524-6.11 7.886v-36.219l4.15-9.797 10.539 3.037-6.462-9.579h32.493l-16.379 21.142.709-.918-2.994-10.083-2.516 10.121-9.9-3.565 5.049 7.448-8.114 5.975 10.033 1.003-5.889 7.6-1.667-4.672-1.67 4.669-5.185-1.984 2.983 4.589-3.936 2.559z" style="fill:#eed507"/><path d="m236.497 174.688-1.999 12.504 13.065.585-11.315 6.075-15.837-.073-10.654-6.083 12.052-.772-1.641-12.384 7.96 9.491z" style="fill:#fff"/><path d="M147.117 230.871c-21.088 5.478-44.256 2.997-64.6-8.748-41.122-23.742-55.232-76.403-31.49-117.525 23.741-41.122 76.402-55.232 117.524-31.491 20.332 11.739 34.061 30.547 39.876 51.535 21.104-5.435 44.27-2.953 64.611 8.791 41.122 23.742 55.233 76.403 31.491 117.525s-76.403 55.232-117.525 31.49c-20.346-11.746-34.079-30.572-39.887-51.577m50.126-87.43a39.4 39.4 0 0 0-7.986-3.432 15.96 15.96 0 0 1-10.486-10.188c-4.146-12.586-12.773-23.731-25.14-30.871-26.859-15.507-61.255-6.291-76.762 20.568s-6.291 61.255 20.568 76.762c12.414 7.167 26.437 9.053 39.462 6.357a15.9 15.9 0 0 1 14.032 3.94 43 43 0 0 0 7.192 5.244 39.4 39.4 0 0 0 11.636 4.452 7.7 7.7 0 0 1 5.866 5.656c3.615 14.119 12.693 26.821 26.299 34.677 26.859 15.507 61.255 6.291 76.762-20.569 15.508-26.859 6.291-61.255-20.568-76.762-12.373-7.143-26.346-9.04-39.335-6.383a15.8 15.8 0 0 1-13.954-3.961l-.049.052a4 4 0 0 1-.337-.279 38 38 0 0 0-6.93-5.108z" style="fill:#fff000"/><path d="m204.634 169.11-11.239 17.09c-3.028 4.602-9.222 5.881-13.824 2.854s-5.882-9.221-2.855-13.824l11.24-17.089c3.027-4.602 9.221-5.882 13.824-2.854s5.881 9.221 2.854 13.823" style="fill:none;stroke:#00daff;stroke-width:3.75px"/><path d="m189.97 183.818-11.088 16.859c-3.069 4.666-9.349 5.963-14.014 2.894-4.666-3.069-5.963-9.348-2.894-14.014l11.089-16.86c3.068-4.666 9.348-5.962 14.014-2.893s5.962 9.348 2.893 14.014" style="fill:none;stroke:#fff000;stroke-width:3.75px"/></svg>