<svg xmlns="http://www.w3.org/2000/svg" xml:space="preserve" style="fill-rule:evenodd;clip-rule:evenodd;stroke-linecap:round;stroke-linejoin:round;stroke-miterlimit:1.5" viewBox="0 0 256 256"><path d="M256 64v128c0 35.322-28.678 64-64 64H64c-35.322 0-64-28.678-64-64V64C0 28.678 28.678 0 64 0h128c35.322 0 64 28.678 64 64" style="fill:#191763"/><path d="M63.121 0c123.596 85.334 121.41 170.666 0 256C28.283 256 0 227.322 0 192V64C0 28.678 28.283 0 63.121 0" style="fill:#262292"/><path d="M90.902 72.848c1.134.011 13.052-.374 22.997 9.404 13.955 13.723 12.725 36.485-2.642 48.654-14.399 11.402-35.484 8.74-46.574-6.012-10.827-14.404-7.855-34.915 6.801-45.688 8.717-6.41 17.538-6.34 19.418-6.358m.003 4.484v.002c-.855.009-11.51-.376-20.189 8.469-11.914 12.141-10.362 31.93 3.311 42.108 12.692 9.447 30.798 6.623 39.982-6.389 8.947-12.676 5.867-30.281-7.057-39.2-7.265-5.013-14.389-4.966-16.047-4.99" style="fill:#fff000"/><path d="M92.273 137.558c-.109.085-.731.573-1.661.462a2.2 2.2 0 0 1-.824-.262c-.531-.295-.499-.342-.872-.819-21.327-27.185-10.21-49.691.201-63.156.084-.108.567-.734 1.498-.852a2.3 2.3 0 0 1 .863.054c.917.245 1.316.943 1.386 1.064.454.794.251 1.546.216 1.677-.155.575-.207.555-.571 1.028-18.002 23.374-11.681 42.643.142 57.655a2.247 2.247 0 0 1-.378 3.149" style="fill:#fff000"/><path d="M89.532 137.558a2.25 2.25 0 0 1-.778-2.355c.16-.575.213-.554.581-1.025 17.84-22.741 11.784-42.131-.218-57.655-.084-.109-.566-.733-.447-1.657.037-.284.128-.568.271-.817a2.28 2.28 0 0 1 1.385-1.064c.131-.035.887-.237 1.685.215.527.299.494.345.864.825 21.283 27.634 10.312 49.84-.176 63.155a2.26 2.26 0 0 1-1.506.84 2.26 2.26 0 0 1-1.661-.462" style="fill:#fff000"/><path d="M121.412 95.306c0 .138 0 .926-.662 1.584-.659.656-1.45.659-1.588.66-18.838.057-37.677 0-56.515 0-.138 0-.93 0-1.592-.66a2.2 2.2 0 0 1-.485-.713 2.27 2.27 0 0 1 0-1.742c.354-.843 1.076-1.143 1.201-1.196.994-.412 1.053-.176 57.387-.176.138 0 .93 0 1.592.659s.662 1.447.662 1.584m0 20.336c0 .137 0 .925-.662 1.584a2.27 2.27 0 0 1-1.588.659c-18.838.058-37.677 0-56.515 0-.138 0-.93 0-1.592-.659a2.2 2.2 0 0 1-.485-.714 2.27 2.27 0 0 1 0-1.741c.229-.54.66-.969 1.201-1.195.994-.413 1.053-.177 57.387-.177.138 0 .93 0 1.592.658.662.659.662 1.447.662 1.585" style="fill:#fff000"/><path d="m158.622 139.559-5.053 6.845 8.494-2.141 1.96 7.303 3.093-7.303 2.386.688-25.104 32.402v-37.794zm13.116 2.506-1.691-2.506h3.633z" style="fill:#fff"/><path d="m168.525 171.683-4.394 5.67v-26.045l2.985-7.045 7.578 2.184-4.647-6.888h23.366l-11.778 15.203.51-.66-2.153-7.251-1.809 7.278-7.12-2.563 3.631 5.356-5.835 4.296 7.215.722-4.235 5.465-1.198-3.36-1.201 3.358-3.729-1.427 2.145 3.3-2.83 1.84z" style="fill:#eed507"/><path d="m170.225 125.778-1.437 8.992 9.395.42-8.137 4.369-11.388-.053-7.662-4.374 8.667-.555-1.18-8.905 5.724 6.825z" style="fill:#fff"/><path d="M105.952 166.179c-15.165 3.94-31.825 2.155-46.454-6.29-29.571-17.073-39.718-54.942-22.645-84.513 17.072-29.571 54.941-39.717 84.512-22.645 14.621 8.442 24.493 21.966 28.675 37.059 15.176-3.908 31.834-2.124 46.462 6.322 29.571 17.072 39.718 54.941 22.645 84.512s-54.942 39.717-84.512 22.644c-14.631-8.446-24.507-21.984-28.683-37.089m36.045-62.871a28.4 28.4 0 0 0-5.742-2.468 11.49 11.49 0 0 1-7.541-7.326 40.03 40.03 0 0 0-18.078-22.199c-19.314-11.151-44.049-4.524-55.2 14.79-11.151 19.315-4.524 44.049 14.791 55.2 8.927 5.154 19.011 6.51 28.377 4.571a11.44 11.44 0 0 1 10.09 2.834 31 31 0 0 0 5.172 3.77 28.3 28.3 0 0 0 8.368 3.202 5.55 5.55 0 0 1 4.218 4.067c2.599 10.153 9.127 19.287 18.912 24.936 19.314 11.152 44.048 4.524 55.199-14.791 11.152-19.314 4.524-44.048-14.79-55.199-8.898-5.137-18.946-6.501-28.286-4.59a11.37 11.37 0 0 1-10.035-2.849l-.035.038a3 3 0 0 1-.242-.201 27.4 27.4 0 0 0-4.983-3.673z" style="fill:#fff000"/><path d="m147.312 121.767-8.082 12.289a7.18 7.18 0 0 1-9.941 2.053 7.183 7.183 0 0 1-2.053-9.941l8.083-12.289a7.18 7.18 0 0 1 9.941-2.052 7.18 7.18 0 0 1 2.052 9.94" style="fill:none;stroke:#00daff;stroke-width:2.7px"/><path d="m136.767 132.343-7.973 12.124a7.28 7.28 0 0 1-10.078 2.081 7.28 7.28 0 0 1-2.081-10.078l7.975-12.124a7.28 7.28 0 0 1 10.077-2.08 7.28 7.28 0 0 1 2.08 10.077" style="fill:none;stroke:#fff000;stroke-width:2.7px"/></svg>