<svg xmlns="http://www.w3.org/2000/svg" xml:space="preserve" style="fill-rule:evenodd;clip-rule:evenodd;stroke-linejoin:round;stroke-miterlimit:2" viewBox="0 0 256 256"><path d="M256 64v128c0 35.322-28.678 64-64 64H64c-35.322 0-64-28.678-64-64V64C0 28.678 28.678 0 64 0h128c35.322 0 64 28.678 64 64" style="fill:#191763"/><path d="M63.121 0c123.596 85.334 121.41 170.666 0 256C28.283 256 0 227.322 0 192V64C0 28.678 28.283 0 63.121 0" style="fill:#262292"/><path d="M150.579 88.68c.647.796 1.231 1.579 1.844 2.339a1045 1045 0 0 0 4.714 5.794c1.3 1.587 2.615 3.162 3.919 4.746.211.257.403.531.672.887-1.263.165-2.432.323-3.602.471-1.644.209-3.288.423-4.934.613-.75.086-1.506.13-2.26.178-2.552.163-5.104.333-7.656.472-2.299.126-4.598.267-6.898.31-4.708.089-9.417.164-14.126.151-2.853-.008-5.707-.165-8.558-.308a151 151 0 0 1-6.786-.477c-2.814-.267-5.619-.621-8.43-.932-1.495-.166-2.993-.319-4.488-.484-.145-.017-.283-.085-.495-.15.856-.993 1.666-1.934 2.48-2.872 1.741-2.006 3.476-4.018 5.229-6.013 1.362-1.548 2.749-3.072 4.146-4.655 1.635-1.904 3.232-3.776 4.881-5.6.21-.234.71-.357 1.041-.305 1.724.265 3.43.645 5.154.903 1.203.18 2.424.262 3.64.334 3.02.177 6.042.463 9.062.439 2.931-.023 5.867-.304 8.787-.615 2.374-.252 4.728-.703 7.088-1.089.674-.11.996.323 1.346.748 1.394 1.697 2.786 3.394 4.23 5.115m-18.195 11.088a9.07 9.07 0 0 0 4.303-1.993c.82-.681 1.43-1.617 1.044-2.67-.277-.752-.897-1.47-1.542-1.978-1.983-1.561-4.408-1.985-6.822-2.205-2.579-.233-5.166-.011-7.605.945-1.038.406-2.065.968-2.929 1.667-2.054 1.666-1.21 3.554.58 4.753 2.151 1.441 4.66 1.905 7.199 2.085 1.905.135 3.798-.07 5.772-.604m-23.457 115.82c-.099-.099-.094-.256-.154-.289-.91-.492-1.189-1.295-1.189-2.268q.005-32.749.003-65.496c0-1.417.66-2.257 2.045-2.59.159-.037.344-.033.504.005 2.087.505 4.16 1.078 6.262 1.514 1.636.34 3.299.581 4.962.745 1.867.182 3.748.32 5.622.312 2.405-.01 4.812-.144 7.213-.298 3.84-.244 7.547-1.182 11.244-2.193 2.165-.592 3.221.862 3.27 2.478.078 2.608.099 5.223-.004 7.829-.079 1.989-1.014 2.774-3.189 2.789-7.62.05-15.24.019-22.861.019-1.487 0-2.409.93-2.409 2.432 0 2.53.054 5.064-.017 7.593-.055 1.917 1.056 2.785 2.802 2.788 7.568.012 15.135.028 22.702-.012 1.86-.01 3.081 1.188 3.029 2.988-.073 2.542.087 5.091.122 7.637.022 1.622-.911 2.525-2.553 2.526-7.382.001-14.766-.009-22.148.009-1.288.003-2.488.275-2.979 1.711-.081.239-.157.495-.16.744q-.093 9.355-.162 18.711c-.017 2.321-.014 4.642.001 6.961.008 1.336-.311 2.501-1.472 3.308-3.44.047-6.925.047-10.484.047m97.245-131.891c-.243.453-.502.824-.729 1.212-.305.524-.587 1.061-.851 1.542-2.718-.973-5.34-1.894-7.951-2.85-4.219-1.545-8.425-3.122-12.644-4.668-5.848-2.144-11.703-4.269-17.549-6.415-.183-.066-.432-.263-.45-.422-.167-1.513-.292-3.033-.436-4.624h2.484c2.479 0 4.957-.018 7.435.003 4.26.039 8.519.121 12.779.147 2.139.013 4.074.704 5.96 1.614 2.782 1.342 5.493 2.825 7.839 4.845 1.668 1.436 3.206 3.041 3.813 5.28.024.088.13.154.249.183.051 1.329.051 2.703.051 4.153m-14.928-5.464c.158 0 .317.012.474-.003.921-.086 1.286-.721.668-1.362a11 11 0 0 0-2.465-1.926c-2.329-1.318-4.851-2.198-7.476-2.685-1.292-.239-2.625-.632-3.974-.123-.856.322-1.042.781-.344 1.361.964.802 1.968 1.601 3.071 2.182 2.434 1.283 5.066 2.054 7.771 2.532.692.123 1.423.028 2.275.024M49.828 79.73c.111-.202.271-.313.327-.463.87-2.33 2.416-4.165 4.385-5.594a55 55 0 0 1 5.699-3.63c1.682-.928 3.453-1.611 5.506-1.505 2.377.123 4.771-.058 7.158-.119 1.57-.04 3.139-.104 4.709-.156l4.945-.159c1.597-.052 3.193-.091 4.788-.163 1.067-.048 2.132-.144 3.189-.219-.123 1.423-.261 2.75-.34 4.079-.023.388-.113.599-.494.735q-7.456 2.682-14.902 5.389a5401 5401 0 0 0-16.465 6.016c-2.272.834-4.532 1.703-6.902 2.596-.507-1.057-.992-2.069-1.541-3.082-.062-1.217-.062-2.434-.062-3.725m19.236-1.971c2.332-.529 4.578-1.308 6.63-2.54.861-.517 1.622-1.218 2.371-1.899.537-.488.258-.935-.318-1.102-.607-.178-1.272-.357-1.883-.287-2.241.255-4.445.721-6.552 1.559-1.984.789-3.982 1.565-5.48 3.18-.229.246-.483.699-.398.943.095.273.543.546.871.594 1.569.233 3.113.033 4.759-.448m119.889 124.617c-.127.082-.225.113-.348.19-1.326.489-2.639.904-3.929 1.38-3.043 1.122-6.073 2.274-9.11 3.412-4.305 1.612-8.605 3.233-12.915 4.828a255 255 0 0 1-6.637 2.359c-1.021.346-2.632-.624-2.839-1.667a9 9 0 0 1-.166-1.697q-.014-31.569.001-63.136c.001-1.316.252-2.553 1.745-3.034a2.7 2.7 0 0 1 .824-.152q17.999-.01 35.999-.005c1.502 0 2.568 1.09 2.568 2.603 0 17.011-.006 34.022.013 51.031.002 1.232-.54 2.061-1.588 2.522-1.165.51-2.391.882-3.618 1.366m-22.658-34.183.001 24.837c0 1.655 1.591 2.843 3.14 2.29a661 661 0 0 0 9.637-3.529c1.395-.521 1.938-1.39 1.939-2.908 0-9.307.011-18.614-.009-27.921-.005-2.023-1.011-2.911-2.87-2.955a184 184 0 0 0-8.937 0c-1.728.043-2.978.765-2.916 2.99.066 2.344.015 4.693.015 7.196m-98.658 34.42c-.342-.055-.624-.11-.971-.175-.67-.318-1.272-.635-1.885-.929-.205-.098-.445-.122-.656-.21-1.543-.643-2.268-1.078-2.268-3.399-.005-16.694.008-33.389-.018-50.084-.002-1.827 1.195-3.062 2.942-2.989 2.448.102 4.907.098 7.356.002 1.913-.075 3.018 1.16 3.014 3.081-.011 7.939-.005 15.877-.005 23.816 0 5.829.022 11.657-.016 17.485-.008 1.229.589 2.056 1.579 2.443 3.303 1.294 6.673 2.418 9.978 3.708 1.321.515 3.054-.785 3.049-2.216-.05-15.033-.043-30.067-.016-45.1.003-2.015.543-2.681 2.035-3.1a3 3 0 0 1 .766-.09q3.916-.008 7.833-.002c1.572 0 2.643 1.055 2.643 2.611l.002 64.563c0 1.742-1.72 3.105-3.651 2.377-4.467-1.684-8.952-3.322-13.423-4.996-5.142-1.924-10.277-3.868-15.417-5.798a83 83 0 0 0-2.871-.998m31.88-80.15c.378-.012.758.03 1.27.074 2.798.317 5.462.667 8.133.938 2.12.214 4.247.367 6.375.48 2.715.144 5.433.293 8.15.308 3.624.02 7.248-.079 10.872-.145 1.017-.019 2.032-.096 3.048-.154 2.757-.156 5.516-.305 8.272-.479a75 75 0 0 0 3.88-.327c1.588-.183 3.168-.426 4.751-.643a42 42 0 0 1 2.654-.212c-1.857 1.904-3.835 3.64-6.094 5.054-2.312 1.448-4.754 2.601-7.296 3.563-2.838 1.073-5.786 1.729-8.77 2.201-1.33.21-2.69.243-4.038.335-1.041.071-2.086.174-3.127.15-4.611-.103-9.167-.669-13.568-2.082-3.923-1.26-7.597-3.081-10.865-5.611-1.308-1.013-2.436-2.257-3.647-3.45m2.849-33.868c-1.113 1.295-2.227 2.532-3.334 3.776q-1.272 1.434-2.53 2.88c-1.781 2.041-3.582 4.065-5.323 6.141-.442.526-.928.503-1.442.401-3.586-.717-7.186-1.385-10.746-2.221-2.877-.675-5.711-1.542-8.553-2.36-3.803-1.094-7.451-2.591-10.947-4.433-2.13-1.122-4.191-2.373-5.975-4.105-.022-.121-.02-.285.035-.305 3.228-1.19 6.463-2.365 9.694-3.549 4.766-1.747 9.527-3.505 14.292-5.253q6.213-2.283 12.441-4.525c.2-.072.509.058.729.17.477.241.928.532 1.446.803 1.876.898 3.638 1.947 5.527 2.655 3.29 1.232 6.659 2.252 9.993 3.365.083.028.149.109.227.225-1.106 1.295-2.219 2.527-3.324 3.766a89 89 0 0 0-2.21 2.569m-29.217.103c-.517.567-1.113 1.083-1.529 1.716-.422.644-.199 1.127.5 1.491 1.494.777 3.117.637 4.642.346 2.087-.399 4.149-1.005 6.159-1.705 1.267-.442 2.417-1.218 3.722-1.89.709-.606 1.472-1.16 2.11-1.834.567-.602.696-1.589-.451-2.046-1.356-.54-2.767-.538-4.081-.313a36.5 36.5 0 0 0-6.5 1.734c-1.577.586-2.988 1.619-4.572 2.501M92.23 61.041c.102.051.237.168.224.266-.048.38-.143.754-.232 1.194-.264.609-.66 1.133-.74 1.7-.121.86-.48 1.078-1.315 1.077-2.676-.006-5.353.078-8.029.139q-2.712.06-5.42.159c-1.7.063-3.4.152-5.112.135 6.734-2.139 13.612-3.597 20.624-4.67m110.46 27.55c-.945.779-1.86 1.544-2.843 2.209a41.5 41.5 0 0 1-9.88 4.916 189 189 0 0 1-12.395 3.736c-2.978.794-6.042 1.27-9.069 1.884-1.033.21-2.064.456-3.108.59-.356.045-.879-.088-1.103-.338-1.161-1.294-2.258-2.647-3.361-3.992-1.068-1.3-2.115-2.619-3.174-3.927a831 831 0 0 0-3.386-4.16c-.216-.263-.474-.491-.738-.784-1.36-1.684-2.7-3.317-4.032-4.956-.373-.459-.725-.934-1.137-1.425.183-.172.399-.392.653-.458 3.724-.947 7.351-2.169 10.828-3.812a112 112 0 0 0 3.975-2.007c.406-.253.877-.375 1.143-.677.423-.479.799-.487 1.352-.281 4.329 1.608 8.667 3.191 13.003 4.777a20319 20319 0 0 0 16.462 6.016c2.133.779 4.269 1.546 6.4 2.33.152.056.272.198.41.359m-33.176.206c1.927 1.105 3.912 2.098 6.083 2.609 1.626.384 3.291.599 4.931.927 1.243.248 2.412.046 3.518-.51.502-.253.869-.711.438-1.266-.524-.677-1.15-1.275-1.774-2.005-.076-.073-.142-.16-.229-.215-4.093-2.573-8.498-4.094-13.39-3.915-.486.018-.99.234-1.439.454-.838.407-1.044 1.059-.444 1.745.669.765 1.495 1.394 2.306 2.176m-5.38-25.914a14 14 0 0 1-.419-1.557c-.021-.102.041-.224.122-.34 1.129.208 2.199.429 3.273.628 2.045.379 4.102.695 6.134 1.13 2.451.523 4.881 1.141 7.318 1.725a.94.94 0 0 1 .511.313h-8.82c-2.213 0-4.428-.036-6.641.021-.677.017-.918-.257-1.058-.826-.089-.364-.242-.713-.42-1.094" style="fill:#ffd800"/><path d="M124.519 40.412c2.429 0 4.859 0 7.393.059 1.884.366 3.687.582 5.441 1 3.093.739 6.027 1.922 8.828 3.435a36 36 0 0 1 7.125 5.082c2.301 2.098 4.292 4.471 5.891 7.151 1.406 2.355 2.628 4.8 3.306 7.478.428 1.686.823 3.38 1.245 5.138a85 85 0 0 1 .098 3.91c-.853.484-1.621 1.024-2.466 1.388-2.668 1.151-5.322 2.357-8.062 3.309-2.54.883-5.153 1.629-7.792 2.141-3.416.663-6.89 1.032-10.339 1.527-.656.095-1.309.193-2.038.302-3.769.004-7.466-.004-11.192-.067-.141-.114-.247-.213-.364-.227-2.288-.272-4.581-.506-6.866-.804a54 54 0 0 1-9.772-2.213c-2.564-.836-5.115-1.738-7.604-2.772-1.754-.728-3.396-1.727-5.099-2.679a58 58 0 0 1 .066-3.437c.114-.166.202-.297.231-.441.318-1.564.531-3.157.958-4.69 1.075-3.868 2.863-7.382 5.321-10.58 2.198-2.862 4.773-5.289 7.698-7.378 2.687-1.922 5.613-3.382 8.702-4.508 2.426-.884 4.92-1.539 7.501-1.815.601-.064 1.193-.204 1.79-.309m34.966 31.789c-.119-.765-.18-1.544-.366-2.291-.885-3.558-2.091-6.991-3.832-10.238-1.353-2.523-2.94-4.876-4.843-6.996-2.2-2.453-4.687-4.595-7.535-6.284-.894-.531-1.828-.994-2.744-1.488.707 1.022 1.535 1.861 2.28 2.767 1.529 1.862 3.158 3.666 4.489 5.665 2.492 3.739 4.573 7.707 5.828 12.062.677 2.348 1.141 4.724 1.188 7.173.014.76.002 1.521.002 2.417 2.057-.588 3.932-1.298 5.533-2.787M49.828 91.524c0-.899 0-1.8.041-2.772.066-.065.091-.057.138-.002 1.068 1.039 2.048 2.116 3.175 3.006 2.526 1.994 5.344 3.512 8.282 4.821 5.075 2.263 10.357 3.905 15.74 5.21 3.354.814 6.752 1.457 10.148 2.078q4.88.891 9.794 1.567c2.904.397 5.825.676 8.744.958 2.127.204 4.259.349 6.392.477q3.368.203 6.74.317c2.44.081 4.882.143 7.324.153 1.545.008 3.09-.107 4.636-.143 2.678-.064 5.357-.1 8.036-.167.808-.02 1.614-.101 2.421-.151 2.605-.159 5.211-.311 7.815-.479 1.43-.092 2.863-.17 4.286-.327 2.007-.224 4.006-.519 6.009-.776 1.723-.221 3.455-.375 5.167-.66 2.517-.418 5.04-.838 7.525-1.416 4.46-1.037 8.918-2.099 13.329-3.321a59.8 59.8 0 0 0 12.385-4.976c3.029-1.631 5.872-3.498 8.098-6.23a1 1 0 0 1 .119-.014c0 .689 0 1.378-.056 2.161-.658 1.36-1.253 2.631-1.867 3.894-.289.591-.658 1.146-.911 1.752-.334.804-.52 1.675-.892 2.458-1.739 3.666-4.558 6.395-7.802 8.709-4.299 3.068-9.05 5.294-14.037 6.938-4.247 1.4-8.584 2.54-12.918 3.651-2.518.646-5.101 1.05-7.667 1.488-2.395.409-4.804.745-7.213 1.062-1.595.21-3.201.345-4.805.487-2.514.222-5.029.437-7.545.624-1.226.091-2.459.09-3.686.175-.659.045-1.312.183-2.042.292-5.246.004-10.419-.004-15.626-.064-.335-.114-.635-.222-.938-.23-.948-.024-1.902.048-2.846-.021-2.387-.177-4.768-.406-7.152-.621-1.709-.155-3.423-.268-5.123-.494a182 182 0 0 1-7.126-1.095c-2.897-.503-5.806-.968-8.666-1.638-4.561-1.068-9.072-2.328-13.446-4.043-3.662-1.438-7.23-3.065-10.547-5.187-2.684-1.718-5.147-3.711-7.179-6.201-1.134-1.389-2.138-2.841-2.813-4.517-.477-1.186-1.022-2.345-1.583-3.494-.482-.989-1.025-1.948-1.552-2.914-.069-.126-.203-.218-.306-.325m12.99 47.387c.266-.307.486-.603.779-.767.595-.333 1.238-.581 1.846-.893.29-.149.684-.303.795-.558 1.205-2.735 2.362-5.489 3.53-8.24.655-1.541 1.208-3.135 1.986-4.611.817-1.547 2.181-2.616 3.718-3.449a45 45 0 0 0 2.283-1.313c.722-.45 1.374-.067 2.05.1l6.426 1.586c-.559.343-1.075.679-1.608.984-2.041 1.164-4.034 2.427-6.149 3.436-1.378.659-1.664 1.914-2.19 3.041-1.044 2.241-1.972 4.536-2.953 6.806-.418.971-.849 1.936-1.308 2.98 1.475.333 2.423 1.129 2.135 2.791-.141.822-1.391 1.945-2.46 1.915a2.7 2.7 0 0 1-.952.01c-1.541-.234-2.983-.372-4.415-.584-1.302-.192-2.713-.197-3.501-1.565-.008-.532-.016-1.064-.012-1.669m119.997 3.87c-1.065-.341-1.967-.759-2.299-1.908-.356-1.228.266-2.373 1.505-2.671.174-.042.337-.125.543-.204-.581-1.385-1.139-2.76-1.733-4.117-1.012-2.314-2.079-4.605-3.057-6.932-.393-.934-1.079-1.458-1.915-1.918-2.239-1.231-4.458-2.496-6.681-3.754-.171-.096-.315-.239-.505-.387 2.504-.581 4.922-1.161 7.353-1.685a2 2 0 0 1 1.218.156c.922.459 1.774 1.058 2.692 1.525 1.885.961 2.84 2.625 3.607 4.485 1.048 2.547 2.154 5.071 3.24 7.603a332 332 0 0 0 1.666 3.826c.075.168.232.431.348.43 1.208-.012 2.097.563 2.893 1.449a10 10 0 0 1 .021 1.855c-.416.772-.941 1.212-1.723 1.316-1.118.149-2.233.315-3.351.47q-1.625.227-3.251.45a8 8 0 0 1-.571.011" style="fill:#fff"/></svg>