<svg xmlns="http://www.w3.org/2000/svg" xml:space="preserve" style="fill-rule:evenodd;clip-rule:evenodd;stroke-linejoin:round;stroke-miterlimit:2" viewBox="0 0 356 356"><path d="M355.556 88.889v177.778c0 49.059-39.83 88.889-88.889 88.889H88.889C39.83 355.556 0 315.726 0 266.667V88.889C0 39.83 39.83 0 88.889 0h177.778c49.059 0 88.889 39.83 88.889 88.889" style="fill:#191763"/><path d="M88.749-.183c174.053 118.519 170.975 237.037 0 355.556-49.06 0-88.889-39.83-88.889-88.889V88.706C-.14 39.647 39.689-.183 88.749-.183" style="fill:#262292"/><path d="M209.176 123.099c.9 1.106 1.712 2.196 2.565 3.252a1440 1440 0 0 0 6.555 8.057c1.808 2.207 3.636 4.398 5.45 6.6.294.358.561.739.935 1.234-1.757.23-3.382.449-5.009.655-2.287.291-4.573.588-6.862.852-1.043.12-2.094.181-3.143.248-3.549.226-7.097.463-10.647.657-3.196.175-6.393.37-9.592.43-6.547.124-13.096.229-19.644.21-3.967-.011-7.936-.229-11.901-.428a212 212 0 0 1-9.436-.663c-3.914-.372-7.815-.864-11.723-1.297-2.08-.23-4.162-.443-6.241-.673-.202-.023-.394-.117-.689-.208 1.191-1.381 2.317-2.69 3.449-3.994 2.421-2.789 4.833-5.587 7.272-8.361 1.893-2.153 3.822-4.273 5.765-6.474 2.273-2.648 4.494-5.251 6.787-7.788.293-.325.988-.496 1.448-.424 2.397.369 4.77.897 7.168 1.256 1.673.251 3.37.365 5.061.464 4.2.246 8.403.645 12.602.611 4.076-.032 8.159-.423 12.219-.855 3.302-.35 6.575-.978 9.857-1.514.938-.154 1.386.448 1.872 1.039 1.939 2.36 3.875 4.721 5.882 7.114m-25.302 15.419a12.6 12.6 0 0 0 5.984-2.772c1.14-.947 1.989-2.248 1.452-3.713-.385-1.046-1.248-2.044-2.145-2.75-2.757-2.171-6.13-2.761-9.487-3.066-3.586-.325-7.184-.016-10.575 1.313-1.444.565-2.872 1.346-4.074 2.319-2.856 2.316-1.682 4.942.807 6.609 2.991 2.004 6.48 2.65 10.012 2.9 2.649.188 5.281-.097 8.026-.84" style="fill:#ffd800;fill-rule:nonzero"/><path d="M172.937 55.976c3.378 0 6.757 0 10.28.082 2.621.509 5.128.809 7.567 1.391 4.301 1.027 8.382 2.672 12.277 4.777 3.599 1.944 6.894 4.32 9.908 7.066 3.2 2.918 5.968 6.218 8.192 9.945 1.955 3.275 3.654 6.675 4.597 10.399.595 2.345 1.145 4.7 1.732 7.145.079 1.866.142 3.636.136 5.438-1.186.672-2.255 1.423-3.43 1.93-3.71 1.6-7.4 3.277-11.21 4.601-3.533 1.228-7.167 2.266-10.836 2.977-4.751.922-9.582 1.435-14.378 2.124-.912.132-1.821.269-2.834.42-5.242.005-10.382-.006-15.564-.093-.196-.159-.344-.297-.506-.316-3.182-.378-6.371-.704-9.548-1.118a75 75 0 0 1-13.589-3.077c-3.566-1.163-7.113-2.417-10.575-3.855-2.439-1.013-4.722-2.402-7.091-3.726-.005-1.648.005-3.194.092-4.779.159-.231.281-.414.321-.613.443-2.175.739-4.391 1.332-6.523 1.495-5.379 3.982-10.265 7.4-14.713 3.057-3.98 6.638-7.354 10.705-10.26 3.737-2.672 7.806-4.703 12.101-6.268 3.374-1.23 6.842-2.14 10.431-2.524.836-.089 1.66-.284 2.49-.43m48.624 44.207c-.165-1.064-.25-2.147-.509-3.187-1.23-4.947-2.908-9.721-5.328-14.236-1.882-3.509-4.089-6.781-6.735-9.729-3.06-3.411-6.518-6.391-10.478-8.739-1.244-.738-2.543-1.382-3.817-2.07.984 1.422 2.135 2.588 3.171 3.848 2.127 2.59 4.391 5.099 6.243 7.879 3.465 5.199 6.359 10.717 8.104 16.773.941 3.265 1.587 6.57 1.652 9.975.02 1.057.003 2.115.003 3.361 2.861-.818 5.468-1.805 7.694-3.875M69.069 127.054c0-1.251 0-2.503.057-3.855.092-.091.127-.08.193-.003 1.484 1.445 2.847 2.942 4.415 4.18 3.513 2.773 7.431 4.884 11.517 6.705 7.057 3.146 14.402 5.43 21.889 7.245 4.664 1.131 9.389 2.025 14.112 2.889a312 312 0 0 0 13.619 2.179c4.039.553 8.101.941 12.16 1.332 2.957.284 5.922.486 8.888.664q4.684.283 9.373.441c3.393.113 6.79.198 10.185.213 2.149.01 4.297-.149 6.447-.2 3.725-.088 7.45-.139 11.175-.231 1.124-.028 2.245-.141 3.367-.21 3.623-.222 7.247-.433 10.868-.667 1.988-.128 3.981-.236 5.96-.455 2.791-.311 5.571-.721 8.357-1.079 2.395-.307 4.804-.521 7.184-.917 3.501-.582 7.01-1.166 10.465-1.97 6.202-1.441 12.402-2.918 18.536-4.618a83 83 0 0 0 17.222-6.92c4.213-2.267 8.167-4.864 11.262-8.663a.8.8 0 0 1 .166-.02c0 .958 0 1.917-.078 3.005-.916 1.892-1.743 3.66-2.597 5.415-.401.823-.915 1.595-1.266 2.437-.465 1.118-.724 2.329-1.241 3.418-2.419 5.098-6.339 8.893-10.849 12.111-5.979 4.267-12.586 7.362-19.521 9.648-5.906 1.947-11.937 3.532-17.964 5.078-3.501.898-7.093 1.46-10.662 2.069-3.33.568-6.68 1.036-10.03 1.477-2.218.292-4.452.48-6.682.677-3.497.309-6.994.607-10.493.868-1.705.126-3.419.125-5.125.243-.917.063-1.825.255-2.84.406-7.296.005-14.489-.006-21.73-.089-.466-.158-.883-.309-1.304-.32-1.319-.033-2.646.067-3.958-.029-3.319-.246-6.631-.565-9.946-.864-2.376-.215-4.76-.373-7.124-.687-3.312-.44-6.618-.951-9.91-1.522-4.029-.7-8.074-1.347-12.051-2.278-6.343-1.486-12.616-3.237-18.698-5.623-5.093-1.999-10.054-4.262-14.667-7.213-3.733-2.389-7.158-5.16-9.983-8.623-1.577-1.932-2.974-3.95-3.912-6.282-.663-1.648-1.422-3.26-2.202-4.858-.67-1.375-1.425-2.709-2.158-4.052-.096-.176-.282-.303-.426-.452" style="fill:#fff;fill-rule:nonzero"/><path d="M151.254 299.58c-.138-.138-.13-.356-.214-.402-1.266-.684-1.653-1.801-1.653-3.154.005-30.36.003-60.721.004-91.08 0-1.971.917-3.139 2.844-3.602.221-.052.478-.046.7.007 2.903.703 5.786 1.499 8.709 2.106 2.274.473 4.587.808 6.9 1.035 2.596.254 5.212.445 7.818.434 3.344-.014 6.691-.2 10.031-.414 5.339-.339 10.494-1.644 15.636-3.05 3.011-.823 4.479 1.199 4.547 3.446.109 3.627.137 7.263-.006 10.888-.109 2.765-1.41 3.857-4.435 3.878-10.596.07-21.193.027-31.79.027-2.068 0-3.35 1.293-3.35 3.381-.001 3.519.075 7.042-.024 10.559-.076 2.666 1.469 3.873 3.897 3.877 10.524.017 21.047.04 31.57-.016 2.586-.014 4.284 1.652 4.212 4.155-.102 3.535.12 7.079.169 10.62.031 2.256-1.267 3.512-3.55 3.513-10.266.001-20.534-.012-30.8.012-1.791.004-3.46.383-4.142 2.38-.113.332-.219.688-.223 1.034-.085 8.673-.163 17.348-.225 26.021-.023 3.227-.019 6.454.002 9.68.011 1.858-.433 3.477-2.048 4.6-4.784.065-9.63.065-14.579.065M286.486 116.169c-.339.63-.698 1.146-1.014 1.686-.425.728-.816 1.475-1.184 2.144-3.779-1.353-7.426-2.634-11.056-3.964-5.867-2.148-11.717-4.341-17.583-6.491-8.133-2.981-16.275-5.936-24.405-8.92-.254-.093-.6-.366-.625-.587-.233-2.105-.406-4.218-.607-6.431h3.455c3.447 0 6.893-.025 10.339.005 5.924.054 11.846.167 17.77.204 2.975.018 5.666.979 8.288 2.244 3.869 1.866 7.64 3.929 10.902 6.738 2.319 1.997 4.458 4.229 5.302 7.343.033.122.181.213.347.254.071 1.848.071 3.759.071 5.775m-20.76-7.598c.22 0 .441.016.659-.004 1.281-.12 1.789-1.003.929-1.895a15.3 15.3 0 0 0-3.427-2.678c-3.24-1.832-6.747-3.057-10.397-3.733-1.796-.333-3.65-.88-5.526-.172-1.19.448-1.449 1.087-.479 1.893 1.341 1.115 2.737 2.227 4.271 3.035 3.385 1.783 7.045 2.856 10.807 3.521.962.17 1.978.038 3.163.033M69.069 110.653c.155-.282.377-.436.455-.644 1.21-3.24 3.36-5.792 6.098-7.779a77 77 0 0 1 7.926-5.048c2.338-1.291 4.801-2.241 7.656-2.093 3.306.171 6.635-.081 9.954-.166 2.183-.056 4.366-.145 6.548-.217q3.44-.11 6.878-.221c2.22-.072 4.44-.126 6.658-.226 1.484-.067 2.964-.201 4.434-.305-.171 1.979-.363 3.824-.473 5.672-.032.54-.156.833-.686 1.023a6092 6092 0 0 0-20.723 7.493 7833 7833 0 0 0-22.897 8.366c-3.16 1.16-6.303 2.369-9.598 3.611-.705-1.47-1.38-2.877-2.143-4.286-.087-1.693-.087-3.385-.087-5.18m26.75-2.742c3.243-.735 6.367-1.819 9.221-3.532 1.197-.719 2.255-1.694 3.297-2.64.747-.679.359-1.3-.442-1.533-.844-.248-1.769-.496-2.619-.399-3.116.355-6.181 1.003-9.111 2.168-2.759 1.097-5.538 2.176-7.621 4.422-.318.343-.672.972-.554 1.312.132.379.755.759 1.211.826 2.182.324 4.33.045 6.618-.624M262.54 281.207c-.176.114-.313.157-.483.264-1.845.68-3.671 1.257-5.465 1.92-4.231 1.56-8.445 3.162-12.668 4.744-5.986 2.242-11.966 4.496-17.96 6.714a357 357 0 0 1-9.229 3.281c-1.42.481-3.661-.868-3.949-2.318a12.3 12.3 0 0 1-.23-2.361c-.011-29.266-.014-58.532.001-87.798.001-1.83.351-3.55 2.426-4.219.368-.119.764-.211 1.146-.211q25.03-.015 50.061-.007c2.089 0 3.572 1.515 3.572 3.62 0 23.656-.009 47.311.018 70.965.002 1.712-.751 2.866-2.208 3.506-1.621.71-3.325 1.227-5.032 1.9m-31.508-47.535q-.001 17.27.001 34.538c0 2.302 2.213 3.954 4.366 3.185a930 930 0 0 0 13.402-4.907c1.94-.725 2.695-1.933 2.696-4.044.001-12.943.015-25.886-.012-38.828-.007-2.814-1.406-4.048-3.991-4.11-4.141-.1-8.287-.101-12.428.001-2.404.059-4.142 1.063-4.055 4.157.092 3.26.021 6.526.021 10.008M93.835 281.537c-.475-.077-.868-.153-1.35-.243-.932-.443-1.769-.884-2.621-1.292-.285-.137-.619-.17-.913-.292-2.145-.895-3.153-1.5-3.154-4.727-.007-23.216.011-46.432-.024-69.648-.004-2.541 1.661-4.258 4.09-4.157 3.405.142 6.824.137 10.23.003 2.66-.104 4.197 1.613 4.192 4.284-.016 11.04-.007 22.079-.007 33.119 0 8.106.03 16.211-.023 24.316-.011 1.708.819 2.858 2.196 3.397 4.593 1.8 9.279 3.363 13.875 5.156 1.838.717 4.248-1.091 4.241-3.082-.07-20.905-.06-41.811-.023-62.716.005-2.802.755-3.729 2.83-4.311.34-.096.709-.124 1.065-.125 3.631-.009 7.262-.007 10.893-.004 2.187.001 3.676 1.468 3.676 3.631q0 44.892.002 89.783c.001 2.423-2.392 4.318-5.076 3.306-6.212-2.342-12.449-4.62-18.667-6.947-7.151-2.676-14.291-5.38-21.439-8.063a116 116 0 0 0-3.993-1.388M138.168 170.078c.526-.017 1.054.042 1.766.103 3.892.441 7.596.928 11.311 1.304 2.947.298 5.906.511 8.865.668 3.775.2 7.555.408 11.333.428 5.04.028 10.08-.11 15.119-.202 1.414-.026 2.826-.133 4.239-.213 3.834-.217 7.67-.425 11.503-.666 1.802-.113 3.604-.249 5.396-.456 2.208-.254 4.405-.592 6.607-.894 1.212-.123 2.425-.245 3.69-.294-2.582 2.647-5.333 5.061-8.475 7.028-3.214 2.013-6.61 3.617-10.146 4.954-3.946 1.493-8.045 2.405-12.195 3.061-1.85.292-3.741.338-5.615.466-1.448.099-2.901.242-4.349.209-6.412-.143-12.748-.93-18.868-2.895-5.455-1.752-10.565-4.285-15.109-7.803-1.819-1.409-3.388-3.139-5.072-4.798" style="fill:#ffd800;fill-rule:nonzero"/><path d="M87.134 192.951c.369-.427.675-.839 1.083-1.067.828-.463 1.722-.808 2.567-1.242.404-.206.951-.421 1.106-.775 1.675-3.803 3.284-7.634 4.909-11.459.911-2.143 1.679-4.36 2.762-6.412 1.136-2.152 3.032-3.638 5.17-4.797a61 61 0 0 0 3.174-1.825c1.005-.626 1.911-.094 2.851.138 2.918.719 5.836 1.441 8.936 2.206-.777.477-1.494.945-2.236 1.368-2.838 1.619-5.61 3.376-8.55 4.779-1.917.916-2.315 2.661-3.046 4.229-1.452 3.116-2.743 6.307-4.106 9.464-.582 1.35-1.181 2.692-1.819 4.144 2.05.463 3.369 1.57 2.969 3.881-.197 1.143-1.935 2.705-3.421 2.664a3.7 3.7 0 0 1-1.324.013c-2.143-.325-4.149-.517-6.14-.811-1.811-.268-3.773-.275-4.868-2.177-.011-.74-.023-1.48-.017-2.321M254.005 198.333c-1.481-.474-2.736-1.056-3.197-2.654-.495-1.707.37-3.3 2.093-3.714.241-.058.468-.174.755-.284-.809-1.926-1.584-3.837-2.411-5.725-1.407-3.218-2.891-6.403-4.251-9.64-.546-1.298-1.5-2.027-2.663-2.667-3.113-1.711-6.199-3.471-9.291-5.22-.237-.134-.437-.332-.701-.539 3.481-.807 6.844-1.614 10.225-2.343a2.77 2.77 0 0 1 1.694.217c1.282.639 2.466 1.471 3.743 2.121 2.621 1.336 3.95 3.65 5.016 6.237 1.458 3.542 2.995 7.052 4.505 10.573a448 448 0 0 0 2.318 5.32c.104.234.322.6.484.598 1.679-.016 2.916.784 4.023 2.016.088.816.1 1.629.029 2.579-.579 1.074-1.309 1.686-2.396 1.83-1.555.207-3.106.438-4.66.654q-2.26.315-4.522.625c-.235.011-.471.021-.793.016" style="fill:#fff;fill-rule:nonzero"/><path d="M142.13 122.981c-1.547 1.8-3.097 3.52-4.636 5.25a517 517 0 0 0-3.518 4.006c-2.477 2.838-4.982 5.653-7.403 8.539-.614.732-1.29.7-2.005.558-4.987-.997-9.993-1.926-14.943-3.088-4.002-.939-7.942-2.145-11.895-3.283-5.288-1.521-10.361-3.603-15.223-6.164-2.962-1.561-5.828-3.3-8.309-5.709-.031-.168-.028-.396.049-.424 4.489-1.655 8.988-3.288 13.481-4.935 6.627-2.43 13.248-4.875 19.875-7.305a2790 2790 0 0 1 17.3-6.293c.278-.1.708.081 1.014.236.663.336 1.291.74 2.011 1.118 2.609 1.248 5.059 2.707 7.686 3.691 4.575 1.714 9.26 3.132 13.896 4.68.116.039.208.151.316.313-1.538 1.801-3.086 3.514-4.623 5.237a122 122 0 0 0-3.073 3.573m-40.63.143c-.719.788-1.547 1.506-2.126 2.386-.587.896-.277 1.567.695 2.073 2.078 1.081 4.335.886 6.455.481 2.903-.554 5.771-1.397 8.566-2.371 1.761-.614 3.361-1.693 5.175-2.628.986-.843 2.048-1.613 2.934-2.55.789-.837.969-2.21-.626-2.845-1.886-.751-3.849-.749-5.676-.435a50.7 50.7 0 0 0-9.039 2.411c-2.193.814-4.155 2.251-6.358 3.478M128.035 84.663c.141.071.33.234.312.37-.067.529-.2 1.048-.323 1.661-.368.846-.918 1.575-1.029 2.364-.168 1.196-.668 1.499-1.829 1.497-3.722-.008-7.444.108-11.165.193-2.514.058-5.026.128-7.538.221-2.364.088-4.728.212-7.109.189 9.365-2.975 18.93-5.003 28.681-6.495M281.643 122.975c-1.314 1.083-2.586 2.147-3.953 3.072a57.7 57.7 0 0 1-13.739 6.836c-5.677 1.937-11.44 3.652-17.237 5.195-4.142 1.104-8.403 1.766-12.612 2.621-1.437.292-2.87.634-4.322.82-.495.063-1.222-.122-1.534-.47-1.614-1.8-3.14-3.681-4.674-5.551-1.485-1.809-2.941-3.642-4.414-5.461-1.564-1.932-3.13-3.863-4.708-5.785-.301-.366-.66-.683-1.026-1.091-1.892-2.342-3.755-4.612-5.608-6.892-.519-.638-1.008-1.299-1.581-1.982.255-.238.555-.545.909-.636 5.178-1.317 10.222-3.016 15.057-5.302 1.846-.873 3.661-1.814 5.528-2.791.565-.351 1.219-.521 1.589-.941.588-.666 1.111-.677 1.881-.391 6.02 2.236 12.052 4.438 18.082 6.644q11.444 4.188 22.892 8.366c2.966 1.083 5.937 2.15 8.9 3.239.212.078.379.276.57.5m-46.135.287c2.68 1.536 5.44 2.917 8.459 3.628 2.261.533 4.576.832 6.857 1.288 1.729.346 3.354.064 4.893-.709.698-.352 1.208-.988.609-1.76-.729-.941-1.6-1.773-2.467-2.789-.106-.101-.198-.222-.319-.298-5.691-3.578-11.818-5.693-18.62-5.445-.676.025-1.377.326-2.002.631-1.165.567-1.451 1.474-.617 2.427.931 1.064 2.079 1.939 3.207 3.027M228.026 87.224a20 20 0 0 1-.582-2.164c-.03-.143.056-.312.169-.473 1.571.289 3.059.596 4.552.873 2.843.527 5.704.966 8.53 1.571 3.408.728 6.787 1.587 10.177 2.399.259.062.502.193.71.435h-12.265c-3.078 0-6.158-.049-9.235.029-.942.024-1.277-.357-1.472-1.148-.124-.506-.336-.991-.584-1.522" style="fill:#ffd800;fill-rule:nonzero"/></svg>