<svg xmlns="http://www.w3.org/2000/svg" xml:space="preserve" style="fill-rule:evenodd;clip-rule:evenodd;stroke-linejoin:round;stroke-miterlimit:2" viewBox="0 0 256 256"><path d="M256 64v128c0 35.322-28.678 64-64 64H64c-35.322 0-64-28.678-64-64V64C0 28.678 28.678 0 64 0h128c35.322 0 64 28.678 64 64" style="fill:#191763"/><path d="M63.121 0c123.596 85.334 121.41 170.666 0 256C28.283 256 0 227.322 0 192V64C0 28.678 28.283 0 63.121 0" style="fill:#262292"/><path d="M207.56 88.029a20.82 20.82 0 0 0-14.682-14.682C179.933 69.875 128 69.875 128 69.875s-51.932 0-64.878 3.472A20.82 20.82 0 0 0 48.44 88.029C44.968 100.974 44.968 128 44.968 128s0 27.026 3.472 39.972a20.82 20.82 0 0 0 14.682 14.681c12.946 3.472 64.878 3.472 64.878 3.472s51.933 0 64.878-3.472a20.8 20.8 0 0 0 14.682-14.681c3.472-12.946 3.472-39.972 3.472-39.972s-.014-27.026-3.472-39.971" style="fill:url(#a);fill-rule:nonzero"/><path d="m111.378 152.909 43.143-24.906-43.143-24.907z" style="fill:#fff;fill-rule:nonzero"/><defs><linearGradient id="a" x1="0" x2="1" y1="0" y2="0" gradientTransform="rotate(-.016 449779.544 -157945.332)scale(216.279)" gradientUnits="userSpaceOnUse"><stop offset="0" style="stop-color:red;stop-opacity:1"/><stop offset="1" style="stop-color:#fff000;stop-opacity:1"/></linearGradient></defs></svg>