<svg xmlns="http://www.w3.org/2000/svg" xml:space="preserve" style="fill-rule:evenodd;clip-rule:evenodd;stroke-linejoin:round;stroke-miterlimit:2" viewBox="0 0 356 356"><path d="M355.556 88.889v177.778c0 49.059-39.83 88.889-88.889 88.889H88.889C39.83 355.556 0 315.726 0 266.667V88.889C0 39.83 39.83 0 88.889 0h177.778c49.059 0 88.889 39.83 88.889 88.889" style="fill:#191763"/><path d="M88.749-.183c174.053 118.519 170.975 237.037 0 355.556-49.06 0-88.889-39.83-88.889-88.889V88.706C-.14 39.647 39.689-.183 88.749-.183" style="fill:#262292"/><path d="M288.415 122.193a28.92 28.92 0 0 0-20.416-20.417c-18.002-4.829-90.222-4.829-90.222-4.829s-72.218 0-90.221 4.829a28.92 28.92 0 0 0-20.416 20.417c-4.829 18.002-4.829 55.585-4.829 55.585s0 37.583 4.829 55.585a28.92 28.92 0 0 0 20.416 20.416c18.003 4.829 90.221 4.829 90.221 4.829s72.22 0 90.222-4.829c9.942-2.661 17.756-10.474 20.416-20.416 4.829-18.002 4.829-55.585 4.829-55.585s-.019-37.583-4.829-55.585" style="fill:url(#a);fill-rule:nonzero"/><path d="m154.662 212.417 59.996-34.636-59.996-34.636z" style="fill:#fff;fill-rule:nonzero"/><defs><linearGradient id="a" x1="0" x2="1" y1="0" y2="0" gradientTransform="matrix(300.763 -.0856 .0856 300.763 62.311 177.781)" gradientUnits="userSpaceOnUse"><stop offset="0" style="stop-color:red;stop-opacity:1"/><stop offset="1" style="stop-color:#fff000;stop-opacity:1"/></linearGradient></defs></svg>